M48
; DRILL file {KiCad 8.0.5-8.0.5-0~ubuntu22.04.1} date 2024-09-26T22:48:29+0900
; FORMAT={-:-/ absolute / inch / decimal}
; #@! TF.CreationDate,2024-09-26T22:48:29+09:00
; #@! TF.GenerationSoftware,Kicad,Pcbnew,8.0.5-8.0.5-0~ubuntu22.04.1
; #@! TF.FileFunction,Plated,1,2,PTH
FMAT,2
INCH
; #@! TA.AperFunction,Plated,PTH,ViaDrill
T1C0.0118
; #@! TA.AperFunction,Plated,PTH,ComponentDrill
T2C0.0276
; #@! TA.AperFunction,Plated,PTH,ComponentDrill
T3C0.0315
; #@! TA.AperFunction,Plated,PTH,ComponentDrill
T4C0.0354
; #@! TA.AperFunction,Plated,PTH,ComponentDrill
T5C0.0394
; #@! TA.AperFunction,Plated,PTH,ComponentDrill
T6C0.0433
%
G90
G05
T1
X6.9685Y-4.4488
X6.9685Y-4.9606
X7.1063Y-4.3701
X7.1772Y-4.9606
X7.2751Y-4.0412
X7.3622Y-4.3701
X7.4775Y-4.4112
X7.5787Y-4.3504
X7.7756Y-4.2913
X7.8543Y-3.7992
X7.9921Y-5.0
X8.1299Y-4.1535
X8.3465Y-4.7244
X8.4449Y-3.9764
T2
X6.7913Y-4.0551
X6.7913Y-4.1551
X7.0276Y-4.0819
X7.0276Y-4.1819
X7.2421Y-5.2165
X7.3406Y-5.2165
X7.3622Y-4.1913
X7.3622Y-4.2913
X7.5197Y-4.1858
X7.5197Y-4.2858
X7.9311Y-5.2165
X7.9724Y-3.7992
X7.9724Y-3.8992
X7.9724Y-4.1535
X7.9724Y-4.2535
X8.0295Y-5.2165
T3
X7.0866Y-4.5866
X7.0866Y-4.7835
X7.2921Y-4.5472
X7.2921Y-4.8472
X7.3921Y-4.5472
X7.3921Y-4.8472
X7.4921Y-4.5472
X7.4921Y-4.8472
X7.5421Y-5.2165
X7.5921Y-4.5472
X7.5921Y-4.8472
X7.6921Y-4.5472
X7.6921Y-4.8472
X7.7343Y-5.2165
X7.7921Y-4.5472
X7.7921Y-4.8472
X7.8921Y-4.5472
X7.8921Y-4.8472
X7.9921Y-4.5472
X7.9921Y-4.8472
X8.0921Y-4.5472
X8.0921Y-4.8472
X8.1921Y-4.5472
X8.1921Y-4.8472
X8.2874Y-3.7992
X8.2874Y-3.878
T4
X6.811Y-4.3986
X6.811Y-4.4986
X6.811Y-4.6654
X6.811Y-4.7654
T5
X7.2787Y-3.7992
X7.2787Y-3.8992
X7.3787Y-3.7992
X7.3787Y-3.8992
X7.4787Y-3.7992
X7.4787Y-3.8992
X7.5787Y-3.7992
X7.5787Y-3.8992
X7.6787Y-3.7992
X7.6787Y-3.8992
T6
X6.3484Y-4.0059
X6.3484Y-4.1831
X6.6043Y-4.0059
X6.6043Y-4.1831
X7.6772Y-4.0945
X7.6772Y-4.1945
X7.8346Y-4.0846
X7.8346Y-4.1846
X8.5925Y-4.0059
X8.5925Y-4.1831
X8.8484Y-4.0059
X8.8484Y-4.1831
M30
