%TF.GenerationSoftware,KiCad,Pcbnew,8.0.9-8.0.9-0~ubuntu22.04.1*%
%TF.CreationDate,2026-03-18T11:42:18+09:00*%
%TF.ProjectId,avrReveil7,61767252-6576-4656-996c-372e6b696361,rev?*%
%TF.SameCoordinates,Original*%
%TF.FileFunction,Copper,L2,Bot*%
%TF.FilePolarity,Positive*%
%FSLAX46Y46*%
G04 Gerber Fmt 4.6, Leading zero omitted, Abs format (unit mm)*
G04 Created by KiCad (PCBNEW 8.0.9-8.0.9-0~ubuntu22.04.1) date 2026-03-18 11:42:18*
%MOMM*%
%LPD*%
G01*
G04 APERTURE LIST*
%ADD10C,0.300000*%
%TA.AperFunction,NonConductor*%
%ADD11C,0.300000*%
%TD*%
%TA.AperFunction,ComponentPad*%
%ADD12O,1.600000X1.600000*%
%TD*%
%TA.AperFunction,ComponentPad*%
%ADD13R,1.600000X1.600000*%
%TD*%
%TA.AperFunction,ComponentPad*%
%ADD14C,1.600000*%
%TD*%
%TA.AperFunction,ComponentPad*%
%ADD15O,1.700000X1.700000*%
%TD*%
%TA.AperFunction,ComponentPad*%
%ADD16R,1.700000X1.700000*%
%TD*%
%TA.AperFunction,ViaPad*%
%ADD17C,2.500000*%
%TD*%
%TA.AperFunction,Conductor*%
%ADD18C,1.000000*%
%TD*%
%TA.AperFunction,Profile*%
%ADD19C,0.050000*%
%TD*%
G04 APERTURE END LIST*
D10*
D11*
X126802632Y-108300828D02*
X126802632Y-107515114D01*
X126802632Y-107515114D02*
X126874060Y-107372257D01*
X126874060Y-107372257D02*
X127016917Y-107300828D01*
X127016917Y-107300828D02*
X127302632Y-107300828D01*
X127302632Y-107300828D02*
X127445489Y-107372257D01*
X126802632Y-108229400D02*
X126945489Y-108300828D01*
X126945489Y-108300828D02*
X127302632Y-108300828D01*
X127302632Y-108300828D02*
X127445489Y-108229400D01*
X127445489Y-108229400D02*
X127516917Y-108086542D01*
X127516917Y-108086542D02*
X127516917Y-107943685D01*
X127516917Y-107943685D02*
X127445489Y-107800828D01*
X127445489Y-107800828D02*
X127302632Y-107729400D01*
X127302632Y-107729400D02*
X126945489Y-107729400D01*
X126945489Y-107729400D02*
X126802632Y-107657971D01*
X126231203Y-107300828D02*
X125874060Y-108300828D01*
X125874060Y-108300828D02*
X125516917Y-107300828D01*
X124945489Y-108300828D02*
X124945489Y-107300828D01*
X124945489Y-107586542D02*
X124874060Y-107443685D01*
X124874060Y-107443685D02*
X124802632Y-107372257D01*
X124802632Y-107372257D02*
X124659774Y-107300828D01*
X124659774Y-107300828D02*
X124516917Y-107300828D01*
X123159775Y-108300828D02*
X123659775Y-107586542D01*
X124016918Y-108300828D02*
X124016918Y-106800828D01*
X124016918Y-106800828D02*
X123445489Y-106800828D01*
X123445489Y-106800828D02*
X123302632Y-106872257D01*
X123302632Y-106872257D02*
X123231203Y-106943685D01*
X123231203Y-106943685D02*
X123159775Y-107086542D01*
X123159775Y-107086542D02*
X123159775Y-107300828D01*
X123159775Y-107300828D02*
X123231203Y-107443685D01*
X123231203Y-107443685D02*
X123302632Y-107515114D01*
X123302632Y-107515114D02*
X123445489Y-107586542D01*
X123445489Y-107586542D02*
X124016918Y-107586542D01*
X121945489Y-108229400D02*
X122088346Y-108300828D01*
X122088346Y-108300828D02*
X122374061Y-108300828D01*
X122374061Y-108300828D02*
X122516918Y-108229400D01*
X122516918Y-108229400D02*
X122588346Y-108086542D01*
X122588346Y-108086542D02*
X122588346Y-107515114D01*
X122588346Y-107515114D02*
X122516918Y-107372257D01*
X122516918Y-107372257D02*
X122374061Y-107300828D01*
X122374061Y-107300828D02*
X122088346Y-107300828D01*
X122088346Y-107300828D02*
X121945489Y-107372257D01*
X121945489Y-107372257D02*
X121874061Y-107515114D01*
X121874061Y-107515114D02*
X121874061Y-107657971D01*
X121874061Y-107657971D02*
X122588346Y-107800828D01*
X121374061Y-107300828D02*
X121016918Y-108300828D01*
X121016918Y-108300828D02*
X120659775Y-107300828D01*
X119516918Y-108229400D02*
X119659775Y-108300828D01*
X119659775Y-108300828D02*
X119945490Y-108300828D01*
X119945490Y-108300828D02*
X120088347Y-108229400D01*
X120088347Y-108229400D02*
X120159775Y-108086542D01*
X120159775Y-108086542D02*
X120159775Y-107515114D01*
X120159775Y-107515114D02*
X120088347Y-107372257D01*
X120088347Y-107372257D02*
X119945490Y-107300828D01*
X119945490Y-107300828D02*
X119659775Y-107300828D01*
X119659775Y-107300828D02*
X119516918Y-107372257D01*
X119516918Y-107372257D02*
X119445490Y-107515114D01*
X119445490Y-107515114D02*
X119445490Y-107657971D01*
X119445490Y-107657971D02*
X120159775Y-107800828D01*
X118802633Y-108300828D02*
X118802633Y-107300828D01*
X118802633Y-106800828D02*
X118874061Y-106872257D01*
X118874061Y-106872257D02*
X118802633Y-106943685D01*
X118802633Y-106943685D02*
X118731204Y-106872257D01*
X118731204Y-106872257D02*
X118802633Y-106800828D01*
X118802633Y-106800828D02*
X118802633Y-106943685D01*
X117874061Y-108300828D02*
X118016918Y-108229400D01*
X118016918Y-108229400D02*
X118088347Y-108086542D01*
X118088347Y-108086542D02*
X118088347Y-106800828D01*
X117445490Y-106800828D02*
X116445490Y-106800828D01*
X116445490Y-106800828D02*
X117088347Y-108300828D01*
X115874062Y-107729400D02*
X114731205Y-107729400D01*
X114231204Y-107300828D02*
X113659776Y-107300828D01*
X114016919Y-108300828D02*
X114016919Y-107015114D01*
X114016919Y-107015114D02*
X113945490Y-106872257D01*
X113945490Y-106872257D02*
X113802633Y-106800828D01*
X113802633Y-106800828D02*
X113659776Y-106800828D01*
X113159776Y-108300828D02*
X113159776Y-107300828D01*
X113159776Y-107586542D02*
X113088347Y-107443685D01*
X113088347Y-107443685D02*
X113016919Y-107372257D01*
X113016919Y-107372257D02*
X112874061Y-107300828D01*
X112874061Y-107300828D02*
X112731204Y-107300828D01*
X112016919Y-108300828D02*
X112159776Y-108229400D01*
X112159776Y-108229400D02*
X112231205Y-108157971D01*
X112231205Y-108157971D02*
X112302633Y-108015114D01*
X112302633Y-108015114D02*
X112302633Y-107586542D01*
X112302633Y-107586542D02*
X112231205Y-107443685D01*
X112231205Y-107443685D02*
X112159776Y-107372257D01*
X112159776Y-107372257D02*
X112016919Y-107300828D01*
X112016919Y-107300828D02*
X111802633Y-107300828D01*
X111802633Y-107300828D02*
X111659776Y-107372257D01*
X111659776Y-107372257D02*
X111588348Y-107443685D01*
X111588348Y-107443685D02*
X111516919Y-107586542D01*
X111516919Y-107586542D02*
X111516919Y-108015114D01*
X111516919Y-108015114D02*
X111588348Y-108157971D01*
X111588348Y-108157971D02*
X111659776Y-108229400D01*
X111659776Y-108229400D02*
X111802633Y-108300828D01*
X111802633Y-108300828D02*
X112016919Y-108300828D01*
X110874062Y-107300828D02*
X110874062Y-108300828D01*
X110874062Y-107443685D02*
X110802633Y-107372257D01*
X110802633Y-107372257D02*
X110659776Y-107300828D01*
X110659776Y-107300828D02*
X110445490Y-107300828D01*
X110445490Y-107300828D02*
X110302633Y-107372257D01*
X110302633Y-107372257D02*
X110231205Y-107515114D01*
X110231205Y-107515114D02*
X110231205Y-108300828D01*
X109731204Y-107300828D02*
X109159776Y-107300828D01*
X109516919Y-106800828D02*
X109516919Y-108086542D01*
X109516919Y-108086542D02*
X109445490Y-108229400D01*
X109445490Y-108229400D02*
X109302633Y-108300828D01*
X109302633Y-108300828D02*
X109159776Y-108300828D01*
D12*
%TO.P,U1,20,K2*%
%TO.N,unconnected-(U1-K2-Pad20)*%
X152840000Y-105500000D03*
%TO.P,U1,19,K1*%
%TO.N,unconnected-(U1-K1-Pad19)*%
X155380000Y-105500000D03*
%TO.P,U1,18,CLK*%
%TO.N,Net-(J3-Pin_4)*%
X157920000Y-105500000D03*
%TO.P,U1,17,DIO*%
%TO.N,Net-(J3-Pin_3)*%
X160460000Y-105500000D03*
%TO.P,U1,16,VDD*%
%TO.N,VCC*%
X163000000Y-105500000D03*
%TO.P,U1,15,GRID1*%
%TO.N,Net-(J2-Pin_6)*%
X165540000Y-105500000D03*
%TO.P,U1,14,GRID2*%
%TO.N,Net-(J2-Pin_3)*%
X168080000Y-105500000D03*
%TO.P,U1,13,GRID3*%
%TO.N,Net-(J2-Pin_2)*%
X170620000Y-105500000D03*
%TO.P,U1,12,GRID4*%
%TO.N,Net-(J1-Pin_6)*%
X173160000Y-105500000D03*
%TO.P,U1,11,GRID5*%
%TO.N,unconnected-(U1-GRID5-Pad11)*%
X175700000Y-105500000D03*
%TO.P,U1,10,GRID6*%
%TO.N,unconnected-(U1-GRID6-Pad10)*%
X175700000Y-113120000D03*
%TO.P,U1,9,SEG8/KS8*%
%TO.N,Net-(J1-Pin_3)*%
X173160000Y-113120000D03*
%TO.P,U1,8,SEG7/KS7*%
%TO.N,Net-(J1-Pin_5)*%
X170620000Y-113120000D03*
%TO.P,U1,7,SEG6/KS6*%
%TO.N,Net-(J2-Pin_4)*%
X168080000Y-113120000D03*
%TO.P,U1,6,SEG5/KS5*%
%TO.N,Net-(J1-Pin_1)*%
X165540000Y-113120000D03*
%TO.P,U1,5,SEG4/KS4*%
%TO.N,Net-(J1-Pin_2)*%
X163000000Y-113120000D03*
%TO.P,U1,4,SEG3/KS3*%
%TO.N,Net-(J1-Pin_4)*%
X160460000Y-113120000D03*
%TO.P,U1,3,SEG2/KS2*%
%TO.N,Net-(J2-Pin_1)*%
X157920000Y-113120000D03*
%TO.P,U1,2,SEG1/KS1*%
%TO.N,Net-(J2-Pin_5)*%
X155380000Y-113120000D03*
D13*
%TO.P,U1,1,GND*%
%TO.N,GND*%
X152840000Y-113120000D03*
%TD*%
D12*
%TO.P,R1,2*%
%TO.N,Net-(J3-Pin_3)*%
X200150000Y-106000000D03*
D14*
%TO.P,R1,1*%
%TO.N,VCC*%
X212850000Y-106000000D03*
%TD*%
D15*
%TO.P,J1,6,Pin_6*%
%TO.N,Net-(J1-Pin_6)*%
X130700000Y-117000000D03*
%TO.P,J1,5,Pin_5*%
%TO.N,Net-(J1-Pin_5)*%
X128160000Y-117000000D03*
%TO.P,J1,4,Pin_4*%
%TO.N,Net-(J1-Pin_4)*%
X125620000Y-117000000D03*
%TO.P,J1,3,Pin_3*%
%TO.N,Net-(J1-Pin_3)*%
X123080000Y-117000000D03*
%TO.P,J1,2,Pin_2*%
%TO.N,Net-(J1-Pin_2)*%
X120540000Y-117000000D03*
D16*
%TO.P,J1,1,Pin_1*%
%TO.N,Net-(J1-Pin_1)*%
X118000000Y-117000000D03*
%TD*%
D12*
%TO.P,R2,2*%
%TO.N,Net-(J3-Pin_4)*%
X200000000Y-113500000D03*
D14*
%TO.P,R2,1*%
%TO.N,VCC*%
X212700000Y-113500000D03*
%TD*%
D15*
%TO.P,J2,6,Pin_6*%
%TO.N,Net-(J2-Pin_6)*%
X117960000Y-102000000D03*
%TO.P,J2,5,Pin_5*%
%TO.N,Net-(J2-Pin_5)*%
X120500000Y-102000000D03*
%TO.P,J2,4,Pin_4*%
%TO.N,Net-(J2-Pin_4)*%
X123040000Y-102000000D03*
%TO.P,J2,3,Pin_3*%
%TO.N,Net-(J2-Pin_3)*%
X125580000Y-102000000D03*
%TO.P,J2,2,Pin_2*%
%TO.N,Net-(J2-Pin_2)*%
X128120000Y-102000000D03*
D16*
%TO.P,J2,1,Pin_1*%
%TO.N,Net-(J2-Pin_1)*%
X130660000Y-102000000D03*
%TD*%
D15*
%TO.P,J3,4,Pin_4*%
%TO.N,Net-(J3-Pin_4)*%
X191500000Y-113620000D03*
%TO.P,J3,3,Pin_3*%
%TO.N,Net-(J3-Pin_3)*%
X191500000Y-111080000D03*
%TO.P,J3,2,Pin_2*%
%TO.N,VCC*%
X191500000Y-108540000D03*
D16*
%TO.P,J3,1,Pin_1*%
%TO.N,GND*%
X191500000Y-106000000D03*
%TD*%
D17*
%TO.N,Net-(J1-Pin_5)*%
X170500000Y-120500000D03*
X167000000Y-126850000D03*
%TO.N,Net-(J1-Pin_6)*%
X103000000Y-96500000D03*
X105000000Y-91650000D03*
%TO.N,Net-(J2-Pin_5)*%
X140500000Y-97026572D03*
X118500000Y-97000000D03*
%TO.N,Net-(J2-Pin_2)*%
X136000000Y-98500000D03*
X170338299Y-99161701D03*
%TO.N,Net-(J2-Pin_6)*%
X113500000Y-96350000D03*
X124323401Y-93999999D03*
%TO.N,Net-(J2-Pin_4)*%
X161000000Y-129200000D03*
X164500000Y-120500000D03*
%TO.N,Net-(J2-Pin_3)*%
X156500000Y-96500000D03*
X109000000Y-97500000D03*
X156500000Y-89300000D03*
X167890000Y-102500000D03*
X109500000Y-89300000D03*
X156500000Y-102000000D03*
%TO.N,Net-(J3-Pin_4)*%
X182500000Y-108500000D03*
X185000000Y-113500000D03*
%TO.N,Net-(J3-Pin_3)*%
X188500000Y-111000000D03*
X178898095Y-105949048D03*
%TO.N,VCC*%
X195500000Y-103000000D03*
X162338299Y-97161701D03*
%TD*%
D18*
%TO.N,Net-(J1-Pin_1)*%
X122000000Y-122500000D02*
X118000000Y-118500000D01*
X165540000Y-114251370D02*
X157291370Y-122500000D01*
X157291370Y-122500000D02*
X122000000Y-122500000D01*
X165540000Y-113120000D02*
X165540000Y-114251370D01*
X118000000Y-118500000D02*
X118000000Y-117000000D01*
%TO.N,Net-(J1-Pin_2)*%
X122550000Y-120550000D02*
X120540000Y-118540000D01*
X163000000Y-114251370D02*
X156701370Y-120550000D01*
X156701370Y-120550000D02*
X122550000Y-120550000D01*
X120540000Y-118540000D02*
X120540000Y-117000000D01*
X163000000Y-113120000D02*
X163000000Y-114251370D01*
%TO.N,Net-(J1-Pin_3)*%
X173160000Y-121840000D02*
X173160000Y-113120000D01*
X116050000Y-119050000D02*
X121500000Y-124500000D01*
X122332081Y-115050000D02*
X116450000Y-115050000D01*
X123080000Y-117000000D02*
X123080000Y-115797919D01*
X123080000Y-115797919D02*
X122332081Y-115050000D01*
X170500000Y-124500000D02*
X173160000Y-121840000D01*
X116450000Y-115050000D02*
X116050000Y-115450000D01*
X121500000Y-124500000D02*
X170500000Y-124500000D01*
X116050000Y-115450000D02*
X116050000Y-119050000D01*
%TO.N,Net-(J1-Pin_5)*%
X114450000Y-119712742D02*
X121587258Y-126850000D01*
X170500000Y-120500000D02*
X170500000Y-113240000D01*
X128160000Y-117000000D02*
X128160000Y-116660000D01*
X128160000Y-116660000D02*
X124950000Y-113450000D01*
X121587258Y-126850000D02*
X167000000Y-126850000D01*
X170500000Y-113240000D02*
X170620000Y-113120000D01*
X115787258Y-113450000D02*
X114450000Y-114787258D01*
X114450000Y-114787258D02*
X114450000Y-119712742D01*
X124950000Y-113450000D02*
X115787258Y-113450000D01*
%TO.N,Net-(J1-Pin_6)*%
X130700000Y-115797919D02*
X125902081Y-111000000D01*
X107500000Y-111000000D02*
X103000000Y-106500000D01*
X166150000Y-91650000D02*
X173160000Y-98660000D01*
X103000000Y-106500000D02*
X103000000Y-96500000D01*
X130700000Y-117000000D02*
X130700000Y-115797919D01*
X125902081Y-111000000D02*
X107500000Y-111000000D01*
X105000000Y-91650000D02*
X166150000Y-91650000D01*
X173160000Y-98660000D02*
X173160000Y-105500000D01*
%TO.N,Net-(J1-Pin_4)*%
X126450000Y-118950000D02*
X125620000Y-118120000D01*
X155761370Y-118950000D02*
X126450000Y-118950000D01*
X125620000Y-118120000D02*
X125620000Y-117000000D01*
X160460000Y-113120000D02*
X160460000Y-114251370D01*
X160460000Y-114251370D02*
X155761370Y-118950000D01*
%TO.N,Net-(J2-Pin_5)*%
X154740000Y-115020000D02*
X150020000Y-115020000D01*
X118500000Y-97000000D02*
X120500000Y-99000000D01*
X140500000Y-105500000D02*
X140500000Y-97026572D01*
X150000000Y-115000000D02*
X140500000Y-105500000D01*
X155380000Y-114380000D02*
X154740000Y-115020000D01*
X120500000Y-99000000D02*
X120500000Y-102000000D01*
X150020000Y-115020000D02*
X150000000Y-115000000D01*
X155380000Y-113120000D02*
X155380000Y-114380000D01*
%TO.N,Net-(J2-Pin_2)*%
X170338299Y-99161701D02*
X170338299Y-105218299D01*
X128120000Y-102000000D02*
X128120000Y-100640000D01*
X170338299Y-105218299D02*
X170620000Y-105500000D01*
X128120000Y-100640000D02*
X130260000Y-98500000D01*
X130260000Y-98500000D02*
X136000000Y-98500000D01*
%TO.N,Net-(J2-Pin_6)*%
X165540000Y-97040000D02*
X165540000Y-105500000D01*
X117960000Y-100810000D02*
X117960000Y-102000000D01*
X124823400Y-93500000D02*
X162000000Y-93500000D01*
X124323401Y-93999999D02*
X124823400Y-93500000D01*
X162000000Y-93500000D02*
X165540000Y-97040000D01*
X113500000Y-96350000D02*
X117960000Y-100810000D01*
%TO.N,Net-(J2-Pin_1)*%
X130500000Y-112000000D02*
X130500000Y-111000000D01*
X130660000Y-110840000D02*
X130660000Y-102000000D01*
X157920000Y-113120000D02*
X157920000Y-114102742D01*
X155402742Y-116620000D02*
X135120000Y-116620000D01*
X135120000Y-116620000D02*
X130500000Y-112000000D01*
X130500000Y-111000000D02*
X130660000Y-110840000D01*
X157920000Y-114102742D02*
X155402742Y-116620000D01*
%TO.N,Net-(J2-Pin_4)*%
X121000000Y-94000000D02*
X123040000Y-96040000D01*
X100500000Y-108025484D02*
X100500000Y-94000000D01*
X168080000Y-113120000D02*
X168080000Y-116920000D01*
X123040000Y-96040000D02*
X123040000Y-102000000D01*
X168080000Y-116920000D02*
X164500000Y-120500000D01*
X161000000Y-129200000D02*
X121674516Y-129200000D01*
X100500000Y-94000000D02*
X121000000Y-94000000D01*
X121674516Y-129200000D02*
X100500000Y-108025484D01*
%TO.N,Net-(J2-Pin_3)*%
X167890000Y-105310000D02*
X168080000Y-105500000D01*
X109500000Y-89300000D02*
X156500000Y-89300000D01*
X156500000Y-96500000D02*
X156500000Y-102000000D01*
X112000000Y-104000000D02*
X109000000Y-101000000D01*
X125580000Y-103202081D02*
X124782081Y-104000000D01*
X124782081Y-104000000D02*
X112000000Y-104000000D01*
X109000000Y-101000000D02*
X109000000Y-97500000D01*
X125580000Y-102000000D02*
X125580000Y-103202081D01*
X167890000Y-102500000D02*
X167890000Y-105310000D01*
%TO.N,Net-(J3-Pin_4)*%
X191500000Y-113620000D02*
X199880000Y-113620000D01*
X157920000Y-105500000D02*
X158000000Y-105500000D01*
X182000000Y-109000000D02*
X182500000Y-108500000D01*
X199880000Y-113620000D02*
X200000000Y-113500000D01*
X160565888Y-109000000D02*
X182000000Y-109000000D01*
X158000000Y-106434112D02*
X160565888Y-109000000D01*
X158000000Y-105500000D02*
X158000000Y-106434112D01*
X191380000Y-113500000D02*
X191500000Y-113620000D01*
X185000000Y-113500000D02*
X191380000Y-113500000D01*
%TO.N,GND*%
X184000000Y-111000000D02*
X189000000Y-106000000D01*
X189000000Y-106000000D02*
X191500000Y-106000000D01*
X152840000Y-113120000D02*
X152840000Y-111160000D01*
X152840000Y-111160000D02*
X153000000Y-111000000D01*
X153000000Y-111000000D02*
X184000000Y-111000000D01*
%TO.N,Net-(J3-Pin_3)*%
X197920000Y-111080000D02*
X200000000Y-109000000D01*
X200150000Y-107850000D02*
X200150000Y-106000000D01*
X177447143Y-107400000D02*
X178898095Y-105949048D01*
X160460000Y-105500000D02*
X160460000Y-106631370D01*
X200000000Y-109000000D02*
X200000000Y-108000000D01*
X188500000Y-111000000D02*
X191420000Y-111000000D01*
X200000000Y-108000000D02*
X200150000Y-107850000D01*
X160460000Y-106631370D02*
X161228630Y-107400000D01*
X191420000Y-111000000D02*
X191500000Y-111080000D01*
X191500000Y-111080000D02*
X197920000Y-111080000D01*
X161228630Y-107400000D02*
X177447143Y-107400000D01*
%TO.N,VCC*%
X163000000Y-97823402D02*
X162338299Y-97161701D01*
X191500000Y-108540000D02*
X192860000Y-108540000D01*
X212850000Y-106000000D02*
X212850000Y-113350000D01*
X212850000Y-113350000D02*
X212700000Y-113500000D01*
X163000000Y-105500000D02*
X163000000Y-97823402D01*
X210850000Y-104000000D02*
X212850000Y-106000000D01*
X196400000Y-103000000D02*
X195500000Y-103000000D01*
X197400000Y-104000000D02*
X196400000Y-103000000D01*
X197400000Y-104000000D02*
X210850000Y-104000000D01*
X192860000Y-108540000D02*
X197400000Y-104000000D01*
%TD*%
%TA.AperFunction,NonConductor*%
G36*
X218641085Y-86020713D02*
G01*
X218770280Y-86079714D01*
X218877619Y-86172724D01*
X218954406Y-86292208D01*
X218994421Y-86428485D01*
X218999500Y-86499500D01*
X218999500Y-132000500D01*
X218979287Y-132141085D01*
X218920286Y-132270280D01*
X218827276Y-132377619D01*
X218707792Y-132454406D01*
X218571515Y-132494421D01*
X218500500Y-132499500D01*
X90999500Y-132499500D01*
X90858915Y-132479287D01*
X90729720Y-132420286D01*
X90622381Y-132327276D01*
X90545594Y-132207792D01*
X90505579Y-132071515D01*
X90500500Y-132000500D01*
X90500500Y-93881907D01*
X98999500Y-93881907D01*
X98999500Y-108143576D01*
X99036446Y-108376851D01*
X99036448Y-108376857D01*
X99109427Y-108601463D01*
X99109434Y-108601481D01*
X99216651Y-108811908D01*
X99216655Y-108811915D01*
X99216657Y-108811918D01*
X99355483Y-109002994D01*
X99355484Y-109002995D01*
X120697002Y-130344515D01*
X120697005Y-130344518D01*
X120888082Y-130483343D01*
X120959114Y-130519535D01*
X121098524Y-130590568D01*
X121323148Y-130663553D01*
X121556424Y-130700500D01*
X121792608Y-130700500D01*
X159109951Y-130700500D01*
X159250536Y-130720713D01*
X159379731Y-130779714D01*
X159438965Y-130824332D01*
X159627048Y-130989277D01*
X159872334Y-131153172D01*
X159872340Y-131153175D01*
X160136920Y-131283651D01*
X160136923Y-131283652D01*
X160416278Y-131378481D01*
X160705613Y-131436032D01*
X160705614Y-131436033D01*
X160705615Y-131436033D01*
X160705620Y-131436034D01*
X161000000Y-131455329D01*
X161294380Y-131436034D01*
X161583722Y-131378481D01*
X161863077Y-131283652D01*
X162127665Y-131153172D01*
X162372957Y-130989273D01*
X162594758Y-130794758D01*
X162789273Y-130572957D01*
X162953172Y-130327665D01*
X163083652Y-130063077D01*
X163178481Y-129783722D01*
X163236034Y-129494380D01*
X163255329Y-129200000D01*
X163236034Y-128905620D01*
X163236033Y-128905615D01*
X163234965Y-128889320D01*
X163237525Y-128889152D01*
X163238907Y-128772635D01*
X163280534Y-128636842D01*
X163358732Y-128518277D01*
X163467166Y-128426546D01*
X163597051Y-128369080D01*
X163731951Y-128350500D01*
X165109951Y-128350500D01*
X165250536Y-128370713D01*
X165379731Y-128429714D01*
X165438961Y-128474329D01*
X165624271Y-128636842D01*
X165627048Y-128639277D01*
X165872334Y-128803172D01*
X165872340Y-128803175D01*
X166136920Y-128933651D01*
X166136923Y-128933652D01*
X166416278Y-129028481D01*
X166705613Y-129086032D01*
X166705614Y-129086033D01*
X166705615Y-129086033D01*
X166705620Y-129086034D01*
X167000000Y-129105329D01*
X167294380Y-129086034D01*
X167583722Y-129028481D01*
X167863077Y-128933652D01*
X168127665Y-128803172D01*
X168372957Y-128639273D01*
X168594758Y-128444758D01*
X168789273Y-128222957D01*
X168953172Y-127977665D01*
X169083652Y-127713077D01*
X169178481Y-127433722D01*
X169236034Y-127144380D01*
X169255329Y-126850000D01*
X169236034Y-126555620D01*
X169236033Y-126555615D01*
X169234965Y-126539320D01*
X169237525Y-126539152D01*
X169238907Y-126422635D01*
X169280534Y-126286842D01*
X169358732Y-126168277D01*
X169467166Y-126076546D01*
X169597051Y-126019080D01*
X169731951Y-126000500D01*
X170618092Y-126000500D01*
X170851368Y-125963553D01*
X171075992Y-125890568D01*
X171286434Y-125783343D01*
X171477510Y-125644517D01*
X174304517Y-122817510D01*
X174443343Y-122626434D01*
X174550568Y-122415992D01*
X174623553Y-122191368D01*
X174660500Y-121958092D01*
X174660500Y-121721908D01*
X174660500Y-115359687D01*
X174680713Y-115219102D01*
X174739714Y-115089907D01*
X174832724Y-114982568D01*
X174952208Y-114905781D01*
X175088485Y-114865766D01*
X175230515Y-114865766D01*
X175279865Y-114876854D01*
X175280032Y-114876127D01*
X175298222Y-114880279D01*
X175298227Y-114880279D01*
X175298228Y-114880280D01*
X175565071Y-114920500D01*
X175565075Y-114920500D01*
X175834925Y-114920500D01*
X175834929Y-114920500D01*
X176101772Y-114880280D01*
X176359641Y-114800738D01*
X176602775Y-114683651D01*
X176825741Y-114531635D01*
X177023561Y-114348085D01*
X177191815Y-114137102D01*
X177326743Y-113903398D01*
X177425334Y-113652195D01*
X177485383Y-113389103D01*
X177505549Y-113120000D01*
X177499313Y-113036787D01*
X177508964Y-112895088D01*
X177558146Y-112761845D01*
X177642874Y-112647855D01*
X177756285Y-112562354D01*
X177889191Y-112512267D01*
X177996918Y-112500500D01*
X182296189Y-112500500D01*
X182436774Y-112520713D01*
X182565969Y-112579714D01*
X182673308Y-112672724D01*
X182750095Y-112792208D01*
X182790110Y-112928485D01*
X182790110Y-113070515D01*
X182785601Y-113096848D01*
X182763967Y-113205608D01*
X182763966Y-113205614D01*
X182744671Y-113500000D01*
X182763966Y-113794385D01*
X182763967Y-113794387D01*
X182821518Y-114083717D01*
X182821520Y-114083725D01*
X182916348Y-114363079D01*
X183046824Y-114627659D01*
X183046827Y-114627665D01*
X183210724Y-114872953D01*
X183210727Y-114872957D01*
X183405241Y-115094758D01*
X183627042Y-115289272D01*
X183627046Y-115289275D01*
X183872334Y-115453172D01*
X183872340Y-115453175D01*
X184136920Y-115583651D01*
X184136923Y-115583652D01*
X184416278Y-115678481D01*
X184705613Y-115736032D01*
X184705614Y-115736033D01*
X184705615Y-115736033D01*
X184705620Y-115736034D01*
X185000000Y-115755329D01*
X185294380Y-115736034D01*
X185583722Y-115678481D01*
X185863077Y-115583652D01*
X186127665Y-115453172D01*
X186372957Y-115289273D01*
X186561036Y-115124330D01*
X186680060Y-115046835D01*
X186816096Y-115006010D01*
X186890049Y-115000500D01*
X190090166Y-115000500D01*
X190230751Y-115020713D01*
X190359946Y-115079714D01*
X190389203Y-115100028D01*
X190496989Y-115180716D01*
X190497029Y-115180738D01*
X190729310Y-115307574D01*
X190729313Y-115307575D01*
X190799886Y-115333897D01*
X190977322Y-115400077D01*
X191235974Y-115456343D01*
X191500000Y-115475227D01*
X191764026Y-115456343D01*
X192022678Y-115400077D01*
X192270689Y-115307574D01*
X192501505Y-115181538D01*
X192634578Y-115131904D01*
X192740650Y-115120500D01*
X199101381Y-115120500D01*
X199241966Y-115140713D01*
X199317878Y-115169912D01*
X199340359Y-115180738D01*
X199598228Y-115260280D01*
X199865071Y-115300500D01*
X199865075Y-115300500D01*
X200134925Y-115300500D01*
X200134929Y-115300500D01*
X200401772Y-115260280D01*
X200659641Y-115180738D01*
X200902775Y-115063651D01*
X201125741Y-114911635D01*
X201323561Y-114728085D01*
X201491815Y-114517102D01*
X201626743Y-114283398D01*
X201725334Y-114032195D01*
X201785383Y-113769103D01*
X201805549Y-113500000D01*
X201785383Y-113230897D01*
X201725334Y-112967805D01*
X201723802Y-112963902D01*
X201626744Y-112716604D01*
X201626743Y-112716602D01*
X201491819Y-112482905D01*
X201491815Y-112482898D01*
X201476388Y-112463553D01*
X201323563Y-112271917D01*
X201125742Y-112088366D01*
X200902781Y-111936353D01*
X200902780Y-111936352D01*
X200902775Y-111936349D01*
X200789727Y-111881908D01*
X200659649Y-111819265D01*
X200659646Y-111819264D01*
X200659643Y-111819263D01*
X200659641Y-111819262D01*
X200413977Y-111743485D01*
X200285599Y-111682732D01*
X200179534Y-111588271D01*
X200104379Y-111467754D01*
X200066222Y-111330946D01*
X200068154Y-111188929D01*
X200110018Y-111053209D01*
X200188423Y-110934781D01*
X200208208Y-110913817D01*
X201144517Y-109977510D01*
X201283343Y-109786434D01*
X201390568Y-109575992D01*
X201404115Y-109534298D01*
X201463553Y-109351368D01*
X201500500Y-109118092D01*
X201500500Y-108621981D01*
X201520713Y-108481396D01*
X201538490Y-108431007D01*
X201540561Y-108426004D01*
X201540568Y-108425992D01*
X201613553Y-108201368D01*
X201650500Y-107968092D01*
X201650500Y-107731908D01*
X201650500Y-107135765D01*
X201670713Y-106995180D01*
X201717352Y-106886267D01*
X201733684Y-106857979D01*
X201776743Y-106783398D01*
X201875334Y-106532195D01*
X201935383Y-106269103D01*
X201955549Y-106000000D01*
X201955549Y-105999996D01*
X201955549Y-105999500D01*
X201955626Y-105998959D01*
X201956944Y-105981381D01*
X201958141Y-105981470D01*
X201975762Y-105858915D01*
X202034763Y-105729720D01*
X202127773Y-105622381D01*
X202247257Y-105545594D01*
X202383534Y-105505579D01*
X202454549Y-105500500D01*
X210021781Y-105500500D01*
X210162366Y-105520713D01*
X210291561Y-105579714D01*
X210374627Y-105646654D01*
X210982937Y-106254964D01*
X211068053Y-106368665D01*
X211116579Y-106496766D01*
X211124665Y-106532194D01*
X211124667Y-106532199D01*
X211223255Y-106783395D01*
X211223256Y-106783397D01*
X211282648Y-106886267D01*
X211335434Y-107018123D01*
X211349500Y-107135765D01*
X211349500Y-112131086D01*
X211329287Y-112271671D01*
X211270286Y-112400866D01*
X211240636Y-112442204D01*
X211208193Y-112482885D01*
X211208180Y-112482905D01*
X211073256Y-112716602D01*
X211073255Y-112716604D01*
X210974667Y-112967799D01*
X210920389Y-113205608D01*
X210914617Y-113230897D01*
X210894451Y-113500000D01*
X210914617Y-113769103D01*
X210923894Y-113809748D01*
X210974667Y-114032200D01*
X211073255Y-114283395D01*
X211073256Y-114283397D01*
X211208180Y-114517094D01*
X211208191Y-114517110D01*
X211376436Y-114728082D01*
X211376438Y-114728084D01*
X211376439Y-114728085D01*
X211574259Y-114911635D01*
X211797226Y-115063651D01*
X212040359Y-115180738D01*
X212298228Y-115260280D01*
X212565071Y-115300500D01*
X212565075Y-115300500D01*
X212834925Y-115300500D01*
X212834929Y-115300500D01*
X213101772Y-115260280D01*
X213359641Y-115180738D01*
X213602775Y-115063651D01*
X213825741Y-114911635D01*
X214023561Y-114728085D01*
X214191815Y-114517102D01*
X214326743Y-114283398D01*
X214425334Y-114032195D01*
X214485383Y-113769103D01*
X214505549Y-113500000D01*
X214485383Y-113230897D01*
X214425334Y-112967805D01*
X214425332Y-112967799D01*
X214384995Y-112865023D01*
X214352449Y-112726772D01*
X214350500Y-112682716D01*
X214350500Y-107135765D01*
X214370713Y-106995180D01*
X214417352Y-106886267D01*
X214433684Y-106857979D01*
X214476743Y-106783398D01*
X214575334Y-106532195D01*
X214635383Y-106269103D01*
X214655549Y-106000000D01*
X214635383Y-105730897D01*
X214575334Y-105467805D01*
X214573665Y-105463553D01*
X214476744Y-105216604D01*
X214476743Y-105216602D01*
X214341819Y-104982905D01*
X214341815Y-104982898D01*
X214329774Y-104967799D01*
X214173563Y-104771917D01*
X213975742Y-104588366D01*
X213752781Y-104436353D01*
X213752780Y-104436352D01*
X213752775Y-104436349D01*
X213650787Y-104387234D01*
X213509649Y-104319265D01*
X213509638Y-104319261D01*
X213312148Y-104258343D01*
X213183767Y-104197590D01*
X213106386Y-104134359D01*
X211827511Y-102855484D01*
X211827510Y-102855483D01*
X211636434Y-102716657D01*
X211636433Y-102716656D01*
X211636431Y-102716655D01*
X211636424Y-102716651D01*
X211425997Y-102609434D01*
X211425979Y-102609427D01*
X211201373Y-102536448D01*
X211201367Y-102536446D01*
X210968092Y-102499500D01*
X198228221Y-102499500D01*
X198087636Y-102479287D01*
X197958441Y-102420286D01*
X197875375Y-102353347D01*
X197568645Y-102046618D01*
X197483530Y-101932917D01*
X197473951Y-101914471D01*
X197453178Y-101872347D01*
X197453174Y-101872341D01*
X197453172Y-101872336D01*
X197289274Y-101627045D01*
X197289275Y-101627045D01*
X197224434Y-101553109D01*
X197094758Y-101405242D01*
X197094755Y-101405240D01*
X197094754Y-101405238D01*
X196872957Y-101210727D01*
X196872953Y-101210724D01*
X196627665Y-101046827D01*
X196627659Y-101046824D01*
X196363079Y-100916348D01*
X196083725Y-100821520D01*
X196083724Y-100821519D01*
X196083722Y-100821519D01*
X196083717Y-100821518D01*
X195794387Y-100763967D01*
X195794385Y-100763966D01*
X195500000Y-100744671D01*
X195205614Y-100763966D01*
X195205612Y-100763967D01*
X194916282Y-100821518D01*
X194916274Y-100821520D01*
X194636925Y-100916346D01*
X194636922Y-100916348D01*
X194372334Y-101046829D01*
X194127042Y-101210727D01*
X193905241Y-101405241D01*
X193710727Y-101627042D01*
X193546829Y-101872334D01*
X193416348Y-102136922D01*
X193416346Y-102136925D01*
X193321520Y-102416274D01*
X193321518Y-102416282D01*
X193263967Y-102705612D01*
X193263966Y-102705614D01*
X193244671Y-103000000D01*
X193263966Y-103294385D01*
X193263967Y-103294387D01*
X193321518Y-103583717D01*
X193325748Y-103599504D01*
X193322747Y-103600307D01*
X193343426Y-103711141D01*
X193329085Y-103852446D01*
X193275514Y-103983985D01*
X193187054Y-104095104D01*
X193070871Y-104176800D01*
X192936379Y-104222455D01*
X192794472Y-104228369D01*
X192707587Y-104211666D01*
X192527420Y-104160114D01*
X192503541Y-104157991D01*
X192408037Y-104149500D01*
X192408029Y-104149500D01*
X190591969Y-104149500D01*
X190472582Y-104160114D01*
X190276953Y-104216090D01*
X190276942Y-104216095D01*
X190096594Y-104310301D01*
X190002243Y-104387234D01*
X189880514Y-104460409D01*
X189743100Y-104496326D01*
X189686905Y-104499500D01*
X188881908Y-104499500D01*
X188648632Y-104536446D01*
X188648626Y-104536448D01*
X188424020Y-104609427D01*
X188424008Y-104609432D01*
X188213566Y-104716656D01*
X188022489Y-104855481D01*
X185293168Y-107584802D01*
X185179467Y-107669918D01*
X185046392Y-107719552D01*
X184904724Y-107729685D01*
X184765939Y-107699494D01*
X184641282Y-107631426D01*
X184540852Y-107530995D01*
X184492783Y-107452660D01*
X184453172Y-107372336D01*
X184289273Y-107127043D01*
X184094758Y-106905242D01*
X184094755Y-106905240D01*
X184094754Y-106905238D01*
X183872957Y-106710727D01*
X183872953Y-106710724D01*
X183627665Y-106546827D01*
X183627659Y-106546824D01*
X183363079Y-106416348D01*
X183083725Y-106321520D01*
X183083724Y-106321519D01*
X183083722Y-106321519D01*
X183055131Y-106315832D01*
X182794387Y-106263967D01*
X182794385Y-106263966D01*
X182500000Y-106244671D01*
X182205614Y-106263966D01*
X182205612Y-106263967D01*
X181916282Y-106321518D01*
X181916268Y-106321521D01*
X181809706Y-106357695D01*
X181670085Y-106383744D01*
X181528781Y-106369402D01*
X181397241Y-106315832D01*
X181286122Y-106227372D01*
X181204426Y-106111189D01*
X181158772Y-105976696D01*
X181151377Y-105917824D01*
X181134129Y-105654668D01*
X181076576Y-105365326D01*
X181001621Y-105144517D01*
X180981748Y-105085973D01*
X180981747Y-105085971D01*
X180851267Y-104821384D01*
X180687368Y-104576091D01*
X180492853Y-104354290D01*
X180492850Y-104354288D01*
X180492849Y-104354286D01*
X180271052Y-104159775D01*
X180271048Y-104159772D01*
X180025760Y-103995875D01*
X180025754Y-103995872D01*
X179761174Y-103865396D01*
X179481820Y-103770568D01*
X179481819Y-103770567D01*
X179481817Y-103770567D01*
X179481812Y-103770566D01*
X179192482Y-103713015D01*
X179192480Y-103713014D01*
X178898095Y-103693719D01*
X178603709Y-103713014D01*
X178603707Y-103713015D01*
X178314377Y-103770566D01*
X178314369Y-103770568D01*
X178035020Y-103865394D01*
X178035017Y-103865396D01*
X177770429Y-103995877D01*
X177525129Y-104159781D01*
X177518726Y-104164694D01*
X177512776Y-104168034D01*
X177511555Y-104168851D01*
X177511491Y-104168756D01*
X177394885Y-104234235D01*
X177256469Y-104266070D01*
X177114690Y-104257619D01*
X176981036Y-104209567D01*
X176875565Y-104134594D01*
X176825742Y-104088366D01*
X176815806Y-104081592D01*
X176602775Y-103936349D01*
X176501129Y-103887399D01*
X176359649Y-103819265D01*
X176359646Y-103819264D01*
X176359643Y-103819263D01*
X176359641Y-103819262D01*
X176101772Y-103739720D01*
X176101770Y-103739719D01*
X176101768Y-103739719D01*
X175984280Y-103722011D01*
X175834929Y-103699500D01*
X175565071Y-103699500D01*
X175458333Y-103715588D01*
X175298222Y-103739720D01*
X175280032Y-103743873D01*
X175279471Y-103741419D01*
X175166269Y-103759266D01*
X175025423Y-103740962D01*
X174895440Y-103683719D01*
X174786849Y-103592173D01*
X174708447Y-103473743D01*
X174666588Y-103338021D01*
X174660500Y-103260312D01*
X174660500Y-98541907D01*
X174623553Y-98308632D01*
X174623552Y-98308630D01*
X174550568Y-98084007D01*
X174516687Y-98017512D01*
X174496502Y-97977897D01*
X174443343Y-97873566D01*
X174442901Y-97872957D01*
X174304519Y-97682492D01*
X167127511Y-90505484D01*
X167127510Y-90505483D01*
X166936434Y-90366657D01*
X166936433Y-90366656D01*
X166936431Y-90366655D01*
X166936424Y-90366651D01*
X166725997Y-90259434D01*
X166725979Y-90259427D01*
X166501373Y-90186448D01*
X166501367Y-90186446D01*
X166268092Y-90149500D01*
X159231951Y-90149500D01*
X159091366Y-90129287D01*
X158962171Y-90070286D01*
X158854832Y-89977276D01*
X158778045Y-89857792D01*
X158738030Y-89721515D01*
X158737374Y-89610837D01*
X158734965Y-89610680D01*
X158736033Y-89594384D01*
X158736034Y-89594380D01*
X158755329Y-89300000D01*
X158736034Y-89005620D01*
X158678481Y-88716278D01*
X158583652Y-88436923D01*
X158453172Y-88172336D01*
X158289273Y-87927043D01*
X158094758Y-87705242D01*
X158094755Y-87705240D01*
X158094754Y-87705238D01*
X157872957Y-87510727D01*
X157872953Y-87510724D01*
X157627665Y-87346827D01*
X157627659Y-87346824D01*
X157363079Y-87216348D01*
X157083725Y-87121520D01*
X157083724Y-87121519D01*
X157083722Y-87121519D01*
X157083717Y-87121518D01*
X156794387Y-87063967D01*
X156794385Y-87063966D01*
X156500000Y-87044671D01*
X156205614Y-87063966D01*
X156205612Y-87063967D01*
X155916282Y-87121518D01*
X155916274Y-87121520D01*
X155636925Y-87216346D01*
X155636922Y-87216348D01*
X155372334Y-87346829D01*
X155127042Y-87510727D01*
X154938966Y-87675667D01*
X154819941Y-87753164D01*
X154683905Y-87793989D01*
X154609951Y-87799500D01*
X111390049Y-87799500D01*
X111249464Y-87779287D01*
X111120269Y-87720286D01*
X111061035Y-87675668D01*
X110872951Y-87510722D01*
X110627665Y-87346827D01*
X110627659Y-87346824D01*
X110363079Y-87216348D01*
X110083725Y-87121520D01*
X110083724Y-87121519D01*
X110083722Y-87121519D01*
X110083717Y-87121518D01*
X109794387Y-87063967D01*
X109794385Y-87063966D01*
X109500000Y-87044671D01*
X109205614Y-87063966D01*
X109205612Y-87063967D01*
X108916282Y-87121518D01*
X108916274Y-87121520D01*
X108636925Y-87216346D01*
X108636922Y-87216348D01*
X108372334Y-87346829D01*
X108127042Y-87510727D01*
X107905241Y-87705241D01*
X107710727Y-87927042D01*
X107546829Y-88172334D01*
X107416348Y-88436922D01*
X107416346Y-88436925D01*
X107321520Y-88716274D01*
X107321518Y-88716282D01*
X107263967Y-89005612D01*
X107263966Y-89005614D01*
X107244671Y-89300000D01*
X107258036Y-89503905D01*
X107247061Y-89645510D01*
X107196635Y-89778288D01*
X107110845Y-89891480D01*
X106996639Y-89975918D01*
X106863271Y-90024760D01*
X106721545Y-90034049D01*
X106582943Y-90003033D01*
X106458693Y-89934225D01*
X106431101Y-89911718D01*
X106372957Y-89860727D01*
X106372950Y-89860722D01*
X106127665Y-89696827D01*
X106127659Y-89696824D01*
X105863079Y-89566348D01*
X105583725Y-89471520D01*
X105583724Y-89471519D01*
X105583722Y-89471519D01*
X105583717Y-89471518D01*
X105294387Y-89413967D01*
X105294385Y-89413966D01*
X105000000Y-89394671D01*
X104705614Y-89413966D01*
X104705612Y-89413967D01*
X104416282Y-89471518D01*
X104416274Y-89471520D01*
X104136925Y-89566346D01*
X104136922Y-89566348D01*
X103872334Y-89696829D01*
X103627042Y-89860727D01*
X103405241Y-90055241D01*
X103210727Y-90277042D01*
X103046829Y-90522334D01*
X102916348Y-90786922D01*
X102916346Y-90786925D01*
X102821520Y-91066274D01*
X102821518Y-91066282D01*
X102763967Y-91355612D01*
X102763966Y-91355614D01*
X102763966Y-91355620D01*
X102744671Y-91650000D01*
X102763966Y-91944380D01*
X102763966Y-91944384D01*
X102765035Y-91960680D01*
X102762474Y-91960847D01*
X102761093Y-92077365D01*
X102719466Y-92213158D01*
X102641268Y-92331723D01*
X102532834Y-92423454D01*
X102402949Y-92480920D01*
X102268049Y-92499500D01*
X100381908Y-92499500D01*
X100148632Y-92536446D01*
X100148626Y-92536448D01*
X99924020Y-92609427D01*
X99924003Y-92609434D01*
X99713571Y-92716654D01*
X99713559Y-92716662D01*
X99522491Y-92855481D01*
X99522484Y-92855487D01*
X99355487Y-93022484D01*
X99355481Y-93022491D01*
X99216662Y-93213559D01*
X99216654Y-93213571D01*
X99109434Y-93424003D01*
X99109427Y-93424020D01*
X99036448Y-93648626D01*
X99036446Y-93648632D01*
X98999500Y-93881907D01*
X90500500Y-93881907D01*
X90500500Y-86499500D01*
X90520713Y-86358915D01*
X90579714Y-86229720D01*
X90672724Y-86122381D01*
X90792208Y-86045594D01*
X90928485Y-86005579D01*
X90999500Y-86000500D01*
X218500500Y-86000500D01*
X218641085Y-86020713D01*
G37*
%TD.AperFunction*%
%TA.AperFunction,NonConductor*%
G36*
X165462366Y-93170713D02*
G01*
X165591561Y-93229714D01*
X165674627Y-93296654D01*
X169007204Y-96629231D01*
X169092320Y-96742932D01*
X169141954Y-96876007D01*
X169152087Y-97017675D01*
X169121896Y-97156460D01*
X169053828Y-97281117D01*
X168976038Y-97359849D01*
X168977624Y-97361657D01*
X168743540Y-97566942D01*
X168549026Y-97788743D01*
X168385128Y-98034035D01*
X168254647Y-98298623D01*
X168254645Y-98298626D01*
X168159819Y-98577975D01*
X168159817Y-98577983D01*
X168102266Y-98867313D01*
X168102265Y-98867315D01*
X168082970Y-99161701D01*
X168102265Y-99456085D01*
X168124452Y-99567624D01*
X168143321Y-99662488D01*
X168143368Y-99662721D01*
X168150970Y-99804548D01*
X168118307Y-99942771D01*
X168048025Y-100066193D01*
X167945817Y-100164815D01*
X167819965Y-100230647D01*
X167686597Y-100258002D01*
X167579324Y-100265034D01*
X167579156Y-100262480D01*
X167462568Y-100261082D01*
X167326780Y-100219436D01*
X167208226Y-100141222D01*
X167116510Y-100032775D01*
X167059062Y-99902882D01*
X167040500Y-99768048D01*
X167040500Y-96921907D01*
X167007052Y-96710724D01*
X167003553Y-96688632D01*
X166930568Y-96464008D01*
X166923726Y-96450580D01*
X166823343Y-96253566D01*
X166684517Y-96062490D01*
X164624373Y-94002346D01*
X164539257Y-93888645D01*
X164489623Y-93755570D01*
X164479490Y-93613902D01*
X164509681Y-93475117D01*
X164577749Y-93350460D01*
X164678179Y-93250030D01*
X164802836Y-93181962D01*
X164941621Y-93151771D01*
X164977219Y-93150500D01*
X165321781Y-93150500D01*
X165462366Y-93170713D01*
G37*
%TD.AperFunction*%
%TA.AperFunction,NonConductor*%
G36*
X138354146Y-95020713D02*
G01*
X138483341Y-95079714D01*
X138590680Y-95172724D01*
X138667467Y-95292208D01*
X138707482Y-95428485D01*
X138707482Y-95570515D01*
X138667467Y-95706792D01*
X138628465Y-95776728D01*
X138546831Y-95898901D01*
X138546830Y-95898903D01*
X138416348Y-96163494D01*
X138416346Y-96163497D01*
X138321520Y-96442846D01*
X138321516Y-96442861D01*
X138303872Y-96531563D01*
X138256620Y-96665503D01*
X138173547Y-96780705D01*
X138061383Y-96867836D01*
X137929215Y-96919837D01*
X137787750Y-96932496D01*
X137648449Y-96904786D01*
X137522597Y-96838954D01*
X137485448Y-96809379D01*
X137372957Y-96710727D01*
X137372953Y-96710724D01*
X137127665Y-96546827D01*
X137127659Y-96546824D01*
X136863079Y-96416348D01*
X136583725Y-96321520D01*
X136583724Y-96321519D01*
X136583722Y-96321519D01*
X136583717Y-96321518D01*
X136294387Y-96263967D01*
X136294385Y-96263966D01*
X136000000Y-96244671D01*
X135705614Y-96263966D01*
X135705612Y-96263967D01*
X135416282Y-96321518D01*
X135416274Y-96321520D01*
X135136925Y-96416346D01*
X135136922Y-96416348D01*
X134872334Y-96546829D01*
X134627042Y-96710727D01*
X134531647Y-96794387D01*
X134448483Y-96867321D01*
X134438966Y-96875667D01*
X134319941Y-96953164D01*
X134183905Y-96993989D01*
X134109951Y-96999500D01*
X130141908Y-96999500D01*
X129908632Y-97036446D01*
X129908626Y-97036448D01*
X129684020Y-97109427D01*
X129684002Y-97109434D01*
X129473575Y-97216651D01*
X129473568Y-97216655D01*
X129282490Y-97355483D01*
X129282488Y-97355484D01*
X126975484Y-99662488D01*
X126975483Y-99662490D01*
X126836654Y-99853569D01*
X126826777Y-99872956D01*
X126826775Y-99872959D01*
X126764619Y-99994946D01*
X126682785Y-100111031D01*
X126571561Y-100199358D01*
X126439957Y-100252772D01*
X126298636Y-100266945D01*
X126159046Y-100240729D01*
X126145631Y-100235943D01*
X126102678Y-100219923D01*
X126102675Y-100219922D01*
X125844033Y-100163658D01*
X125844034Y-100163658D01*
X125844028Y-100163657D01*
X125844026Y-100163657D01*
X125580000Y-100144773D01*
X125315970Y-100163657D01*
X125145569Y-100200726D01*
X125003900Y-100210858D01*
X124865116Y-100180666D01*
X124740459Y-100112598D01*
X124640029Y-100012167D01*
X124571962Y-99887510D01*
X124541771Y-99748726D01*
X124540500Y-99713129D01*
X124540500Y-96659612D01*
X124560713Y-96519027D01*
X124619714Y-96389832D01*
X124712724Y-96282493D01*
X124832208Y-96205706D01*
X124891837Y-96184271D01*
X124891654Y-96183731D01*
X124951270Y-96163494D01*
X125186478Y-96083651D01*
X125451066Y-95953171D01*
X125696358Y-95789272D01*
X125881344Y-95627043D01*
X125918163Y-95594754D01*
X126030568Y-95466578D01*
X126112674Y-95372956D01*
X126213360Y-95222268D01*
X126308269Y-95116609D01*
X126429104Y-95041966D01*
X126566073Y-95004390D01*
X126628262Y-95000500D01*
X138213561Y-95000500D01*
X138354146Y-95020713D01*
G37*
%TD.AperFunction*%
%TA.AperFunction,NonConductor*%
G36*
X111705534Y-97862529D02*
G01*
X111840026Y-97908183D01*
X111943029Y-97977897D01*
X112007045Y-98034037D01*
X112127043Y-98139273D01*
X112127046Y-98139275D01*
X112372334Y-98303172D01*
X112372340Y-98303175D01*
X112636920Y-98433651D01*
X112636923Y-98433652D01*
X112916278Y-98528481D01*
X113205613Y-98586032D01*
X113205614Y-98586033D01*
X113205615Y-98586033D01*
X113205620Y-98586034D01*
X113455248Y-98602395D01*
X113594206Y-98631760D01*
X113719266Y-98699085D01*
X113775454Y-98747481D01*
X116045388Y-101017415D01*
X116130504Y-101131116D01*
X116180138Y-101264191D01*
X116190271Y-101405859D01*
X116180138Y-101476331D01*
X116123658Y-101735965D01*
X116123657Y-101735971D01*
X116123657Y-101735974D01*
X116105606Y-101988363D01*
X116104773Y-102000006D01*
X116104773Y-102000500D01*
X116104702Y-102000988D01*
X116103502Y-102017777D01*
X116102301Y-102017691D01*
X116084560Y-102141085D01*
X116025559Y-102270280D01*
X115932549Y-102377619D01*
X115813065Y-102454406D01*
X115676788Y-102494421D01*
X115605773Y-102499500D01*
X112828220Y-102499500D01*
X112687635Y-102479287D01*
X112558440Y-102420286D01*
X112475374Y-102353346D01*
X110646654Y-100524626D01*
X110561538Y-100410925D01*
X110511904Y-100277850D01*
X110500500Y-100171780D01*
X110500500Y-99390049D01*
X110520713Y-99249464D01*
X110579714Y-99120269D01*
X110624332Y-99061035D01*
X110789273Y-98872957D01*
X110953172Y-98627665D01*
X111083652Y-98363077D01*
X111141501Y-98192658D01*
X111205827Y-98066042D01*
X111303225Y-97962668D01*
X111425802Y-97890922D01*
X111563626Y-97856616D01*
X111705534Y-97862529D01*
G37*
%TD.AperFunction*%
%TA.AperFunction,NonConductor*%
G36*
X160282735Y-95020713D02*
G01*
X160411930Y-95079714D01*
X160519269Y-95172724D01*
X160596056Y-95292208D01*
X160636071Y-95428485D01*
X160636071Y-95570515D01*
X160596056Y-95706792D01*
X160557054Y-95776729D01*
X160385128Y-96034035D01*
X160254647Y-96298623D01*
X160254645Y-96298626D01*
X160159819Y-96577975D01*
X160159817Y-96577983D01*
X160102266Y-96867313D01*
X160102265Y-96867315D01*
X160082970Y-97161701D01*
X160102265Y-97456086D01*
X160102266Y-97456088D01*
X160159817Y-97745418D01*
X160159819Y-97745426D01*
X160254647Y-98024780D01*
X160385123Y-98289360D01*
X160385126Y-98289366D01*
X160549023Y-98534654D01*
X160549026Y-98534658D01*
X160743540Y-98756459D01*
X160965341Y-98950973D01*
X160965345Y-98950976D01*
X161210634Y-99114873D01*
X161221193Y-99120080D01*
X161338341Y-99200385D01*
X161428119Y-99310442D01*
X161483254Y-99441334D01*
X161499500Y-99567624D01*
X161499500Y-103260312D01*
X161479287Y-103400897D01*
X161420286Y-103530092D01*
X161327276Y-103637431D01*
X161207792Y-103714218D01*
X161071515Y-103754233D01*
X160929485Y-103754233D01*
X160880133Y-103743146D01*
X160879968Y-103743873D01*
X160861777Y-103739720D01*
X160713525Y-103717375D01*
X160594929Y-103699500D01*
X160325071Y-103699500D01*
X160201458Y-103718131D01*
X160058230Y-103739719D01*
X159930632Y-103779078D01*
X159800359Y-103819262D01*
X159800355Y-103819263D01*
X159800349Y-103819266D01*
X159557233Y-103936345D01*
X159557215Y-103936355D01*
X159471095Y-103995071D01*
X159343552Y-104057564D01*
X159203569Y-104081592D01*
X159062487Y-104065210D01*
X158931735Y-104009743D01*
X158908903Y-103995070D01*
X158822781Y-103936353D01*
X158822780Y-103936352D01*
X158822775Y-103936349D01*
X158822767Y-103936345D01*
X158651859Y-103854040D01*
X158533967Y-103774832D01*
X158443166Y-103665617D01*
X158386812Y-103535245D01*
X158369471Y-103394278D01*
X158392547Y-103254135D01*
X158446150Y-103142467D01*
X158445007Y-103141807D01*
X158453175Y-103127659D01*
X158583651Y-102863079D01*
X158586229Y-102855484D01*
X158678481Y-102583722D01*
X158736034Y-102294380D01*
X158755329Y-102000000D01*
X158736034Y-101705620D01*
X158678481Y-101416278D01*
X158583652Y-101136923D01*
X158453172Y-100872336D01*
X158289273Y-100627043D01*
X158124332Y-100438964D01*
X158046836Y-100319941D01*
X158006011Y-100183905D01*
X158000500Y-100109951D01*
X158000500Y-98390049D01*
X158020713Y-98249464D01*
X158079714Y-98120269D01*
X158124332Y-98061035D01*
X158148009Y-98034037D01*
X158289273Y-97872957D01*
X158453172Y-97627665D01*
X158583652Y-97363077D01*
X158678481Y-97083722D01*
X158736034Y-96794380D01*
X158755329Y-96500000D01*
X158736034Y-96205620D01*
X158678481Y-95916278D01*
X158591450Y-95659895D01*
X158565402Y-95520279D01*
X158579743Y-95378975D01*
X158633314Y-95247435D01*
X158721773Y-95136315D01*
X158837955Y-95054619D01*
X158972448Y-95008965D01*
X159063969Y-95000500D01*
X160142150Y-95000500D01*
X160282735Y-95020713D01*
G37*
%TD.AperFunction*%
%TA.AperFunction,NonConductor*%
G36*
X127473328Y-103734047D02*
G01*
X127486758Y-103738839D01*
X127498306Y-103743146D01*
X127597322Y-103780077D01*
X127855974Y-103836343D01*
X128120000Y-103855227D01*
X128384026Y-103836343D01*
X128554431Y-103799273D01*
X128696097Y-103789141D01*
X128834881Y-103819332D01*
X128959539Y-103887399D01*
X129059969Y-103987829D01*
X129128037Y-104112486D01*
X129158229Y-104251271D01*
X129159500Y-104286870D01*
X129159500Y-105144603D01*
X129139287Y-105285188D01*
X129080286Y-105414383D01*
X128987276Y-105521722D01*
X128867792Y-105598509D01*
X128731515Y-105638524D01*
X128660500Y-105643603D01*
X126465197Y-105643603D01*
X126324612Y-105623390D01*
X126195417Y-105564389D01*
X126088078Y-105471379D01*
X126011291Y-105351895D01*
X125971276Y-105215618D01*
X125971276Y-105073588D01*
X126011291Y-104937311D01*
X126088078Y-104817827D01*
X126112337Y-104791770D01*
X126724517Y-104179591D01*
X126863343Y-103988514D01*
X126867763Y-103979837D01*
X126949592Y-103863757D01*
X127060814Y-103775427D01*
X127192417Y-103722011D01*
X127333738Y-103707834D01*
X127473328Y-103734047D01*
G37*
%TD.AperFunction*%
%TA.AperFunction,NonConductor*%
G36*
X106836392Y-95520713D02*
G01*
X106965587Y-95579714D01*
X107072926Y-95672724D01*
X107149713Y-95792208D01*
X107189728Y-95928485D01*
X107189728Y-96070515D01*
X107149713Y-96206792D01*
X107110710Y-96276730D01*
X107046829Y-96372333D01*
X106916348Y-96636922D01*
X106916346Y-96636925D01*
X106821520Y-96916274D01*
X106821518Y-96916282D01*
X106763967Y-97205612D01*
X106763966Y-97205614D01*
X106744671Y-97500000D01*
X106763966Y-97794385D01*
X106763967Y-97794387D01*
X106821518Y-98083717D01*
X106821520Y-98083725D01*
X106916348Y-98363079D01*
X107046824Y-98627659D01*
X107046827Y-98627665D01*
X107210722Y-98872951D01*
X107210726Y-98872955D01*
X107210727Y-98872957D01*
X107279146Y-98950974D01*
X107375668Y-99061035D01*
X107453165Y-99180060D01*
X107493990Y-99316096D01*
X107499500Y-99390049D01*
X107499500Y-101118092D01*
X107536446Y-101351367D01*
X107536448Y-101351373D01*
X107609427Y-101575979D01*
X107609434Y-101575997D01*
X107716651Y-101786424D01*
X107716655Y-101786431D01*
X107716657Y-101786434D01*
X107855483Y-101977510D01*
X107855484Y-101977511D01*
X110669728Y-104791757D01*
X110754844Y-104905458D01*
X110804478Y-105038533D01*
X110814611Y-105180201D01*
X110784420Y-105318986D01*
X110716352Y-105443643D01*
X110615921Y-105544073D01*
X110491264Y-105612141D01*
X110352480Y-105642332D01*
X110316882Y-105643603D01*
X108004276Y-105643603D01*
X108004276Y-108177557D01*
X107984063Y-108318142D01*
X107925062Y-108447337D01*
X107832052Y-108554676D01*
X107712568Y-108631463D01*
X107576291Y-108671478D01*
X107434261Y-108671478D01*
X107297984Y-108631463D01*
X107178500Y-108554676D01*
X107152430Y-108530403D01*
X104646654Y-106024627D01*
X104561538Y-105910926D01*
X104511904Y-105777851D01*
X104500500Y-105671781D01*
X104500500Y-98390049D01*
X104520713Y-98249464D01*
X104579714Y-98120269D01*
X104624332Y-98061035D01*
X104648009Y-98034037D01*
X104789273Y-97872957D01*
X104953172Y-97627665D01*
X105083652Y-97363077D01*
X105178481Y-97083722D01*
X105236034Y-96794380D01*
X105255329Y-96500000D01*
X105236034Y-96205620D01*
X105236033Y-96205614D01*
X105236032Y-96205608D01*
X105214399Y-96096848D01*
X105206797Y-95955021D01*
X105239461Y-95816798D01*
X105309744Y-95693376D01*
X105411951Y-95594754D01*
X105537804Y-95528923D01*
X105677105Y-95501215D01*
X105703811Y-95500500D01*
X106695807Y-95500500D01*
X106836392Y-95520713D01*
G37*
%TD.AperFunction*%
%TA.AperFunction,NonConductor*%
G36*
X198047283Y-105887281D02*
G01*
X198171940Y-105955349D01*
X198272370Y-106055779D01*
X198340438Y-106180436D01*
X198358777Y-106251283D01*
X198360462Y-106250899D01*
X198424667Y-106532200D01*
X198523255Y-106783395D01*
X198523256Y-106783397D01*
X198582648Y-106886267D01*
X198635434Y-107018123D01*
X198649500Y-107135765D01*
X198649500Y-107228018D01*
X198629287Y-107368603D01*
X198611516Y-107418977D01*
X198609430Y-107424010D01*
X198536447Y-107648630D01*
X198536446Y-107648632D01*
X198499500Y-107881907D01*
X198499500Y-108171781D01*
X198479287Y-108312366D01*
X198420286Y-108441561D01*
X198353346Y-108524627D01*
X197444627Y-109433346D01*
X197330926Y-109518462D01*
X197197851Y-109568096D01*
X197091781Y-109579500D01*
X195147219Y-109579500D01*
X195006634Y-109559287D01*
X194877439Y-109500286D01*
X194770100Y-109407276D01*
X194693313Y-109287792D01*
X194653298Y-109151515D01*
X194653298Y-109009485D01*
X194693313Y-108873208D01*
X194770100Y-108753724D01*
X194794373Y-108727654D01*
X195970304Y-107551723D01*
X197520057Y-106001970D01*
X197633755Y-105916857D01*
X197766830Y-105867223D01*
X197908498Y-105857090D01*
X198047283Y-105887281D01*
G37*
%TD.AperFunction*%
%TA.AperFunction,NonConductor*%
G36*
X154076616Y-95020713D02*
G01*
X154205811Y-95079714D01*
X154313150Y-95172724D01*
X154389937Y-95292208D01*
X154429952Y-95428485D01*
X154429952Y-95570515D01*
X154408550Y-95659892D01*
X154321519Y-95916278D01*
X154321519Y-95916279D01*
X154321518Y-95916282D01*
X154263967Y-96205612D01*
X154263966Y-96205614D01*
X154244671Y-96500000D01*
X154263966Y-96794385D01*
X154263967Y-96794387D01*
X154321518Y-97083717D01*
X154321520Y-97083725D01*
X154416348Y-97363079D01*
X154546824Y-97627659D01*
X154546827Y-97627665D01*
X154710722Y-97872951D01*
X154710726Y-97872955D01*
X154710727Y-97872957D01*
X154851989Y-98034035D01*
X154875668Y-98061035D01*
X154953165Y-98180060D01*
X154993990Y-98316096D01*
X154999500Y-98390049D01*
X154999500Y-100109951D01*
X154979287Y-100250536D01*
X154920286Y-100379731D01*
X154875668Y-100438963D01*
X154863206Y-100453175D01*
X154710727Y-100627042D01*
X154546829Y-100872334D01*
X154416348Y-101136922D01*
X154416346Y-101136925D01*
X154321520Y-101416274D01*
X154321518Y-101416282D01*
X154263967Y-101705612D01*
X154263966Y-101705614D01*
X154244671Y-102000000D01*
X154263966Y-102294385D01*
X154263967Y-102294387D01*
X154321518Y-102583717D01*
X154321520Y-102583725D01*
X154416348Y-102863079D01*
X154546824Y-103127659D01*
X154546825Y-103127661D01*
X154621624Y-103239605D01*
X154682922Y-103367726D01*
X154705641Y-103507928D01*
X154687940Y-103648851D01*
X154631254Y-103779078D01*
X154540174Y-103888061D01*
X154487818Y-103929126D01*
X154391098Y-103995069D01*
X154263555Y-104057563D01*
X154123573Y-104081592D01*
X153982490Y-104065211D01*
X153851738Y-104009745D01*
X153828903Y-103995070D01*
X153742781Y-103936353D01*
X153742780Y-103936352D01*
X153742775Y-103936349D01*
X153641129Y-103887399D01*
X153499649Y-103819265D01*
X153499646Y-103819264D01*
X153499643Y-103819263D01*
X153499641Y-103819262D01*
X153241772Y-103739720D01*
X153241770Y-103739719D01*
X153241768Y-103739719D01*
X153124280Y-103722011D01*
X152974929Y-103699500D01*
X152705071Y-103699500D01*
X152581458Y-103718131D01*
X152438230Y-103739719D01*
X152310632Y-103779078D01*
X152180359Y-103819262D01*
X152180355Y-103819263D01*
X152180349Y-103819266D01*
X151937233Y-103936345D01*
X151937222Y-103936351D01*
X151714257Y-104088366D01*
X151516436Y-104271917D01*
X151348191Y-104482889D01*
X151348180Y-104482905D01*
X151213256Y-104716602D01*
X151213255Y-104716604D01*
X151114667Y-104967799D01*
X151074332Y-105144518D01*
X151054617Y-105230897D01*
X151034451Y-105500000D01*
X151054617Y-105769103D01*
X151054618Y-105769107D01*
X151114667Y-106032200D01*
X151213255Y-106283395D01*
X151213256Y-106283397D01*
X151348180Y-106517094D01*
X151348191Y-106517110D01*
X151516436Y-106728082D01*
X151516438Y-106728084D01*
X151516439Y-106728085D01*
X151714259Y-106911635D01*
X151937226Y-107063651D01*
X152180359Y-107180738D01*
X152438228Y-107260280D01*
X152705071Y-107300500D01*
X152705075Y-107300500D01*
X152974925Y-107300500D01*
X152974929Y-107300500D01*
X153241772Y-107260280D01*
X153499641Y-107180738D01*
X153742775Y-107063651D01*
X153742783Y-107063645D01*
X153742786Y-107063644D01*
X153828901Y-107004931D01*
X153956443Y-106942437D01*
X154096426Y-106918407D01*
X154237508Y-106934788D01*
X154368260Y-106990253D01*
X154391071Y-107004911D01*
X154477226Y-107063651D01*
X154720359Y-107180738D01*
X154978228Y-107260280D01*
X155245071Y-107300500D01*
X155245075Y-107300500D01*
X155514925Y-107300500D01*
X155514929Y-107300500D01*
X155781772Y-107260280D01*
X156039641Y-107180738D01*
X156144411Y-107130283D01*
X156279841Y-107087497D01*
X156421842Y-107084599D01*
X156558907Y-107121824D01*
X156679933Y-107196158D01*
X156764617Y-107286557D01*
X156855483Y-107411622D01*
X156855485Y-107411624D01*
X158091514Y-108647654D01*
X158176630Y-108761355D01*
X158226264Y-108894430D01*
X158236397Y-109036098D01*
X158206206Y-109174883D01*
X158138138Y-109299540D01*
X158037707Y-109399970D01*
X157913050Y-109468038D01*
X157774266Y-109498229D01*
X157738668Y-109499500D01*
X152881907Y-109499500D01*
X152648626Y-109536447D01*
X152424009Y-109609431D01*
X152424003Y-109609434D01*
X152213575Y-109716651D01*
X152213568Y-109716655D01*
X152022490Y-109855483D01*
X152022488Y-109855484D01*
X151695480Y-110182492D01*
X151556660Y-110373560D01*
X151556659Y-110373562D01*
X151463028Y-110557324D01*
X151449431Y-110584008D01*
X151376447Y-110808630D01*
X151376446Y-110808632D01*
X151339500Y-111041907D01*
X151339500Y-111418226D01*
X151319287Y-111558811D01*
X151260286Y-111688006D01*
X151227233Y-111733565D01*
X151200301Y-111766593D01*
X151106095Y-111946942D01*
X151106091Y-111946951D01*
X151050114Y-112142582D01*
X151039500Y-112261963D01*
X151039500Y-112261969D01*
X151039500Y-112261970D01*
X151039500Y-112712781D01*
X151019287Y-112853366D01*
X150960286Y-112982561D01*
X150867276Y-113089900D01*
X150747792Y-113166687D01*
X150611515Y-113206702D01*
X150469485Y-113206702D01*
X150333208Y-113166687D01*
X150213724Y-113089900D01*
X150187654Y-113065627D01*
X142146654Y-105024627D01*
X142061538Y-104910926D01*
X142011904Y-104777851D01*
X142000500Y-104671781D01*
X142000500Y-98916621D01*
X142020713Y-98776036D01*
X142079714Y-98646841D01*
X142124332Y-98587607D01*
X142289273Y-98399529D01*
X142453172Y-98154237D01*
X142583652Y-97889649D01*
X142678481Y-97610294D01*
X142736034Y-97320952D01*
X142755329Y-97026572D01*
X142736034Y-96732192D01*
X142678481Y-96442850D01*
X142608276Y-96236033D01*
X142583653Y-96163497D01*
X142583652Y-96163495D01*
X142453172Y-95898908D01*
X142453169Y-95898903D01*
X142453168Y-95898901D01*
X142371535Y-95776728D01*
X142310237Y-95648607D01*
X142287518Y-95508405D01*
X142305219Y-95367482D01*
X142361906Y-95237255D01*
X142452985Y-95128273D01*
X142571080Y-95049365D01*
X142706621Y-95006925D01*
X142786439Y-95000500D01*
X153936031Y-95000500D01*
X154076616Y-95020713D01*
G37*
%TD.AperFunction*%
%TA.AperFunction,NonConductor*%
G36*
X138655263Y-99171622D02*
G01*
X138782646Y-99234440D01*
X138887172Y-99330602D01*
X138960371Y-99452316D01*
X138996315Y-99589723D01*
X138999500Y-99646016D01*
X138999500Y-105618092D01*
X139036446Y-105851367D01*
X139036448Y-105851373D01*
X139109427Y-106075979D01*
X139109434Y-106075997D01*
X139216651Y-106286424D01*
X139216655Y-106286431D01*
X139216657Y-106286434D01*
X139355483Y-106477510D01*
X139355484Y-106477511D01*
X147145627Y-114267654D01*
X147230743Y-114381355D01*
X147280377Y-114514430D01*
X147290510Y-114656098D01*
X147260319Y-114794883D01*
X147192251Y-114919540D01*
X147091821Y-115019970D01*
X146967164Y-115088038D01*
X146828379Y-115118229D01*
X146792781Y-115119500D01*
X135948220Y-115119500D01*
X135807635Y-115099287D01*
X135678440Y-115040286D01*
X135595374Y-114973346D01*
X132260930Y-111638903D01*
X132175814Y-111525202D01*
X132126180Y-111392127D01*
X132116047Y-111250459D01*
X132120920Y-111207996D01*
X132160500Y-110958097D01*
X132160500Y-103813094D01*
X132180713Y-103672509D01*
X132239714Y-103543314D01*
X132272767Y-103497755D01*
X132349698Y-103403407D01*
X132443909Y-103223049D01*
X132499886Y-103027418D01*
X132510500Y-102908037D01*
X132510499Y-101091964D01*
X132499886Y-100972582D01*
X132443909Y-100776951D01*
X132419663Y-100730534D01*
X132372489Y-100596570D01*
X132364969Y-100454739D01*
X132397711Y-100316534D01*
X132468064Y-100193152D01*
X132570327Y-100094589D01*
X132696217Y-100028829D01*
X132835534Y-100001200D01*
X132861957Y-100000500D01*
X134109951Y-100000500D01*
X134250536Y-100020713D01*
X134379731Y-100079714D01*
X134438961Y-100124329D01*
X134627042Y-100289272D01*
X134627048Y-100289277D01*
X134872334Y-100453172D01*
X134872340Y-100453175D01*
X135136920Y-100583651D01*
X135136923Y-100583652D01*
X135416278Y-100678481D01*
X135705613Y-100736032D01*
X135705614Y-100736033D01*
X135705615Y-100736033D01*
X135705620Y-100736034D01*
X136000000Y-100755329D01*
X136294380Y-100736034D01*
X136583722Y-100678481D01*
X136863077Y-100583652D01*
X137100438Y-100466599D01*
X137127659Y-100453175D01*
X137127665Y-100453172D01*
X137239461Y-100378472D01*
X137372957Y-100289273D01*
X137594758Y-100094758D01*
X137667189Y-100012167D01*
X137789274Y-99872956D01*
X137789274Y-99872955D01*
X137953172Y-99627665D01*
X138037788Y-99456081D01*
X138052960Y-99425315D01*
X138133267Y-99308168D01*
X138243325Y-99218392D01*
X138374218Y-99163259D01*
X138515342Y-99147237D01*
X138655263Y-99171622D01*
G37*
%TD.AperFunction*%
%TA.AperFunction,NonConductor*%
G36*
X113550624Y-112520713D02*
G01*
X113679819Y-112579714D01*
X113787158Y-112672724D01*
X113863945Y-112792208D01*
X113903960Y-112928485D01*
X113903960Y-113070515D01*
X113863945Y-113206792D01*
X113787158Y-113326276D01*
X113762885Y-113352346D01*
X113305484Y-113809746D01*
X113305483Y-113809748D01*
X113166656Y-114000825D01*
X113099170Y-114133276D01*
X113099169Y-114133278D01*
X113059432Y-114211265D01*
X113059428Y-114211275D01*
X112986448Y-114435884D01*
X112986446Y-114435890D01*
X112949500Y-114669165D01*
X112949500Y-117148264D01*
X112929287Y-117288849D01*
X112870286Y-117418044D01*
X112777276Y-117525383D01*
X112657792Y-117602170D01*
X112521515Y-117642185D01*
X112379485Y-117642185D01*
X112243208Y-117602170D01*
X112123724Y-117525383D01*
X112097654Y-117501110D01*
X110035828Y-115439284D01*
X107948888Y-113352345D01*
X107863773Y-113238645D01*
X107814139Y-113105570D01*
X107804006Y-112963902D01*
X107834197Y-112825117D01*
X107902265Y-112700460D01*
X108002695Y-112600030D01*
X108127352Y-112531962D01*
X108266137Y-112501771D01*
X108301735Y-112500500D01*
X113410039Y-112500500D01*
X113550624Y-112520713D01*
G37*
%TD.AperFunction*%
%TA.AperFunction,NonConductor*%
G36*
X167962619Y-119571944D02*
G01*
X168087276Y-119640012D01*
X168187706Y-119740442D01*
X168255774Y-119865099D01*
X168285965Y-120003884D01*
X168277649Y-120136828D01*
X168263966Y-120205615D01*
X168244671Y-120500000D01*
X168263966Y-120794385D01*
X168263967Y-120794387D01*
X168321518Y-121083717D01*
X168321520Y-121083725D01*
X168416348Y-121363079D01*
X168546824Y-121627659D01*
X168546827Y-121627665D01*
X168710724Y-121872953D01*
X168710727Y-121872957D01*
X168905241Y-122094758D01*
X168940104Y-122125332D01*
X169032474Y-122233222D01*
X169090706Y-122362766D01*
X169110082Y-122503469D01*
X169089033Y-122643930D01*
X169029264Y-122772772D01*
X168935617Y-122879556D01*
X168815679Y-122955632D01*
X168679166Y-122994835D01*
X168611091Y-122999500D01*
X166388909Y-122999500D01*
X166248324Y-122979287D01*
X166119129Y-122920286D01*
X166011790Y-122827276D01*
X165935003Y-122707792D01*
X165894988Y-122571515D01*
X165894988Y-122429485D01*
X165935003Y-122293208D01*
X166011790Y-122173724D01*
X166059896Y-122125332D01*
X166094758Y-122094758D01*
X166214611Y-121958092D01*
X166289273Y-121872957D01*
X166453172Y-121627665D01*
X166583652Y-121363077D01*
X166678481Y-121083722D01*
X166736034Y-120794380D01*
X166752395Y-120544749D01*
X166781760Y-120405793D01*
X166849085Y-120280733D01*
X166897474Y-120224552D01*
X167435393Y-119686633D01*
X167549091Y-119601520D01*
X167682166Y-119551886D01*
X167823834Y-119541753D01*
X167962619Y-119571944D01*
G37*
%TD.AperFunction*%
%TA.AperFunction,NonConductor*%
G36*
X161942493Y-120383438D02*
G01*
X162067150Y-120451506D01*
X162167581Y-120551936D01*
X162235649Y-120676593D01*
X162262842Y-120785844D01*
X162263965Y-120794380D01*
X162321518Y-121083717D01*
X162321520Y-121083725D01*
X162416348Y-121363079D01*
X162546824Y-121627659D01*
X162546827Y-121627665D01*
X162710724Y-121872953D01*
X162710727Y-121872957D01*
X162905241Y-122094758D01*
X162940104Y-122125332D01*
X163032474Y-122233222D01*
X163090706Y-122362766D01*
X163110082Y-122503469D01*
X163089033Y-122643930D01*
X163029264Y-122772772D01*
X162935617Y-122879556D01*
X162815679Y-122955632D01*
X162679166Y-122994835D01*
X162611091Y-122999500D01*
X160118589Y-122999500D01*
X159978004Y-122979287D01*
X159848809Y-122920286D01*
X159741470Y-122827276D01*
X159664683Y-122707792D01*
X159624668Y-122571515D01*
X159624668Y-122429485D01*
X159664683Y-122293208D01*
X159741470Y-122173724D01*
X159765743Y-122147654D01*
X160040444Y-121872953D01*
X161415270Y-120498126D01*
X161528965Y-120413014D01*
X161662041Y-120363380D01*
X161803709Y-120353247D01*
X161942493Y-120383438D01*
G37*
%TD.AperFunction*%
D19*
X90000000Y-85500000D02*
X219500000Y-85500000D01*
X219500000Y-133000000D01*
X90000000Y-133000000D01*
X90000000Y-85500000D01*
M02*
