M48
; DRILL file {KiCad 8.0.9-8.0.9-0~ubuntu22.04.1} date 2026-03-18T11:42:22+0900
; FORMAT={-:-/ absolute / inch / decimal}
; #@! TF.CreationDate,2026-03-18T11:42:22+09:00
; #@! TF.GenerationSoftware,Kicad,Pcbnew,8.0.9-8.0.9-0~ubuntu22.04.1
; #@! TF.FileFunction,Plated,1,2,PTH
FMAT,2
INCH
; #@! TA.AperFunction,Plated,PTH,ViaDrill
T1C0.0118
; #@! TA.AperFunction,Plated,PTH,ComponentDrill
T2C0.0315
; #@! TA.AperFunction,Plated,PTH,ComponentDrill
T3C0.0394
%
G90
G05
T1
X4.0551Y-3.7992
X4.1339Y-3.6083
X4.2913Y-3.8386
X4.311Y-3.5157
X4.4685Y-3.7933
X4.6654Y-3.8189
X4.8946Y-3.7008
X5.3543Y-3.878
X5.5315Y-3.8199
X6.1614Y-3.5157
X6.1614Y-3.7992
X6.1614Y-4.0157
X6.3386Y-5.0866
X6.3913Y-3.8253
X6.4764Y-4.7441
X6.5748Y-4.9941
X6.6098Y-4.0354
X6.7062Y-3.904
X6.7126Y-4.7441
X7.0432Y-4.1712
X7.185Y-4.2717
X7.2835Y-4.4685
X7.4213Y-4.3701
X7.6969Y-4.0551
T2
X6.0173Y-4.1535
X6.0173Y-4.4535
X6.1173Y-4.1535
X6.1173Y-4.4535
X6.2173Y-4.1535
X6.2173Y-4.4535
X6.3173Y-4.1535
X6.3173Y-4.4535
X6.4173Y-4.1535
X6.4173Y-4.4535
X6.5173Y-4.1535
X6.5173Y-4.4535
X6.6173Y-4.1535
X6.6173Y-4.4535
X6.7173Y-4.1535
X6.7173Y-4.4535
X6.8173Y-4.1535
X6.8173Y-4.4535
X6.9173Y-4.1535
X6.9173Y-4.4535
X7.874Y-4.4685
X7.8799Y-4.1732
X8.374Y-4.4685
X8.3799Y-4.1732
T3
X4.6441Y-4.0157
X4.6457Y-4.6063
X4.7441Y-4.0157
X4.7457Y-4.6063
X4.8441Y-4.0157
X4.8457Y-4.6063
X4.9441Y-4.0157
X4.9457Y-4.6063
X5.0441Y-4.0157
X5.0457Y-4.6063
X5.1441Y-4.0157
X5.1457Y-4.6063
X7.5394Y-4.1732
X7.5394Y-4.2732
X7.5394Y-4.3732
X7.5394Y-4.4732
M30
