M48
; DRILL file {KiCad 8.0.9-8.0.9-0~ubuntu22.04.1} date 2026-03-26T22:34:55+0900
; FORMAT={-:-/ absolute / inch / decimal}
; #@! TF.CreationDate,2026-03-26T22:34:55+09:00
; #@! TF.GenerationSoftware,Kicad,Pcbnew,8.0.9-8.0.9-0~ubuntu22.04.1
; #@! TF.FileFunction,Plated,1,2,PTH
FMAT,2
INCH
; #@! TA.AperFunction,Plated,PTH,ViaDrill
T1C0.0118
; #@! TA.AperFunction,Plated,PTH,ComponentDrill
T2C0.0315
; #@! TA.AperFunction,Plated,PTH,ComponentDrill
T3C0.0394
%
G90
G05
T1
X4.2717Y-3.7598
X4.2717Y-4.2717
X4.5472Y-2.9921
X4.685Y-3.3071
X4.7244Y-4.0748
X4.8425Y-4.0748
X4.8622Y-3.4449
X4.9547Y-3.3524
X5.1604Y-4.7244
X5.1969Y-3.2736
X5.4134Y-3.4449
X5.4134Y-3.9764
X5.4331Y-4.5715
X5.6299Y-3.3858
T2
X4.1142Y-3.5925
X4.1142Y-3.6909
X4.1142Y-3.939
X4.1142Y-4.1319
X4.1142Y-4.3602
X4.1142Y-4.4587
X4.9796Y-3.5789
X4.9796Y-3.6789
X4.9796Y-3.7789
X4.9796Y-3.8789
X4.9796Y-3.9789
X4.9796Y-4.0789
X4.9796Y-4.1789
X4.9796Y-4.2789
X4.9796Y-4.3789
X4.9796Y-4.4789
X5.2796Y-3.5789
X5.2796Y-3.6789
X5.2796Y-3.7789
X5.2796Y-3.8789
X5.2796Y-3.9789
X5.2796Y-4.0789
X5.2796Y-4.1789
X5.2796Y-4.2789
X5.2796Y-4.3789
X5.2796Y-4.4789
T3
X4.3898Y-3.5811
X4.3898Y-3.6811
X4.3898Y-3.7811
X4.3898Y-3.8811
X4.3898Y-3.9811
X4.3898Y-4.0811
X4.3898Y-4.1811
X4.3898Y-4.2811
X4.4882Y-4.7031
X4.4882Y-4.8031
X4.9969Y-2.9906
X4.9969Y-3.0906
X5.0679Y-4.8715
X5.0679Y-4.9715
X5.0969Y-2.9906
X5.0969Y-3.0906
X5.1679Y-4.8715
X5.1679Y-4.9715
X5.1969Y-2.9906
X5.1969Y-3.0906
X5.5315Y-4.7441
X5.5315Y-4.8441
X5.6496Y-3.5827
X5.6496Y-3.6827
X5.6496Y-3.7827
X5.6496Y-3.8827
X5.6496Y-3.9827
X5.6496Y-4.0827
X5.6496Y-4.1827
X5.6496Y-4.2827
M30
