%TF.GenerationSoftware,KiCad,Pcbnew,8.0.9-8.0.9-0~ubuntu22.04.1*%
%TF.CreationDate,2026-03-29T22:16:50+09:00*%
%TF.ProjectId,Rapide861,52617069-6465-4383-9631-2e6b69636164,rev?*%
%TF.SameCoordinates,Original*%
%TF.FileFunction,Copper,L2,Bot*%
%TF.FilePolarity,Positive*%
%FSLAX46Y46*%
G04 Gerber Fmt 4.6, Leading zero omitted, Abs format (unit mm)*
G04 Created by KiCad (PCBNEW 8.0.9-8.0.9-0~ubuntu22.04.1) date 2026-03-29 22:16:50*
%MOMM*%
%LPD*%
G01*
G04 APERTURE LIST*
G04 Aperture macros list*
%AMRoundRect*
0 Rectangle with rounded corners*
0 $1 Rounding radius*
0 $2 $3 $4 $5 $6 $7 $8 $9 X,Y pos of 4 corners*
0 Add a 4 corners polygon primitive as box body*
4,1,4,$2,$3,$4,$5,$6,$7,$8,$9,$2,$3,0*
0 Add four circle primitives for the rounded corners*
1,1,$1+$1,$2,$3*
1,1,$1+$1,$4,$5*
1,1,$1+$1,$6,$7*
1,1,$1+$1,$8,$9*
0 Add four rect primitives between the rounded corners*
20,1,$1+$1,$2,$3,$4,$5,0*
20,1,$1+$1,$4,$5,$6,$7,0*
20,1,$1+$1,$6,$7,$8,$9,0*
20,1,$1+$1,$8,$9,$2,$3,0*%
G04 Aperture macros list end*
%ADD10C,0.300000*%
%TA.AperFunction,NonConductor*%
%ADD11C,0.300000*%
%TD*%
%TA.AperFunction,ComponentPad*%
%ADD12R,1.700000X1.700000*%
%TD*%
%TA.AperFunction,ComponentPad*%
%ADD13O,1.700000X1.700000*%
%TD*%
%TA.AperFunction,ComponentPad*%
%ADD14C,1.500000*%
%TD*%
%TA.AperFunction,ComponentPad*%
%ADD15C,1.600000*%
%TD*%
%TA.AperFunction,ComponentPad*%
%ADD16R,1.600000X1.600000*%
%TD*%
%TA.AperFunction,ComponentPad*%
%ADD17O,1.600000X1.600000*%
%TD*%
%TA.AperFunction,ComponentPad*%
%ADD18RoundRect,0.250000X0.600000X-0.600000X0.600000X0.600000X-0.600000X0.600000X-0.600000X-0.600000X0*%
%TD*%
%TA.AperFunction,ComponentPad*%
%ADD19C,1.700000*%
%TD*%
%TA.AperFunction,ViaPad*%
%ADD20C,2.500000*%
%TD*%
%TA.AperFunction,Conductor*%
%ADD21C,1.000000*%
%TD*%
%TA.AperFunction,Profile*%
%ADD22C,0.050000*%
%TD*%
G04 APERTURE END LIST*
D10*
D11*
X146199171Y-108088346D02*
X146913457Y-108588346D01*
X146199171Y-108945489D02*
X147699171Y-108945489D01*
X147699171Y-108945489D02*
X147699171Y-108374060D01*
X147699171Y-108374060D02*
X147627742Y-108231203D01*
X147627742Y-108231203D02*
X147556314Y-108159774D01*
X147556314Y-108159774D02*
X147413457Y-108088346D01*
X147413457Y-108088346D02*
X147199171Y-108088346D01*
X147199171Y-108088346D02*
X147056314Y-108159774D01*
X147056314Y-108159774D02*
X146984885Y-108231203D01*
X146984885Y-108231203D02*
X146913457Y-108374060D01*
X146913457Y-108374060D02*
X146913457Y-108945489D01*
X146199171Y-106802632D02*
X146984885Y-106802632D01*
X146984885Y-106802632D02*
X147127742Y-106874060D01*
X147127742Y-106874060D02*
X147199171Y-107016917D01*
X147199171Y-107016917D02*
X147199171Y-107302632D01*
X147199171Y-107302632D02*
X147127742Y-107445489D01*
X146270600Y-106802632D02*
X146199171Y-106945489D01*
X146199171Y-106945489D02*
X146199171Y-107302632D01*
X146199171Y-107302632D02*
X146270600Y-107445489D01*
X146270600Y-107445489D02*
X146413457Y-107516917D01*
X146413457Y-107516917D02*
X146556314Y-107516917D01*
X146556314Y-107516917D02*
X146699171Y-107445489D01*
X146699171Y-107445489D02*
X146770600Y-107302632D01*
X146770600Y-107302632D02*
X146770600Y-106945489D01*
X146770600Y-106945489D02*
X146842028Y-106802632D01*
X147199171Y-106088346D02*
X145699171Y-106088346D01*
X147127742Y-106088346D02*
X147199171Y-105945489D01*
X147199171Y-105945489D02*
X147199171Y-105659774D01*
X147199171Y-105659774D02*
X147127742Y-105516917D01*
X147127742Y-105516917D02*
X147056314Y-105445489D01*
X147056314Y-105445489D02*
X146913457Y-105374060D01*
X146913457Y-105374060D02*
X146484885Y-105374060D01*
X146484885Y-105374060D02*
X146342028Y-105445489D01*
X146342028Y-105445489D02*
X146270600Y-105516917D01*
X146270600Y-105516917D02*
X146199171Y-105659774D01*
X146199171Y-105659774D02*
X146199171Y-105945489D01*
X146199171Y-105945489D02*
X146270600Y-106088346D01*
X146199171Y-104731203D02*
X147199171Y-104731203D01*
X147699171Y-104731203D02*
X147627742Y-104802631D01*
X147627742Y-104802631D02*
X147556314Y-104731203D01*
X147556314Y-104731203D02*
X147627742Y-104659774D01*
X147627742Y-104659774D02*
X147699171Y-104731203D01*
X147699171Y-104731203D02*
X147556314Y-104731203D01*
X146199171Y-103374060D02*
X147699171Y-103374060D01*
X146270600Y-103374060D02*
X146199171Y-103516917D01*
X146199171Y-103516917D02*
X146199171Y-103802631D01*
X146199171Y-103802631D02*
X146270600Y-103945488D01*
X146270600Y-103945488D02*
X146342028Y-104016917D01*
X146342028Y-104016917D02*
X146484885Y-104088345D01*
X146484885Y-104088345D02*
X146913457Y-104088345D01*
X146913457Y-104088345D02*
X147056314Y-104016917D01*
X147056314Y-104016917D02*
X147127742Y-103945488D01*
X147127742Y-103945488D02*
X147199171Y-103802631D01*
X147199171Y-103802631D02*
X147199171Y-103516917D01*
X147199171Y-103516917D02*
X147127742Y-103374060D01*
X146270600Y-102088345D02*
X146199171Y-102231202D01*
X146199171Y-102231202D02*
X146199171Y-102516917D01*
X146199171Y-102516917D02*
X146270600Y-102659774D01*
X146270600Y-102659774D02*
X146413457Y-102731202D01*
X146413457Y-102731202D02*
X146984885Y-102731202D01*
X146984885Y-102731202D02*
X147127742Y-102659774D01*
X147127742Y-102659774D02*
X147199171Y-102516917D01*
X147199171Y-102516917D02*
X147199171Y-102231202D01*
X147199171Y-102231202D02*
X147127742Y-102088345D01*
X147127742Y-102088345D02*
X146984885Y-102016917D01*
X146984885Y-102016917D02*
X146842028Y-102016917D01*
X146842028Y-102016917D02*
X146699171Y-102731202D01*
X147056314Y-101159774D02*
X147127742Y-101302631D01*
X147127742Y-101302631D02*
X147199171Y-101374060D01*
X147199171Y-101374060D02*
X147342028Y-101445488D01*
X147342028Y-101445488D02*
X147413457Y-101445488D01*
X147413457Y-101445488D02*
X147556314Y-101374060D01*
X147556314Y-101374060D02*
X147627742Y-101302631D01*
X147627742Y-101302631D02*
X147699171Y-101159774D01*
X147699171Y-101159774D02*
X147699171Y-100874060D01*
X147699171Y-100874060D02*
X147627742Y-100731203D01*
X147627742Y-100731203D02*
X147556314Y-100659774D01*
X147556314Y-100659774D02*
X147413457Y-100588345D01*
X147413457Y-100588345D02*
X147342028Y-100588345D01*
X147342028Y-100588345D02*
X147199171Y-100659774D01*
X147199171Y-100659774D02*
X147127742Y-100731203D01*
X147127742Y-100731203D02*
X147056314Y-100874060D01*
X147056314Y-100874060D02*
X147056314Y-101159774D01*
X147056314Y-101159774D02*
X146984885Y-101302631D01*
X146984885Y-101302631D02*
X146913457Y-101374060D01*
X146913457Y-101374060D02*
X146770600Y-101445488D01*
X146770600Y-101445488D02*
X146484885Y-101445488D01*
X146484885Y-101445488D02*
X146342028Y-101374060D01*
X146342028Y-101374060D02*
X146270600Y-101302631D01*
X146270600Y-101302631D02*
X146199171Y-101159774D01*
X146199171Y-101159774D02*
X146199171Y-100874060D01*
X146199171Y-100874060D02*
X146270600Y-100731203D01*
X146270600Y-100731203D02*
X146342028Y-100659774D01*
X146342028Y-100659774D02*
X146484885Y-100588345D01*
X146484885Y-100588345D02*
X146770600Y-100588345D01*
X146770600Y-100588345D02*
X146913457Y-100659774D01*
X146913457Y-100659774D02*
X146984885Y-100731203D01*
X146984885Y-100731203D02*
X147056314Y-100874060D01*
X147699171Y-99302632D02*
X147699171Y-99588346D01*
X147699171Y-99588346D02*
X147627742Y-99731203D01*
X147627742Y-99731203D02*
X147556314Y-99802632D01*
X147556314Y-99802632D02*
X147342028Y-99945489D01*
X147342028Y-99945489D02*
X147056314Y-100016917D01*
X147056314Y-100016917D02*
X146484885Y-100016917D01*
X146484885Y-100016917D02*
X146342028Y-99945489D01*
X146342028Y-99945489D02*
X146270600Y-99874060D01*
X146270600Y-99874060D02*
X146199171Y-99731203D01*
X146199171Y-99731203D02*
X146199171Y-99445489D01*
X146199171Y-99445489D02*
X146270600Y-99302632D01*
X146270600Y-99302632D02*
X146342028Y-99231203D01*
X146342028Y-99231203D02*
X146484885Y-99159774D01*
X146484885Y-99159774D02*
X146842028Y-99159774D01*
X146842028Y-99159774D02*
X146984885Y-99231203D01*
X146984885Y-99231203D02*
X147056314Y-99302632D01*
X147056314Y-99302632D02*
X147127742Y-99445489D01*
X147127742Y-99445489D02*
X147127742Y-99731203D01*
X147127742Y-99731203D02*
X147056314Y-99874060D01*
X147056314Y-99874060D02*
X146984885Y-99945489D01*
X146984885Y-99945489D02*
X146842028Y-100016917D01*
X146199171Y-97731203D02*
X146199171Y-98588346D01*
X146199171Y-98159775D02*
X147699171Y-98159775D01*
X147699171Y-98159775D02*
X147484885Y-98302632D01*
X147484885Y-98302632D02*
X147342028Y-98445489D01*
X147342028Y-98445489D02*
X147270600Y-98588346D01*
D10*
D11*
X120659774Y-125872257D02*
X120802632Y-125800828D01*
X120802632Y-125800828D02*
X121016917Y-125800828D01*
X121016917Y-125800828D02*
X121231203Y-125872257D01*
X121231203Y-125872257D02*
X121374060Y-126015114D01*
X121374060Y-126015114D02*
X121445489Y-126157971D01*
X121445489Y-126157971D02*
X121516917Y-126443685D01*
X121516917Y-126443685D02*
X121516917Y-126657971D01*
X121516917Y-126657971D02*
X121445489Y-126943685D01*
X121445489Y-126943685D02*
X121374060Y-127086542D01*
X121374060Y-127086542D02*
X121231203Y-127229400D01*
X121231203Y-127229400D02*
X121016917Y-127300828D01*
X121016917Y-127300828D02*
X120874060Y-127300828D01*
X120874060Y-127300828D02*
X120659774Y-127229400D01*
X120659774Y-127229400D02*
X120588346Y-127157971D01*
X120588346Y-127157971D02*
X120588346Y-126657971D01*
X120588346Y-126657971D02*
X120874060Y-126657971D01*
X119945489Y-127300828D02*
X119945489Y-125800828D01*
X119945489Y-125800828D02*
X119088346Y-127300828D01*
X119088346Y-127300828D02*
X119088346Y-125800828D01*
X118374060Y-127300828D02*
X118374060Y-125800828D01*
X118374060Y-125800828D02*
X118016917Y-125800828D01*
X118016917Y-125800828D02*
X117802631Y-125872257D01*
X117802631Y-125872257D02*
X117659774Y-126015114D01*
X117659774Y-126015114D02*
X117588345Y-126157971D01*
X117588345Y-126157971D02*
X117516917Y-126443685D01*
X117516917Y-126443685D02*
X117516917Y-126657971D01*
X117516917Y-126657971D02*
X117588345Y-126943685D01*
X117588345Y-126943685D02*
X117659774Y-127086542D01*
X117659774Y-127086542D02*
X117802631Y-127229400D01*
X117802631Y-127229400D02*
X118016917Y-127300828D01*
X118016917Y-127300828D02*
X118374060Y-127300828D01*
D10*
D11*
X139159774Y-125800828D02*
X138659774Y-127300828D01*
X138659774Y-127300828D02*
X138159774Y-125800828D01*
X136802632Y-127157971D02*
X136874060Y-127229400D01*
X136874060Y-127229400D02*
X137088346Y-127300828D01*
X137088346Y-127300828D02*
X137231203Y-127300828D01*
X137231203Y-127300828D02*
X137445489Y-127229400D01*
X137445489Y-127229400D02*
X137588346Y-127086542D01*
X137588346Y-127086542D02*
X137659775Y-126943685D01*
X137659775Y-126943685D02*
X137731203Y-126657971D01*
X137731203Y-126657971D02*
X137731203Y-126443685D01*
X137731203Y-126443685D02*
X137659775Y-126157971D01*
X137659775Y-126157971D02*
X137588346Y-126015114D01*
X137588346Y-126015114D02*
X137445489Y-125872257D01*
X137445489Y-125872257D02*
X137231203Y-125800828D01*
X137231203Y-125800828D02*
X137088346Y-125800828D01*
X137088346Y-125800828D02*
X136874060Y-125872257D01*
X136874060Y-125872257D02*
X136802632Y-125943685D01*
X135302632Y-127157971D02*
X135374060Y-127229400D01*
X135374060Y-127229400D02*
X135588346Y-127300828D01*
X135588346Y-127300828D02*
X135731203Y-127300828D01*
X135731203Y-127300828D02*
X135945489Y-127229400D01*
X135945489Y-127229400D02*
X136088346Y-127086542D01*
X136088346Y-127086542D02*
X136159775Y-126943685D01*
X136159775Y-126943685D02*
X136231203Y-126657971D01*
X136231203Y-126657971D02*
X136231203Y-126443685D01*
X136231203Y-126443685D02*
X136159775Y-126157971D01*
X136159775Y-126157971D02*
X136088346Y-126015114D01*
X136088346Y-126015114D02*
X135945489Y-125872257D01*
X135945489Y-125872257D02*
X135731203Y-125800828D01*
X135731203Y-125800828D02*
X135588346Y-125800828D01*
X135588346Y-125800828D02*
X135374060Y-125872257D01*
X135374060Y-125872257D02*
X135302632Y-125943685D01*
D10*
D11*
X146945489Y-114800828D02*
X146945489Y-113300828D01*
X146945489Y-113300828D02*
X146374060Y-113300828D01*
X146374060Y-113300828D02*
X146231203Y-113372257D01*
X146231203Y-113372257D02*
X146159774Y-113443685D01*
X146159774Y-113443685D02*
X146088346Y-113586542D01*
X146088346Y-113586542D02*
X146088346Y-113800828D01*
X146088346Y-113800828D02*
X146159774Y-113943685D01*
X146159774Y-113943685D02*
X146231203Y-114015114D01*
X146231203Y-114015114D02*
X146374060Y-114086542D01*
X146374060Y-114086542D02*
X146945489Y-114086542D01*
X145159774Y-113300828D02*
X144874060Y-113300828D01*
X144874060Y-113300828D02*
X144731203Y-113372257D01*
X144731203Y-113372257D02*
X144588346Y-113515114D01*
X144588346Y-113515114D02*
X144516917Y-113800828D01*
X144516917Y-113800828D02*
X144516917Y-114300828D01*
X144516917Y-114300828D02*
X144588346Y-114586542D01*
X144588346Y-114586542D02*
X144731203Y-114729400D01*
X144731203Y-114729400D02*
X144874060Y-114800828D01*
X144874060Y-114800828D02*
X145159774Y-114800828D01*
X145159774Y-114800828D02*
X145302632Y-114729400D01*
X145302632Y-114729400D02*
X145445489Y-114586542D01*
X145445489Y-114586542D02*
X145516917Y-114300828D01*
X145516917Y-114300828D02*
X145516917Y-113800828D01*
X145516917Y-113800828D02*
X145445489Y-113515114D01*
X145445489Y-113515114D02*
X145302632Y-113372257D01*
X145302632Y-113372257D02*
X145159774Y-113300828D01*
X143016917Y-114800828D02*
X143516917Y-114086542D01*
X143874060Y-114800828D02*
X143874060Y-113300828D01*
X143874060Y-113300828D02*
X143302631Y-113300828D01*
X143302631Y-113300828D02*
X143159774Y-113372257D01*
X143159774Y-113372257D02*
X143088345Y-113443685D01*
X143088345Y-113443685D02*
X143016917Y-113586542D01*
X143016917Y-113586542D02*
X143016917Y-113800828D01*
X143016917Y-113800828D02*
X143088345Y-113943685D01*
X143088345Y-113943685D02*
X143159774Y-114015114D01*
X143159774Y-114015114D02*
X143302631Y-114086542D01*
X143302631Y-114086542D02*
X143874060Y-114086542D01*
X142588345Y-113300828D02*
X141731203Y-113300828D01*
X142159774Y-114800828D02*
X142159774Y-113300828D01*
X141302631Y-114372257D02*
X140588346Y-114372257D01*
X141445488Y-114800828D02*
X140945488Y-113300828D01*
X140945488Y-113300828D02*
X140445488Y-114800828D01*
D10*
D11*
X122554510Y-79668457D02*
X122554510Y-77382742D01*
X122697368Y-79525600D02*
X122697368Y-77525600D01*
X122840225Y-79525600D02*
X122840225Y-77525600D01*
X122983082Y-79382742D02*
X122983082Y-77668457D01*
X123125939Y-79382742D02*
X123125939Y-77668457D01*
X123268796Y-79239885D02*
X123268796Y-77811314D01*
X123411653Y-79239885D02*
X123411653Y-77811314D01*
X123554510Y-79097028D02*
X123554510Y-77954171D01*
X123697368Y-78954171D02*
X123697368Y-78097028D01*
X123840225Y-78954171D02*
X123840225Y-78097028D01*
X123983082Y-78811314D02*
X123983082Y-78239885D01*
X124125939Y-78811314D02*
X124125939Y-78239885D01*
X124268796Y-78525600D02*
X124411653Y-78525600D01*
X124268796Y-78668457D02*
X124268796Y-78382742D01*
X122411653Y-79668457D02*
X124554510Y-78525600D01*
X124554510Y-78525600D02*
X122411653Y-77382742D01*
X124697368Y-78525600D02*
X122411653Y-77239885D01*
X122411653Y-77239885D02*
X122411653Y-79811314D01*
X122411653Y-79811314D02*
X124697368Y-78525600D01*
D10*
D11*
X108945489Y-111515114D02*
X108731203Y-111586542D01*
X108731203Y-111586542D02*
X108659774Y-111657971D01*
X108659774Y-111657971D02*
X108588346Y-111800828D01*
X108588346Y-111800828D02*
X108588346Y-112015114D01*
X108588346Y-112015114D02*
X108659774Y-112157971D01*
X108659774Y-112157971D02*
X108731203Y-112229400D01*
X108731203Y-112229400D02*
X108874060Y-112300828D01*
X108874060Y-112300828D02*
X109445489Y-112300828D01*
X109445489Y-112300828D02*
X109445489Y-110800828D01*
X109445489Y-110800828D02*
X108945489Y-110800828D01*
X108945489Y-110800828D02*
X108802632Y-110872257D01*
X108802632Y-110872257D02*
X108731203Y-110943685D01*
X108731203Y-110943685D02*
X108659774Y-111086542D01*
X108659774Y-111086542D02*
X108659774Y-111229400D01*
X108659774Y-111229400D02*
X108731203Y-111372257D01*
X108731203Y-111372257D02*
X108802632Y-111443685D01*
X108802632Y-111443685D02*
X108945489Y-111515114D01*
X108945489Y-111515114D02*
X109445489Y-111515114D01*
D12*
%TO.P,J6,1,Pin_1*%
%TO.N,VCC*%
X140500000Y-120500000D03*
D13*
%TO.P,J6,2,Pin_2*%
X140500000Y-123040000D03*
%TD*%
D12*
%TO.P,J4,1,Pin_1*%
%TO.N,/MOSI*%
X111500000Y-90960000D03*
D13*
%TO.P,J4,2,Pin_2*%
%TO.N,/MISO*%
X111500000Y-93500000D03*
%TO.P,J4,3,Pin_3*%
%TO.N,/SCK*%
X111500000Y-96040000D03*
%TO.P,J4,4,Pin_4*%
%TO.N,Net-(J4-Pin_4)*%
X111500000Y-98580000D03*
%TO.P,J4,5,Pin_5*%
%TO.N,Net-(J4-Pin_5)*%
X111500000Y-101120000D03*
%TO.P,J4,6,Pin_6*%
%TO.N,Net-(J4-Pin_6)*%
X111500000Y-103660000D03*
%TO.P,J4,7,Pin_7*%
%TO.N,Net-(J4-Pin_7)*%
X111500000Y-106200000D03*
%TO.P,J4,8,Pin_8*%
%TO.N,/{slash}RST*%
X111500000Y-108740000D03*
%TD*%
D12*
%TO.P,J2,1,Pin_1*%
%TO.N,GND*%
X128725000Y-126275000D03*
D13*
%TO.P,J2,2,Pin_2*%
X128725000Y-123735000D03*
%TO.P,J2,3,Pin_3*%
%TO.N,VCC*%
X131265000Y-126275000D03*
%TO.P,J2,4,Pin_4*%
X131265000Y-123735000D03*
%TD*%
D14*
%TO.P,Y1,1,1*%
%TO.N,Net-(J4-Pin_6)*%
X104500000Y-104950000D03*
%TO.P,Y1,2,2*%
%TO.N,Net-(J4-Pin_5)*%
X104500000Y-100050000D03*
%TD*%
D15*
%TO.P,C2,1*%
%TO.N,Net-(J4-Pin_6)*%
X104500000Y-110750000D03*
%TO.P,C2,2*%
%TO.N,GND*%
X104500000Y-113250000D03*
%TD*%
D16*
%TO.P,U1,1,PB0*%
%TO.N,/MOSI*%
X126482500Y-90905000D03*
D17*
%TO.P,U1,2,PB1*%
%TO.N,/MISO*%
X126482500Y-93445000D03*
%TO.P,U1,3,PB2*%
%TO.N,/SCK*%
X126482500Y-95985000D03*
%TO.P,U1,4,PB3*%
%TO.N,Net-(J4-Pin_4)*%
X126482500Y-98525000D03*
%TO.P,U1,5,VCC*%
%TO.N,VCC*%
X126482500Y-101065000D03*
%TO.P,U1,6,GND*%
%TO.N,GND*%
X126482500Y-103605000D03*
%TO.P,U1,7,XTAL1/PB4*%
%TO.N,Net-(J4-Pin_5)*%
X126482500Y-106145000D03*
%TO.P,U1,8,XTAL2/PB5*%
%TO.N,Net-(J4-Pin_6)*%
X126482500Y-108685000D03*
%TO.P,U1,9,PB6*%
%TO.N,Net-(J4-Pin_7)*%
X126482500Y-111225000D03*
%TO.P,U1,10,~{RESET}/PB7*%
%TO.N,/{slash}RST*%
X126482500Y-113765000D03*
%TO.P,U1,11,PA7*%
%TO.N,Net-(J3-Pin_8)*%
X134102500Y-113765000D03*
%TO.P,U1,12,PA6*%
%TO.N,Net-(J3-Pin_7)*%
X134102500Y-111225000D03*
%TO.P,U1,13,PA5*%
%TO.N,Net-(J3-Pin_6)*%
X134102500Y-108685000D03*
%TO.P,U1,14,PA4*%
%TO.N,Net-(J3-Pin_5)*%
X134102500Y-106145000D03*
%TO.P,U1,15,AVCC*%
%TO.N,VCC*%
X134102500Y-103605000D03*
%TO.P,U1,16,AGND*%
%TO.N,GND*%
X134102500Y-101065000D03*
%TO.P,U1,17,AREF/PA3*%
%TO.N,Net-(J3-Pin_4)*%
X134102500Y-98525000D03*
%TO.P,U1,18,PA2*%
%TO.N,Net-(J3-Pin_3)*%
X134102500Y-95985000D03*
%TO.P,U1,19,PA1*%
%TO.N,Net-(J3-Pin_2)*%
X134102500Y-93445000D03*
%TO.P,U1,20,PA0*%
%TO.N,Net-(J3-Pin_1)*%
X134102500Y-90905000D03*
%TD*%
D12*
%TO.P,J3,1,Pin_1*%
%TO.N,Net-(J3-Pin_1)*%
X143500000Y-91000000D03*
D13*
%TO.P,J3,2,Pin_2*%
%TO.N,Net-(J3-Pin_2)*%
X143500000Y-93540000D03*
%TO.P,J3,3,Pin_3*%
%TO.N,Net-(J3-Pin_3)*%
X143500000Y-96080000D03*
%TO.P,J3,4,Pin_4*%
%TO.N,Net-(J3-Pin_4)*%
X143500000Y-98620000D03*
%TO.P,J3,5,Pin_5*%
%TO.N,Net-(J3-Pin_5)*%
X143500000Y-101160000D03*
%TO.P,J3,6,Pin_6*%
%TO.N,Net-(J3-Pin_6)*%
X143500000Y-103700000D03*
%TO.P,J3,7,Pin_7*%
%TO.N,Net-(J3-Pin_7)*%
X143500000Y-106240000D03*
%TO.P,J3,8,Pin_8*%
%TO.N,Net-(J3-Pin_8)*%
X143500000Y-108780000D03*
%TD*%
D12*
%TO.P,J5,1,Pin_1*%
%TO.N,GND*%
X114000000Y-119460000D03*
D13*
%TO.P,J5,2,Pin_2*%
X114000000Y-122000000D03*
%TD*%
D15*
%TO.P,C1,1*%
%TO.N,Net-(J4-Pin_5)*%
X104500000Y-93750000D03*
%TO.P,C1,2*%
%TO.N,GND*%
X104500000Y-91250000D03*
%TD*%
D18*
%TO.P,J1,1,MISO*%
%TO.N,/MISO*%
X126920000Y-78500000D03*
D19*
%TO.P,J1,2,VCC*%
%TO.N,VCC*%
X126920000Y-75960000D03*
%TO.P,J1,3,SCK*%
%TO.N,/SCK*%
X129460000Y-78500000D03*
%TO.P,J1,4,MOSI*%
%TO.N,/MOSI*%
X129460000Y-75960000D03*
%TO.P,J1,5,~{RST}*%
%TO.N,/{slash}RST*%
X132000000Y-78500000D03*
%TO.P,J1,6,GND*%
%TO.N,GND*%
X132000000Y-75960000D03*
%TD*%
D20*
%TO.N,/MOSI*%
X138000000Y-87000000D03*
X124000000Y-87500000D03*
%TO.N,VCC*%
X137500000Y-101000000D03*
X115500000Y-76000000D03*
X120000000Y-103500000D03*
X138000000Y-116115000D03*
X123000000Y-103500000D03*
X131075000Y-120000000D03*
%TO.N,/{slash}RST*%
X108500000Y-108500000D03*
X119000000Y-84000000D03*
X108500000Y-95500000D03*
X132000000Y-83150000D03*
%TD*%
D21*
%TO.N,GND*%
X137460000Y-75960000D02*
X132000000Y-75960000D01*
X128725000Y-123735000D02*
X128725000Y-126275000D01*
X123775000Y-126275000D02*
X128725000Y-126275000D01*
X128725000Y-104275000D02*
X128725000Y-123735000D01*
X131500000Y-101500000D02*
X132500000Y-101500000D01*
X101500000Y-112000000D02*
X102750000Y-113250000D01*
X126482500Y-103605000D02*
X129395000Y-103605000D01*
X138500000Y-77000000D02*
X137460000Y-75960000D01*
X102750000Y-113250000D02*
X104500000Y-113250000D01*
X114040000Y-119460000D02*
X115500000Y-118000000D01*
X132935000Y-101065000D02*
X134102500Y-101065000D01*
X114000000Y-119460000D02*
X114040000Y-119460000D01*
X132500000Y-101500000D02*
X132935000Y-101065000D01*
X112865000Y-115365000D02*
X115500000Y-118000000D01*
X104500000Y-91250000D02*
X103368630Y-91250000D01*
X114000000Y-122000000D02*
X114000000Y-119460000D01*
X129395000Y-103605000D02*
X128725000Y-104275000D01*
X104500000Y-113250000D02*
X106615000Y-115365000D01*
X132000000Y-101000000D02*
X132000000Y-88057752D01*
X115500000Y-118000000D02*
X123775000Y-126275000D01*
X106615000Y-115365000D02*
X112865000Y-115365000D01*
X103368630Y-91250000D02*
X101500000Y-93118630D01*
X131500000Y-101500000D02*
X132000000Y-101000000D01*
X138500000Y-81557752D02*
X138500000Y-77000000D01*
X132000000Y-88057752D02*
X138500000Y-81557752D01*
X101500000Y-93118630D02*
X101500000Y-112000000D01*
X129395000Y-103605000D02*
X131500000Y-101500000D01*
%TO.N,Net-(J4-Pin_5)*%
X117645000Y-106145000D02*
X126482500Y-106145000D01*
X112620000Y-101120000D02*
X117645000Y-106145000D01*
X104500000Y-100050000D02*
X105570000Y-101120000D01*
X105570000Y-101120000D02*
X111500000Y-101120000D01*
X111500000Y-101120000D02*
X112620000Y-101120000D01*
X104500000Y-100050000D02*
X104500000Y-93750000D01*
%TO.N,Net-(J4-Pin_6)*%
X104500000Y-104950000D02*
X105790000Y-103660000D01*
X117000000Y-108500000D02*
X117185000Y-108685000D01*
X105790000Y-103660000D02*
X111500000Y-103660000D01*
X104500000Y-110750000D02*
X104500000Y-104950000D01*
X116557717Y-108500000D02*
X117000000Y-108500000D01*
X111717717Y-103660000D02*
X116557717Y-108500000D01*
X111500000Y-103660000D02*
X111717717Y-103660000D01*
X117185000Y-108685000D02*
X126482500Y-108685000D01*
%TO.N,/MISO*%
X111555000Y-93445000D02*
X111500000Y-93500000D01*
X126482500Y-93445000D02*
X111555000Y-93445000D01*
X127742500Y-93445000D02*
X128800000Y-92387500D01*
X126920000Y-85420000D02*
X126920000Y-78500000D01*
X128800000Y-92387500D02*
X128800000Y-87300000D01*
X126482500Y-93445000D02*
X127742500Y-93445000D01*
X128800000Y-87300000D02*
X126920000Y-85420000D01*
%TO.N,/MOSI*%
X126427500Y-90960000D02*
X126482500Y-90905000D01*
X138000000Y-87000000D02*
X140100000Y-84900000D01*
X111500000Y-90960000D02*
X126427500Y-90960000D01*
X126482500Y-90905000D02*
X126482500Y-89982500D01*
X130990000Y-74010000D02*
X129460000Y-75540000D01*
X140100000Y-84900000D02*
X140100000Y-76337258D01*
X137772742Y-74010000D02*
X130990000Y-74010000D01*
X126482500Y-89982500D02*
X124000000Y-87500000D01*
X129460000Y-75540000D02*
X129460000Y-75960000D01*
X140100000Y-76337258D02*
X137772742Y-74010000D01*
%TO.N,VCC*%
X138000000Y-116115000D02*
X138000000Y-120500000D01*
X131265000Y-126275000D02*
X131265000Y-123735000D01*
X120000000Y-103500000D02*
X123000000Y-103500000D01*
X131075000Y-120000000D02*
X131075000Y-123545000D01*
X131075000Y-123545000D02*
X131265000Y-123735000D01*
X134895000Y-103605000D02*
X134102500Y-103605000D01*
X137500000Y-101000000D02*
X134895000Y-103605000D01*
X138000000Y-124544103D02*
X132995897Y-124544103D01*
X132995897Y-124544103D02*
X131265000Y-126275000D01*
X140500000Y-120500000D02*
X138000000Y-120500000D01*
X140500000Y-123040000D02*
X140500000Y-120500000D01*
X126482500Y-101065000D02*
X125435000Y-101065000D01*
X115540000Y-75960000D02*
X126920000Y-75960000D01*
X115500000Y-76000000D02*
X115540000Y-75960000D01*
X125435000Y-101065000D02*
X123000000Y-103500000D01*
X138000000Y-120500000D02*
X138000000Y-124544103D01*
%TO.N,/{slash}RST*%
X114765000Y-113765000D02*
X126482500Y-113765000D01*
X119000000Y-84000000D02*
X114560000Y-84000000D01*
X108500000Y-108500000D02*
X111260000Y-108500000D01*
X108500000Y-90060000D02*
X108500000Y-95500000D01*
X111500000Y-108740000D02*
X111500000Y-110500000D01*
X114560000Y-84000000D02*
X108500000Y-90060000D01*
X111500000Y-110500000D02*
X114765000Y-113765000D01*
X132000000Y-78500000D02*
X132000000Y-83150000D01*
X111260000Y-108500000D02*
X111500000Y-108740000D01*
%TO.N,/SCK*%
X130500000Y-86500000D02*
X129460000Y-85460000D01*
X130400000Y-93600000D02*
X130400000Y-86600000D01*
X128015000Y-95985000D02*
X130400000Y-93600000D01*
X126482500Y-95985000D02*
X128015000Y-95985000D01*
X130400000Y-86600000D02*
X130500000Y-86500000D01*
X126427500Y-96040000D02*
X126482500Y-95985000D01*
X129460000Y-85460000D02*
X129460000Y-78500000D01*
X111500000Y-96040000D02*
X126427500Y-96040000D01*
%TO.N,Net-(J3-Pin_8)*%
X134102500Y-113765000D02*
X138515000Y-113765000D01*
X138515000Y-113765000D02*
X143500000Y-108780000D01*
X143500000Y-108780000D02*
X143720000Y-109000000D01*
%TO.N,Net-(J3-Pin_6)*%
X141287258Y-103700000D02*
X143500000Y-103700000D01*
X134102500Y-108685000D02*
X136302258Y-108685000D01*
X136302258Y-108685000D02*
X141287258Y-103700000D01*
%TO.N,Net-(J3-Pin_7)*%
X134102500Y-111225000D02*
X137275000Y-111225000D01*
X142260000Y-106240000D02*
X143500000Y-106240000D01*
X137275000Y-111225000D02*
X142260000Y-106240000D01*
%TO.N,Net-(J3-Pin_5)*%
X140840000Y-101160000D02*
X143500000Y-101160000D01*
X134102500Y-106145000D02*
X135855000Y-106145000D01*
X135855000Y-106145000D02*
X140840000Y-101160000D01*
%TO.N,Net-(J3-Pin_4)*%
X134197500Y-98620000D02*
X134102500Y-98525000D01*
X143405000Y-98525000D02*
X143500000Y-98620000D01*
X134102500Y-98525000D02*
X143405000Y-98525000D01*
%TO.N,Net-(J4-Pin_4)*%
X126482500Y-98525000D02*
X111555000Y-98525000D01*
X111555000Y-98525000D02*
X111500000Y-98580000D01*
%TO.N,Net-(J4-Pin_7)*%
X111500000Y-106200000D02*
X111717717Y-106200000D01*
X116742717Y-111225000D02*
X126482500Y-111225000D01*
X111717717Y-106200000D02*
X116742717Y-111225000D01*
%TO.N,Net-(J3-Pin_2)*%
X143405000Y-93445000D02*
X143500000Y-93540000D01*
X134197500Y-93540000D02*
X134102500Y-93445000D01*
X134102500Y-93445000D02*
X143405000Y-93445000D01*
X133955494Y-93445000D02*
X134102500Y-93445000D01*
%TO.N,Net-(J3-Pin_3)*%
X134102500Y-95985000D02*
X143405000Y-95985000D01*
X143405000Y-95985000D02*
X143500000Y-96080000D01*
%TO.N,Net-(J3-Pin_1)*%
X143500000Y-91000000D02*
X139190000Y-91000000D01*
X139095000Y-90905000D02*
X134102500Y-90905000D01*
X139190000Y-91000000D02*
X139095000Y-90905000D01*
%TD*%
%TA.AperFunction,NonConductor*%
G36*
X136641085Y-77480713D02*
G01*
X136770280Y-77539714D01*
X136877619Y-77632724D01*
X136954406Y-77752208D01*
X136994421Y-77888485D01*
X136999500Y-77959500D01*
X136999500Y-80729532D01*
X136979287Y-80870117D01*
X136920286Y-80999312D01*
X136853346Y-81082378D01*
X135036203Y-82899520D01*
X134922502Y-82984636D01*
X134789427Y-83034270D01*
X134647759Y-83044403D01*
X134508974Y-83014212D01*
X134384317Y-82946144D01*
X134283887Y-82845713D01*
X134215819Y-82721056D01*
X134193945Y-82644022D01*
X134190568Y-82627043D01*
X134178481Y-82566278D01*
X134083652Y-82286923D01*
X133953172Y-82022336D01*
X133789273Y-81777043D01*
X133624332Y-81588964D01*
X133546836Y-81469941D01*
X133506011Y-81333905D01*
X133500500Y-81259951D01*
X133500500Y-79740650D01*
X133520713Y-79600065D01*
X133561539Y-79501503D01*
X133687574Y-79270689D01*
X133687575Y-79270686D01*
X133780077Y-79022678D01*
X133836343Y-78764026D01*
X133855227Y-78500000D01*
X133836343Y-78235974D01*
X133799273Y-78065568D01*
X133789141Y-77923903D01*
X133819332Y-77785119D01*
X133887399Y-77660461D01*
X133987829Y-77560031D01*
X134112486Y-77491963D01*
X134251271Y-77461771D01*
X134286870Y-77460500D01*
X136500500Y-77460500D01*
X136641085Y-77480713D01*
G37*
%TD.AperFunction*%
%TA.AperFunction,NonConductor*%
G36*
X135485302Y-87107013D02*
G01*
X135609959Y-87175081D01*
X135710389Y-87275511D01*
X135778457Y-87400168D01*
X135800331Y-87477201D01*
X135821518Y-87583720D01*
X135821520Y-87583725D01*
X135916348Y-87863079D01*
X136046824Y-88127659D01*
X136046827Y-88127665D01*
X136210724Y-88372953D01*
X136210727Y-88372957D01*
X136389218Y-88576487D01*
X136466715Y-88695511D01*
X136507540Y-88831548D01*
X136508385Y-88973575D01*
X136469182Y-89110088D01*
X136393107Y-89230026D01*
X136286323Y-89323673D01*
X136157481Y-89383442D01*
X136017019Y-89404491D01*
X136014050Y-89404500D01*
X135248362Y-89404500D01*
X135107777Y-89384287D01*
X135022835Y-89347913D01*
X135022096Y-89349450D01*
X135005276Y-89341350D01*
X135005275Y-89341349D01*
X134864541Y-89273575D01*
X134762149Y-89224265D01*
X134762146Y-89224264D01*
X134762143Y-89224263D01*
X134762141Y-89224262D01*
X134504272Y-89144720D01*
X134504270Y-89144719D01*
X134504268Y-89144719D01*
X134400157Y-89129027D01*
X134237429Y-89104500D01*
X134237425Y-89104500D01*
X134218967Y-89101718D01*
X134219232Y-89099953D01*
X134102319Y-89074100D01*
X133977897Y-89005605D01*
X133877812Y-88904830D01*
X133810172Y-88779940D01*
X133780458Y-88641053D01*
X133791077Y-88499420D01*
X133841168Y-88366516D01*
X133925457Y-88254321D01*
X134958074Y-87221703D01*
X135071774Y-87136589D01*
X135204849Y-87086955D01*
X135346517Y-87076822D01*
X135485302Y-87107013D01*
G37*
%TD.AperFunction*%
%TA.AperFunction,NonConductor*%
G36*
X148141085Y-70520713D02*
G01*
X148270280Y-70579714D01*
X148377619Y-70672724D01*
X148454406Y-70792208D01*
X148494421Y-70928485D01*
X148499500Y-70999500D01*
X148499500Y-96076703D01*
X148479287Y-96217288D01*
X148420286Y-96346483D01*
X148327276Y-96453822D01*
X148207792Y-96530609D01*
X148071515Y-96570624D01*
X148000500Y-96575703D01*
X145854227Y-96575703D01*
X145713642Y-96555490D01*
X145584447Y-96496489D01*
X145477108Y-96403479D01*
X145400321Y-96283995D01*
X145360306Y-96147718D01*
X145356733Y-96097760D01*
X145356498Y-96097777D01*
X145355226Y-96080003D01*
X145355227Y-96080000D01*
X145336343Y-95815974D01*
X145280077Y-95557322D01*
X145187574Y-95309311D01*
X145187574Y-95309310D01*
X145052175Y-95061348D01*
X145053710Y-95060509D01*
X145003514Y-94950609D01*
X144983294Y-94810026D01*
X145003500Y-94669440D01*
X145053706Y-94559488D01*
X145052175Y-94558652D01*
X145187574Y-94310689D01*
X145187575Y-94310686D01*
X145280077Y-94062678D01*
X145336343Y-93804026D01*
X145355227Y-93540000D01*
X145336343Y-93275974D01*
X145280077Y-93017322D01*
X145267854Y-92984552D01*
X145186541Y-92766539D01*
X145156350Y-92627755D01*
X145166483Y-92486087D01*
X145211785Y-92361123D01*
X145226895Y-92332196D01*
X145283909Y-92223049D01*
X145339886Y-92027418D01*
X145350500Y-91908037D01*
X145350499Y-90091964D01*
X145339886Y-89972582D01*
X145283909Y-89776951D01*
X145189698Y-89596593D01*
X145167415Y-89569265D01*
X145061110Y-89438891D01*
X145061108Y-89438889D01*
X144903410Y-89310304D01*
X144903407Y-89310302D01*
X144723057Y-89216095D01*
X144723054Y-89216093D01*
X144723049Y-89216091D01*
X144694045Y-89207792D01*
X144527418Y-89160114D01*
X144408037Y-89149500D01*
X144408029Y-89149500D01*
X142591969Y-89149500D01*
X142472582Y-89160114D01*
X142276953Y-89216090D01*
X142276942Y-89216095D01*
X142096594Y-89310301D01*
X142002243Y-89387234D01*
X141880514Y-89460409D01*
X141743100Y-89496326D01*
X141686905Y-89499500D01*
X139888909Y-89499500D01*
X139748324Y-89479287D01*
X139619129Y-89420286D01*
X139511790Y-89327276D01*
X139435003Y-89207792D01*
X139394988Y-89071515D01*
X139394988Y-88929485D01*
X139435003Y-88793208D01*
X139511790Y-88673724D01*
X139559896Y-88625332D01*
X139594758Y-88594758D01*
X139610781Y-88576487D01*
X139789273Y-88372957D01*
X139953172Y-88127665D01*
X140083652Y-87863077D01*
X140178481Y-87583722D01*
X140236034Y-87294380D01*
X140252395Y-87044749D01*
X140281760Y-86905793D01*
X140349085Y-86780733D01*
X140397481Y-86724545D01*
X140705748Y-86416278D01*
X141244517Y-85877510D01*
X141383343Y-85686434D01*
X141490568Y-85475993D01*
X141529724Y-85355483D01*
X141563553Y-85251368D01*
X141600500Y-85018092D01*
X141600500Y-76219166D01*
X141563553Y-75985890D01*
X141490568Y-75761266D01*
X141383343Y-75550825D01*
X141346053Y-75499500D01*
X141346052Y-75499498D01*
X141346052Y-75499497D01*
X141244517Y-75359747D01*
X141244512Y-75359741D01*
X138750253Y-72865484D01*
X138750252Y-72865483D01*
X138559176Y-72726657D01*
X138559175Y-72726656D01*
X138559173Y-72726655D01*
X138559166Y-72726651D01*
X138348739Y-72619434D01*
X138348721Y-72619427D01*
X138124115Y-72546448D01*
X138124109Y-72546446D01*
X137890834Y-72509500D01*
X131108092Y-72509500D01*
X130871908Y-72509500D01*
X130638632Y-72546446D01*
X130638626Y-72546448D01*
X130414020Y-72619427D01*
X130414008Y-72619432D01*
X130203566Y-72726656D01*
X130012489Y-72865481D01*
X130012486Y-72865484D01*
X128555520Y-74322451D01*
X128469974Y-74386557D01*
X128471967Y-74389658D01*
X128459767Y-74397498D01*
X128448526Y-74402630D01*
X128442267Y-74407322D01*
X128441792Y-74407582D01*
X128440970Y-74406081D01*
X128330571Y-74456496D01*
X128189986Y-74476705D01*
X128049402Y-74456488D01*
X127939490Y-74406289D01*
X127938652Y-74407825D01*
X127921503Y-74398461D01*
X127782303Y-74322451D01*
X127690689Y-74272425D01*
X127690686Y-74272424D01*
X127442678Y-74179923D01*
X127442675Y-74179922D01*
X127184033Y-74123658D01*
X127184034Y-74123658D01*
X127184028Y-74123657D01*
X127184026Y-74123657D01*
X126920000Y-74104773D01*
X126655974Y-74123657D01*
X126655971Y-74123657D01*
X126655965Y-74123658D01*
X126397324Y-74179922D01*
X126397321Y-74179923D01*
X126149313Y-74272424D01*
X126149310Y-74272425D01*
X125969100Y-74370829D01*
X125918494Y-74398461D01*
X125785422Y-74448096D01*
X125679350Y-74459500D01*
X117344438Y-74459500D01*
X117203853Y-74439287D01*
X117074658Y-74380286D01*
X117015425Y-74335668D01*
X116872957Y-74210727D01*
X116872953Y-74210724D01*
X116627665Y-74046827D01*
X116627659Y-74046824D01*
X116363079Y-73916348D01*
X116083725Y-73821520D01*
X116083724Y-73821519D01*
X116083722Y-73821519D01*
X116083717Y-73821518D01*
X115794387Y-73763967D01*
X115794385Y-73763966D01*
X115500000Y-73744671D01*
X115205614Y-73763966D01*
X115205612Y-73763967D01*
X114916282Y-73821518D01*
X114916274Y-73821520D01*
X114636925Y-73916346D01*
X114636922Y-73916348D01*
X114372334Y-74046829D01*
X114127042Y-74210727D01*
X113905241Y-74405241D01*
X113710727Y-74627042D01*
X113546829Y-74872334D01*
X113416348Y-75136922D01*
X113416346Y-75136925D01*
X113321520Y-75416274D01*
X113321518Y-75416282D01*
X113263967Y-75705612D01*
X113263966Y-75705614D01*
X113244671Y-76000000D01*
X113263966Y-76294385D01*
X113263967Y-76294387D01*
X113321518Y-76583717D01*
X113321520Y-76583725D01*
X113416348Y-76863079D01*
X113546824Y-77127659D01*
X113546827Y-77127665D01*
X113710724Y-77372953D01*
X113710727Y-77372957D01*
X113905241Y-77594758D01*
X114127042Y-77789272D01*
X114127046Y-77789275D01*
X114372334Y-77953172D01*
X114372340Y-77953175D01*
X114636920Y-78083651D01*
X114636923Y-78083652D01*
X114916278Y-78178481D01*
X115205613Y-78236032D01*
X115205614Y-78236033D01*
X115205615Y-78236033D01*
X115205620Y-78236034D01*
X115500000Y-78255329D01*
X115794380Y-78236034D01*
X116083722Y-78178481D01*
X116363077Y-78083652D01*
X116627665Y-77953172D01*
X116872957Y-77789273D01*
X117094758Y-77594758D01*
X117094759Y-77594755D01*
X117106646Y-77584332D01*
X117225671Y-77506835D01*
X117361707Y-77466010D01*
X117435660Y-77460500D01*
X120754699Y-77460500D01*
X120895284Y-77480713D01*
X121024479Y-77539714D01*
X121131818Y-77632724D01*
X121208605Y-77752208D01*
X121248620Y-77888485D01*
X121253699Y-77959500D01*
X121253699Y-80969268D01*
X124920500Y-80969268D01*
X125061085Y-80989481D01*
X125190280Y-81048482D01*
X125297619Y-81141492D01*
X125374406Y-81260976D01*
X125414421Y-81397253D01*
X125419500Y-81468268D01*
X125419500Y-84908874D01*
X125399287Y-85049459D01*
X125340286Y-85178654D01*
X125247276Y-85285993D01*
X125127792Y-85362780D01*
X124991515Y-85402795D01*
X124849485Y-85402795D01*
X124760101Y-85381392D01*
X124583725Y-85321520D01*
X124583724Y-85321519D01*
X124583722Y-85321519D01*
X124485130Y-85301908D01*
X124294387Y-85263967D01*
X124294385Y-85263966D01*
X124000000Y-85244671D01*
X123705614Y-85263966D01*
X123705612Y-85263967D01*
X123416282Y-85321518D01*
X123416274Y-85321520D01*
X123136925Y-85416346D01*
X123136922Y-85416348D01*
X122872334Y-85546829D01*
X122627042Y-85710727D01*
X122405241Y-85905241D01*
X122210727Y-86127042D01*
X122046829Y-86372334D01*
X121916348Y-86636922D01*
X121916346Y-86636925D01*
X121821520Y-86916274D01*
X121821518Y-86916282D01*
X121763967Y-87205612D01*
X121763966Y-87205614D01*
X121744671Y-87500000D01*
X121763966Y-87794385D01*
X121763967Y-87794387D01*
X121821518Y-88083717D01*
X121821520Y-88083725D01*
X121916348Y-88363079D01*
X122046824Y-88627659D01*
X122046827Y-88627665D01*
X122083982Y-88683270D01*
X122145280Y-88811392D01*
X122168000Y-88951593D01*
X122150299Y-89092516D01*
X122093613Y-89222744D01*
X122002534Y-89331726D01*
X121884440Y-89410634D01*
X121748899Y-89453075D01*
X121669079Y-89459500D01*
X113313095Y-89459500D01*
X113172510Y-89439287D01*
X113043315Y-89380286D01*
X112997757Y-89347234D01*
X112968861Y-89323673D01*
X112903407Y-89270302D01*
X112837804Y-89236034D01*
X112723057Y-89176095D01*
X112723054Y-89176093D01*
X112723049Y-89176091D01*
X112591687Y-89138503D01*
X112462088Y-89080396D01*
X112354109Y-88988130D01*
X112276498Y-88869180D01*
X112235543Y-88733183D01*
X112234561Y-88591156D01*
X112273633Y-88454606D01*
X112349593Y-88334595D01*
X112376115Y-88305911D01*
X113387640Y-87294387D01*
X115035373Y-85646654D01*
X115149074Y-85561538D01*
X115282149Y-85511904D01*
X115388219Y-85500500D01*
X117109951Y-85500500D01*
X117250536Y-85520713D01*
X117379731Y-85579714D01*
X117438961Y-85624329D01*
X117626684Y-85788958D01*
X117627048Y-85789277D01*
X117872334Y-85953172D01*
X117872340Y-85953175D01*
X118136920Y-86083651D01*
X118136923Y-86083652D01*
X118416278Y-86178481D01*
X118705613Y-86236032D01*
X118705614Y-86236033D01*
X118705615Y-86236033D01*
X118705620Y-86236034D01*
X119000000Y-86255329D01*
X119294380Y-86236034D01*
X119583722Y-86178481D01*
X119863077Y-86083652D01*
X119929224Y-86051032D01*
X120127659Y-85953175D01*
X120127665Y-85953172D01*
X120199397Y-85905242D01*
X120372957Y-85789273D01*
X120594758Y-85594758D01*
X120789273Y-85372957D01*
X120953172Y-85127665D01*
X121083652Y-84863077D01*
X121178481Y-84583722D01*
X121236034Y-84294380D01*
X121255329Y-84000000D01*
X121236034Y-83705620D01*
X121178481Y-83416278D01*
X121083652Y-83136923D01*
X120953172Y-82872336D01*
X120789273Y-82627043D01*
X120594758Y-82405242D01*
X120594755Y-82405240D01*
X120594754Y-82405238D01*
X120372957Y-82210727D01*
X120372953Y-82210724D01*
X120127665Y-82046827D01*
X120127659Y-82046824D01*
X119863079Y-81916348D01*
X119583725Y-81821520D01*
X119583724Y-81821519D01*
X119583722Y-81821519D01*
X119583717Y-81821518D01*
X119294387Y-81763967D01*
X119294385Y-81763966D01*
X119000000Y-81744671D01*
X118705614Y-81763966D01*
X118705612Y-81763967D01*
X118416282Y-81821518D01*
X118416274Y-81821520D01*
X118136925Y-81916346D01*
X118136922Y-81916348D01*
X117872334Y-82046829D01*
X117627042Y-82210727D01*
X117438966Y-82375667D01*
X117319941Y-82453164D01*
X117183905Y-82493989D01*
X117109951Y-82499500D01*
X114441907Y-82499500D01*
X114208626Y-82536447D01*
X113984009Y-82609431D01*
X113984003Y-82609434D01*
X113773575Y-82716651D01*
X113773568Y-82716655D01*
X113582490Y-82855483D01*
X113582488Y-82855484D01*
X107355484Y-89082488D01*
X107355483Y-89082490D01*
X107216655Y-89273568D01*
X107216651Y-89273575D01*
X107182120Y-89341348D01*
X107182120Y-89341349D01*
X107109432Y-89484007D01*
X107109427Y-89484020D01*
X107036448Y-89708626D01*
X107036446Y-89708632D01*
X106999500Y-89941907D01*
X106999500Y-90115966D01*
X106979287Y-90256551D01*
X106920286Y-90385746D01*
X106827276Y-90493085D01*
X106707792Y-90569872D01*
X106571515Y-90609887D01*
X106429485Y-90609887D01*
X106293208Y-90569872D01*
X106173724Y-90493085D01*
X106080714Y-90385746D01*
X106068353Y-90365465D01*
X105991822Y-90232910D01*
X105991821Y-90232909D01*
X105991815Y-90232898D01*
X105991808Y-90232889D01*
X105823563Y-90021917D01*
X105770392Y-89972582D01*
X105625741Y-89838365D01*
X105402775Y-89686349D01*
X105319428Y-89646211D01*
X105159649Y-89569265D01*
X105159646Y-89569264D01*
X105159643Y-89569263D01*
X105159641Y-89569262D01*
X104901772Y-89489720D01*
X104901770Y-89489719D01*
X104901768Y-89489719D01*
X104795805Y-89473748D01*
X104634929Y-89449500D01*
X104365071Y-89449500D01*
X104241458Y-89468131D01*
X104098230Y-89489719D01*
X103938104Y-89539111D01*
X103840359Y-89569262D01*
X103840355Y-89569263D01*
X103840349Y-89569266D01*
X103580404Y-89694450D01*
X103579394Y-89692353D01*
X103471775Y-89735436D01*
X103354139Y-89749500D01*
X103250538Y-89749500D01*
X103017262Y-89786446D01*
X103017256Y-89786448D01*
X102792650Y-89859427D01*
X102792633Y-89859434D01*
X102582201Y-89966654D01*
X102582189Y-89966662D01*
X102391121Y-90105481D01*
X102391114Y-90105487D01*
X100852346Y-91644256D01*
X100738645Y-91729372D01*
X100605570Y-91779006D01*
X100463902Y-91789139D01*
X100325117Y-91758948D01*
X100200460Y-91690880D01*
X100100030Y-91590450D01*
X100031962Y-91465793D01*
X100001771Y-91327008D01*
X100000500Y-91291410D01*
X100000500Y-70999500D01*
X100020713Y-70858915D01*
X100079714Y-70729720D01*
X100172724Y-70622381D01*
X100292208Y-70545594D01*
X100428485Y-70505579D01*
X100499500Y-70500500D01*
X148000500Y-70500500D01*
X148141085Y-70520713D01*
G37*
%TD.AperFunction*%
%TA.AperFunction,NonConductor*%
G36*
X106706792Y-96935002D02*
G01*
X106826276Y-97011789D01*
X106874667Y-97059894D01*
X106890059Y-97077445D01*
X106905244Y-97094761D01*
X107127042Y-97289272D01*
X107127046Y-97289275D01*
X107372334Y-97453172D01*
X107372340Y-97453175D01*
X107636920Y-97583651D01*
X107636923Y-97583652D01*
X107916278Y-97678481D01*
X108205613Y-97736032D01*
X108205614Y-97736033D01*
X108205615Y-97736033D01*
X108205620Y-97736034D01*
X108500000Y-97755329D01*
X108794380Y-97736034D01*
X109083722Y-97678481D01*
X109083728Y-97678478D01*
X109088036Y-97677622D01*
X109229862Y-97670020D01*
X109368086Y-97702683D01*
X109491508Y-97772965D01*
X109590130Y-97875172D01*
X109655962Y-98001024D01*
X109683671Y-98140325D01*
X109672983Y-98273103D01*
X109663657Y-98315970D01*
X109663657Y-98315974D01*
X109644773Y-98580000D01*
X109663657Y-98844026D01*
X109663657Y-98844029D01*
X109663658Y-98844032D01*
X109700726Y-99014429D01*
X109710859Y-99156097D01*
X109680668Y-99294881D01*
X109612601Y-99419539D01*
X109512171Y-99519969D01*
X109387514Y-99588037D01*
X109248729Y-99618229D01*
X109213130Y-99619500D01*
X106551745Y-99619500D01*
X106411160Y-99599287D01*
X106281965Y-99540286D01*
X106174626Y-99447276D01*
X106097839Y-99327792D01*
X106087239Y-99302806D01*
X106081570Y-99288362D01*
X106081566Y-99288353D01*
X106067350Y-99263730D01*
X106014565Y-99131874D01*
X106000500Y-99014236D01*
X106000500Y-97388908D01*
X106020713Y-97248323D01*
X106079714Y-97119128D01*
X106172724Y-97011789D01*
X106292208Y-96935002D01*
X106428485Y-96894987D01*
X106570515Y-96894987D01*
X106706792Y-96935002D01*
G37*
%TD.AperFunction*%
%TA.AperFunction,NonConductor*%
G36*
X130174883Y-96359681D02*
G01*
X130299540Y-96427749D01*
X130399970Y-96528179D01*
X130468038Y-96652836D01*
X130498229Y-96791621D01*
X130499500Y-96827219D01*
X130499500Y-100171780D01*
X130479287Y-100312365D01*
X130420286Y-100441560D01*
X130353346Y-100524626D01*
X129113712Y-101764260D01*
X129000011Y-101849376D01*
X128866936Y-101899010D01*
X128725268Y-101909143D01*
X128586483Y-101878952D01*
X128461826Y-101810884D01*
X128361396Y-101710454D01*
X128293328Y-101585797D01*
X128263137Y-101447012D01*
X128266825Y-101352747D01*
X128266487Y-101352722D01*
X128267197Y-101343246D01*
X128267440Y-101337038D01*
X128267880Y-101334113D01*
X128267883Y-101334103D01*
X128288049Y-101065000D01*
X128267883Y-100795897D01*
X128207834Y-100532805D01*
X128136133Y-100350117D01*
X128109244Y-100281604D01*
X128109243Y-100281602D01*
X127972352Y-100044498D01*
X127919566Y-99912642D01*
X127906065Y-99771255D01*
X127932945Y-99631791D01*
X127972352Y-99545502D01*
X128084826Y-99350689D01*
X128109243Y-99308398D01*
X128207834Y-99057195D01*
X128267883Y-98794103D01*
X128288049Y-98525000D01*
X128267883Y-98255897D01*
X128207834Y-97992805D01*
X128207831Y-97992799D01*
X128204626Y-97978754D01*
X128193049Y-97837197D01*
X128221822Y-97698112D01*
X128288615Y-97572767D01*
X128388015Y-97471317D01*
X128511971Y-97401981D01*
X128536906Y-97393141D01*
X128590992Y-97375568D01*
X128801434Y-97268343D01*
X128992510Y-97129517D01*
X129647654Y-96474373D01*
X129761355Y-96389257D01*
X129894430Y-96339623D01*
X130036098Y-96329490D01*
X130174883Y-96359681D01*
G37*
%TD.AperFunction*%
%TA.AperFunction,NonConductor*%
G36*
X123288365Y-100045713D02*
G01*
X123417560Y-100104714D01*
X123524899Y-100197724D01*
X123601686Y-100317208D01*
X123641701Y-100453485D01*
X123641701Y-100595515D01*
X123601686Y-100731792D01*
X123524899Y-100851276D01*
X123500635Y-100877336D01*
X123339115Y-101038857D01*
X123275453Y-101102519D01*
X123161751Y-101187634D01*
X123028676Y-101237269D01*
X122955246Y-101247603D01*
X122705628Y-101263965D01*
X122705612Y-101263967D01*
X122416282Y-101321518D01*
X122416274Y-101321520D01*
X122136925Y-101416346D01*
X122136922Y-101416348D01*
X121872336Y-101546828D01*
X121777228Y-101610377D01*
X121649106Y-101671674D01*
X121508905Y-101694393D01*
X121367982Y-101676691D01*
X121237754Y-101620005D01*
X121222770Y-101610375D01*
X121127665Y-101546827D01*
X121127659Y-101546824D01*
X120863079Y-101416348D01*
X120583725Y-101321520D01*
X120583724Y-101321519D01*
X120583722Y-101321519D01*
X120583717Y-101321518D01*
X120294387Y-101263967D01*
X120294385Y-101263966D01*
X120000000Y-101244671D01*
X119705614Y-101263966D01*
X119705612Y-101263967D01*
X119416282Y-101321518D01*
X119416274Y-101321520D01*
X119136925Y-101416346D01*
X119136922Y-101416348D01*
X118872334Y-101546829D01*
X118627042Y-101710727D01*
X118405241Y-101905241D01*
X118210727Y-102127042D01*
X118046829Y-102372334D01*
X117916348Y-102636922D01*
X117916346Y-102636925D01*
X117821520Y-102916274D01*
X117821519Y-102916277D01*
X117790749Y-103070969D01*
X117743497Y-103204909D01*
X117660424Y-103320111D01*
X117548260Y-103407242D01*
X117416092Y-103459244D01*
X117274627Y-103471903D01*
X117135326Y-103444194D01*
X117009474Y-103378361D01*
X116948491Y-103326464D01*
X114499373Y-100877346D01*
X114414257Y-100763645D01*
X114364623Y-100630570D01*
X114354490Y-100488902D01*
X114384681Y-100350117D01*
X114452749Y-100225460D01*
X114553179Y-100125030D01*
X114677836Y-100056962D01*
X114816621Y-100026771D01*
X114852219Y-100025500D01*
X123147780Y-100025500D01*
X123288365Y-100045713D01*
G37*
%TD.AperFunction*%
%TA.AperFunction,NonConductor*%
G36*
X109353715Y-105180713D02*
G01*
X109482910Y-105239714D01*
X109590249Y-105332724D01*
X109667036Y-105452208D01*
X109707051Y-105588485D01*
X109707051Y-105730515D01*
X109700725Y-105765574D01*
X109663403Y-105937134D01*
X109613768Y-106070209D01*
X109528652Y-106183909D01*
X109414950Y-106269024D01*
X109281874Y-106318657D01*
X109140206Y-106328788D01*
X109078459Y-106320472D01*
X108794387Y-106263967D01*
X108794385Y-106263966D01*
X108500000Y-106244671D01*
X108205614Y-106263966D01*
X108205612Y-106263967D01*
X107916282Y-106321518D01*
X107916274Y-106321520D01*
X107636925Y-106416346D01*
X107636922Y-106416348D01*
X107372334Y-106546829D01*
X107127042Y-106710727D01*
X106905239Y-106905244D01*
X106874665Y-106940107D01*
X106766773Y-107032476D01*
X106637229Y-107090706D01*
X106496526Y-107110081D01*
X106356064Y-107089031D01*
X106227223Y-107029260D01*
X106120440Y-106935612D01*
X106044366Y-106815673D01*
X106005165Y-106679160D01*
X106000500Y-106611090D01*
X106000500Y-105985763D01*
X106020713Y-105845178D01*
X106067352Y-105736264D01*
X106081568Y-105711643D01*
X106120362Y-105612799D01*
X106173582Y-105477196D01*
X106243758Y-105353714D01*
X106345881Y-105255005D01*
X106471677Y-105189066D01*
X106610955Y-105161238D01*
X106638088Y-105160500D01*
X109213130Y-105160500D01*
X109353715Y-105180713D01*
G37*
%TD.AperFunction*%
%TA.AperFunction,NonConductor*%
G36*
X148141085Y-110121202D02*
G01*
X148270280Y-110180203D01*
X148377619Y-110273213D01*
X148454406Y-110392697D01*
X148494421Y-110528974D01*
X148499500Y-110599989D01*
X148499500Y-111644603D01*
X148479287Y-111785188D01*
X148420286Y-111914383D01*
X148327276Y-112021722D01*
X148207792Y-112098509D01*
X148071515Y-112138524D01*
X148000500Y-112143603D01*
X143463116Y-112143603D01*
X143322531Y-112123390D01*
X143193336Y-112064389D01*
X143085997Y-111971379D01*
X143009210Y-111851895D01*
X142969195Y-111715618D01*
X142969195Y-111573588D01*
X143009210Y-111437311D01*
X143085997Y-111317827D01*
X143110249Y-111291777D01*
X143688107Y-110713919D01*
X143801800Y-110628810D01*
X143934868Y-110579178D01*
X144022678Y-110560077D01*
X144270689Y-110467574D01*
X144503011Y-110340716D01*
X144690296Y-110200515D01*
X144814950Y-110132451D01*
X144953735Y-110102260D01*
X144989332Y-110100989D01*
X148000500Y-110100989D01*
X148141085Y-110121202D01*
G37*
%TD.AperFunction*%
%TA.AperFunction,NonConductor*%
G36*
X106972432Y-110197725D02*
G01*
X107097320Y-110265368D01*
X107124315Y-110287180D01*
X107127038Y-110289269D01*
X107127043Y-110289273D01*
X107209354Y-110344271D01*
X107315011Y-110439178D01*
X107389654Y-110560013D01*
X107427230Y-110696982D01*
X107431121Y-110759172D01*
X107431121Y-112854401D01*
X107410908Y-112994986D01*
X107351907Y-113124181D01*
X107258897Y-113231520D01*
X107139413Y-113308307D01*
X107003136Y-113348322D01*
X106861106Y-113348322D01*
X106724829Y-113308307D01*
X106605345Y-113231520D01*
X106579276Y-113207248D01*
X106367063Y-112995036D01*
X106281947Y-112881335D01*
X106233418Y-112753224D01*
X106225334Y-112717805D01*
X106126744Y-112466604D01*
X106126743Y-112466602D01*
X106001399Y-112249498D01*
X105948613Y-112117642D01*
X105935112Y-111976255D01*
X105961992Y-111836791D01*
X106001399Y-111750502D01*
X106103539Y-111573588D01*
X106126743Y-111533398D01*
X106225334Y-111282195D01*
X106285383Y-111019103D01*
X106305549Y-110750000D01*
X106302037Y-110703140D01*
X106311687Y-110561445D01*
X106360868Y-110428201D01*
X106445596Y-110314211D01*
X106559007Y-110228709D01*
X106691912Y-110178622D01*
X106833545Y-110168007D01*
X106972432Y-110197725D01*
G37*
%TD.AperFunction*%
%TA.AperFunction,NonConductor*%
G36*
X132007231Y-103527333D02*
G01*
X132131888Y-103595401D01*
X132232318Y-103695832D01*
X132300386Y-103820489D01*
X132319337Y-103883831D01*
X132377166Y-104137195D01*
X132377167Y-104137198D01*
X132377168Y-104137201D01*
X132475755Y-104388395D01*
X132475759Y-104388403D01*
X132612647Y-104625503D01*
X132665434Y-104757360D01*
X132678934Y-104898747D01*
X132652053Y-105038210D01*
X132612647Y-105124497D01*
X132475759Y-105361596D01*
X132475755Y-105361604D01*
X132377167Y-105612799D01*
X132317118Y-105875892D01*
X132317117Y-105875897D01*
X132296951Y-106145000D01*
X132317117Y-106414103D01*
X132317118Y-106414107D01*
X132377167Y-106677200D01*
X132475755Y-106928395D01*
X132475759Y-106928403D01*
X132612647Y-107165503D01*
X132665434Y-107297360D01*
X132678934Y-107438747D01*
X132652053Y-107578210D01*
X132612647Y-107664497D01*
X132475759Y-107901596D01*
X132475755Y-107901604D01*
X132377167Y-108152799D01*
X132377166Y-108152805D01*
X132317117Y-108415897D01*
X132296951Y-108685000D01*
X132317117Y-108954103D01*
X132317118Y-108954107D01*
X132377167Y-109217200D01*
X132475755Y-109468395D01*
X132475759Y-109468403D01*
X132612647Y-109705503D01*
X132665434Y-109837360D01*
X132678934Y-109978747D01*
X132652053Y-110118210D01*
X132612647Y-110204497D01*
X132475759Y-110441596D01*
X132475755Y-110441604D01*
X132377167Y-110692799D01*
X132364111Y-110750002D01*
X132317117Y-110955897D01*
X132296951Y-111225000D01*
X132317117Y-111494103D01*
X132317118Y-111494107D01*
X132377167Y-111757200D01*
X132475755Y-112008395D01*
X132475759Y-112008403D01*
X132612647Y-112245503D01*
X132665434Y-112377360D01*
X132678934Y-112518747D01*
X132652053Y-112658210D01*
X132612647Y-112744497D01*
X132475759Y-112981596D01*
X132475755Y-112981604D01*
X132377167Y-113232799D01*
X132322030Y-113474373D01*
X132317117Y-113495897D01*
X132296951Y-113765000D01*
X132317117Y-114034103D01*
X132317118Y-114034107D01*
X132377167Y-114297200D01*
X132475755Y-114548395D01*
X132475756Y-114548397D01*
X132610680Y-114782094D01*
X132610691Y-114782110D01*
X132778936Y-114993082D01*
X132778938Y-114993084D01*
X132778939Y-114993085D01*
X132976759Y-115176635D01*
X133199726Y-115328651D01*
X133442859Y-115445738D01*
X133700728Y-115525280D01*
X133967571Y-115565500D01*
X133967575Y-115565500D01*
X134237425Y-115565500D01*
X134237429Y-115565500D01*
X134504272Y-115525280D01*
X134762141Y-115445738D01*
X135005275Y-115328651D01*
X135005277Y-115328649D01*
X135022096Y-115320550D01*
X135023105Y-115322646D01*
X135130726Y-115279564D01*
X135248362Y-115265500D01*
X135268049Y-115265500D01*
X135408634Y-115285713D01*
X135537829Y-115344714D01*
X135645168Y-115437724D01*
X135721955Y-115557208D01*
X135761970Y-115693485D01*
X135762625Y-115804162D01*
X135765035Y-115804320D01*
X135763966Y-115820615D01*
X135763966Y-115820620D01*
X135751970Y-116003645D01*
X135744671Y-116115000D01*
X135763966Y-116409385D01*
X135763967Y-116409387D01*
X135821518Y-116698717D01*
X135821520Y-116698725D01*
X135916348Y-116978079D01*
X136046824Y-117242659D01*
X136046827Y-117242665D01*
X136210722Y-117487951D01*
X136210726Y-117487955D01*
X136210727Y-117487957D01*
X136345137Y-117641222D01*
X136375668Y-117676035D01*
X136453165Y-117795060D01*
X136493990Y-117931096D01*
X136499500Y-118005049D01*
X136499500Y-122544603D01*
X136479287Y-122685188D01*
X136420286Y-122814383D01*
X136327276Y-122921722D01*
X136207792Y-122998509D01*
X136071515Y-123038524D01*
X136000500Y-123043603D01*
X133291941Y-123043603D01*
X133151356Y-123023390D01*
X133022161Y-122964389D01*
X132914822Y-122871379D01*
X132853981Y-122783752D01*
X132825717Y-122731991D01*
X132825716Y-122731989D01*
X132675029Y-122530694D01*
X132606962Y-122406037D01*
X132576771Y-122267253D01*
X132575500Y-122231656D01*
X132575500Y-121890049D01*
X132595713Y-121749464D01*
X132654714Y-121620269D01*
X132699332Y-121561035D01*
X132864273Y-121372957D01*
X133028172Y-121127665D01*
X133158652Y-120863077D01*
X133253481Y-120583722D01*
X133311034Y-120294380D01*
X133330329Y-120000000D01*
X133311034Y-119705620D01*
X133253481Y-119416278D01*
X133158652Y-119136923D01*
X133028172Y-118872336D01*
X132864273Y-118627043D01*
X132669758Y-118405242D01*
X132669755Y-118405240D01*
X132669754Y-118405238D01*
X132447957Y-118210727D01*
X132447953Y-118210724D01*
X132202665Y-118046827D01*
X132202659Y-118046824D01*
X131938079Y-117916348D01*
X131658725Y-117821520D01*
X131658724Y-117821519D01*
X131658722Y-117821519D01*
X131658717Y-117821518D01*
X131369387Y-117763967D01*
X131369385Y-117763966D01*
X131075000Y-117744671D01*
X130780620Y-117763966D01*
X130780615Y-117763966D01*
X130764320Y-117765035D01*
X130764152Y-117762479D01*
X130647568Y-117761082D01*
X130511780Y-117719436D01*
X130393226Y-117641222D01*
X130301510Y-117532775D01*
X130244062Y-117402882D01*
X130225500Y-117268048D01*
X130225500Y-105103219D01*
X130245713Y-104962634D01*
X130304714Y-104833439D01*
X130371649Y-104750377D01*
X130539517Y-104582510D01*
X130539516Y-104582510D01*
X131480006Y-103642020D01*
X131593703Y-103556909D01*
X131726778Y-103507275D01*
X131868447Y-103497142D01*
X132007231Y-103527333D01*
G37*
%TD.AperFunction*%
%TA.AperFunction,NonConductor*%
G36*
X125477224Y-115285713D02*
G01*
X125562164Y-115322085D01*
X125562904Y-115320550D01*
X125579726Y-115328651D01*
X125822859Y-115445738D01*
X126080728Y-115525280D01*
X126347571Y-115565500D01*
X126347575Y-115565500D01*
X126617427Y-115565500D01*
X126617429Y-115565500D01*
X126651126Y-115560420D01*
X126793147Y-115559453D01*
X126929694Y-115598537D01*
X127049698Y-115674509D01*
X127143437Y-115781211D01*
X127203318Y-115910001D01*
X127224488Y-116050445D01*
X127224500Y-116053846D01*
X127224500Y-122494348D01*
X127204287Y-122634933D01*
X127163462Y-122733494D01*
X127037424Y-122964314D01*
X126944923Y-123212321D01*
X126944922Y-123212324D01*
X126888658Y-123470965D01*
X126888657Y-123470971D01*
X126888657Y-123470974D01*
X126869773Y-123735000D01*
X126888657Y-123999026D01*
X126888657Y-123999029D01*
X126888658Y-123999032D01*
X126925726Y-124169429D01*
X126935859Y-124311097D01*
X126905668Y-124449881D01*
X126837601Y-124574539D01*
X126737171Y-124674969D01*
X126612514Y-124743037D01*
X126473729Y-124773229D01*
X126438130Y-124774500D01*
X124603219Y-124774500D01*
X124462634Y-124754287D01*
X124333439Y-124695286D01*
X124250373Y-124628346D01*
X116661954Y-117039927D01*
X116661934Y-117039905D01*
X116477511Y-116855483D01*
X115739374Y-116117346D01*
X115654258Y-116003645D01*
X115604624Y-115870570D01*
X115594491Y-115728902D01*
X115624682Y-115590117D01*
X115692750Y-115465460D01*
X115793180Y-115365030D01*
X115917837Y-115296962D01*
X116056622Y-115266771D01*
X116092220Y-115265500D01*
X125336639Y-115265500D01*
X125477224Y-115285713D01*
G37*
%TD.AperFunction*%
%TA.AperFunction,NonConductor*%
G36*
X148141085Y-115979368D02*
G01*
X148270280Y-116038369D01*
X148377619Y-116131379D01*
X148454406Y-116250863D01*
X148494421Y-116387140D01*
X148499500Y-116458155D01*
X148499500Y-128500500D01*
X148479287Y-128641085D01*
X148420286Y-128770280D01*
X148327276Y-128877619D01*
X148207792Y-128954406D01*
X148071515Y-128994421D01*
X148000500Y-128999500D01*
X140815999Y-128999500D01*
X140675414Y-128979287D01*
X140546219Y-128920286D01*
X140438880Y-128827276D01*
X140362093Y-128707792D01*
X140322078Y-128571515D01*
X140316999Y-128500500D01*
X140316999Y-125372900D01*
X140337212Y-125232315D01*
X140396213Y-125103120D01*
X140489223Y-124995781D01*
X140608707Y-124918994D01*
X140744984Y-124878979D01*
X140747776Y-124878679D01*
X140764012Y-124876343D01*
X140764026Y-124876343D01*
X141022678Y-124820077D01*
X141270689Y-124727574D01*
X141503011Y-124600716D01*
X141714915Y-124442087D01*
X141902087Y-124254915D01*
X142060716Y-124043011D01*
X142187574Y-123810689D01*
X142280077Y-123562678D01*
X142336343Y-123304026D01*
X142355227Y-123040000D01*
X142336343Y-122775974D01*
X142280077Y-122517322D01*
X142267854Y-122484552D01*
X142186541Y-122266539D01*
X142156350Y-122127755D01*
X142166483Y-121986087D01*
X142211785Y-121861123D01*
X142283909Y-121723049D01*
X142339886Y-121527418D01*
X142350500Y-121408037D01*
X142350499Y-119591964D01*
X142339886Y-119472582D01*
X142283909Y-119276951D01*
X142189698Y-119096593D01*
X142189695Y-119096589D01*
X142061110Y-118938891D01*
X142061108Y-118938889D01*
X141903410Y-118810304D01*
X141903407Y-118810302D01*
X141723057Y-118716095D01*
X141723054Y-118716093D01*
X141723049Y-118716091D01*
X141527418Y-118660114D01*
X141408037Y-118649500D01*
X141408030Y-118649500D01*
X139999500Y-118649500D01*
X139858915Y-118629287D01*
X139729720Y-118570286D01*
X139622381Y-118477276D01*
X139545594Y-118357792D01*
X139505579Y-118221515D01*
X139500500Y-118150500D01*
X139500500Y-118005049D01*
X139520713Y-117864464D01*
X139579714Y-117735269D01*
X139624332Y-117676035D01*
X139639102Y-117659193D01*
X139789273Y-117487957D01*
X139953172Y-117242665D01*
X140083652Y-116978077D01*
X140178481Y-116698722D01*
X140236034Y-116409380D01*
X140236035Y-116409363D01*
X140238165Y-116393190D01*
X140241617Y-116393644D01*
X140264745Y-116285458D01*
X140332363Y-116160557D01*
X140432431Y-116059765D01*
X140556842Y-115991248D01*
X140695517Y-115960558D01*
X140732908Y-115959155D01*
X148000500Y-115959155D01*
X148141085Y-115979368D01*
G37*
%TD.AperFunction*%
%TA.AperFunction,NonConductor*%
G36*
X133822517Y-126252050D02*
G01*
X133947174Y-126320118D01*
X134047604Y-126420550D01*
X134115671Y-126545207D01*
X134145861Y-126683991D01*
X134147132Y-126719587D01*
X134147132Y-128500500D01*
X134126919Y-128641085D01*
X134067918Y-128770280D01*
X133974908Y-128877619D01*
X133855424Y-128954406D01*
X133719147Y-128994421D01*
X133648132Y-128999500D01*
X132021353Y-128999500D01*
X131880768Y-128979287D01*
X131751573Y-128920286D01*
X131644234Y-128827276D01*
X131567447Y-128707792D01*
X131527432Y-128571515D01*
X131527432Y-128429485D01*
X131567447Y-128293208D01*
X131644234Y-128173724D01*
X131751573Y-128080714D01*
X131846972Y-128032962D01*
X132035682Y-127962577D01*
X132035689Y-127962574D01*
X132268011Y-127835716D01*
X132479915Y-127677087D01*
X132667087Y-127489915D01*
X132825716Y-127278011D01*
X132952574Y-127045689D01*
X133045077Y-126797678D01*
X133064176Y-126709876D01*
X133113808Y-126576805D01*
X133198918Y-126463107D01*
X133241476Y-126420550D01*
X133295288Y-126366739D01*
X133408989Y-126281624D01*
X133542064Y-126231990D01*
X133683733Y-126221859D01*
X133822517Y-126252050D01*
G37*
%TD.AperFunction*%
%TA.AperFunction,NonConductor*%
G36*
X123328321Y-127707584D02*
G01*
X123423632Y-127738553D01*
X123656908Y-127775500D01*
X123893092Y-127775500D01*
X126911905Y-127775500D01*
X127052490Y-127795713D01*
X127181685Y-127854714D01*
X127227243Y-127887766D01*
X127321593Y-127964698D01*
X127407337Y-128009487D01*
X127500606Y-128058207D01*
X127615856Y-128141213D01*
X127703052Y-128253327D01*
X127755129Y-128385465D01*
X127767870Y-128526922D01*
X127740241Y-128666239D01*
X127674482Y-128792129D01*
X127575918Y-128894393D01*
X127452537Y-128964746D01*
X127314332Y-128997488D01*
X127269570Y-128999500D01*
X123174121Y-128999500D01*
X123033536Y-128979287D01*
X122904341Y-128920286D01*
X122797002Y-128827276D01*
X122720215Y-128707792D01*
X122680200Y-128571515D01*
X122675121Y-128500500D01*
X122675121Y-128182161D01*
X122695334Y-128041576D01*
X122754335Y-127912381D01*
X122847345Y-127805042D01*
X122966829Y-127728255D01*
X123103106Y-127688240D01*
X123245136Y-127688240D01*
X123328321Y-127707584D01*
G37*
%TD.AperFunction*%
%TA.AperFunction,NonConductor*%
G36*
X100706792Y-113373313D02*
G01*
X100826276Y-113450100D01*
X100852346Y-113474373D01*
X101772490Y-114394517D01*
X101963566Y-114533343D01*
X101963568Y-114533344D01*
X101963575Y-114533348D01*
X102125766Y-114615988D01*
X102125785Y-114615997D01*
X102125820Y-114616015D01*
X102174008Y-114640568D01*
X102398632Y-114713553D01*
X102631908Y-114750500D01*
X103354139Y-114750500D01*
X103494724Y-114770713D01*
X103579664Y-114807085D01*
X103580404Y-114805550D01*
X103597226Y-114813651D01*
X103840359Y-114930738D01*
X104037852Y-114991656D01*
X104166232Y-115052409D01*
X104243609Y-115115636D01*
X105378835Y-116250863D01*
X105637491Y-116509519D01*
X105828566Y-116648343D01*
X105899598Y-116684535D01*
X106039008Y-116755568D01*
X106263632Y-116828553D01*
X106496908Y-116865500D01*
X112036781Y-116865500D01*
X112177366Y-116885713D01*
X112306561Y-116944714D01*
X112389627Y-117011654D01*
X112509937Y-117131964D01*
X112595053Y-117245665D01*
X112644687Y-117378740D01*
X112654820Y-117520408D01*
X112624629Y-117659193D01*
X112556561Y-117783850D01*
X112472431Y-117871542D01*
X112438889Y-117898891D01*
X112310304Y-118056589D01*
X112310302Y-118056592D01*
X112216095Y-118236942D01*
X112216091Y-118236951D01*
X112160114Y-118432582D01*
X112149500Y-118551963D01*
X112149500Y-118551969D01*
X112149500Y-118551970D01*
X112149500Y-120368030D01*
X112160114Y-120487417D01*
X112216090Y-120683046D01*
X112216093Y-120683053D01*
X112288215Y-120821123D01*
X112335389Y-120955090D01*
X112342909Y-121096921D01*
X112313459Y-121226539D01*
X112219924Y-121477317D01*
X112219922Y-121477324D01*
X112163658Y-121735965D01*
X112163657Y-121735971D01*
X112163657Y-121735974D01*
X112144773Y-122000000D01*
X112153910Y-122127755D01*
X112163658Y-122264034D01*
X112219922Y-122522675D01*
X112219923Y-122522678D01*
X112312424Y-122770686D01*
X112312425Y-122770689D01*
X112367407Y-122871379D01*
X112439284Y-123003011D01*
X112597913Y-123214915D01*
X112785085Y-123402087D01*
X112996989Y-123560716D01*
X113155992Y-123647538D01*
X113229310Y-123687574D01*
X113229313Y-123687575D01*
X113300822Y-123714246D01*
X113477322Y-123780077D01*
X113735974Y-123836343D01*
X114000000Y-123855227D01*
X114264026Y-123836343D01*
X114522678Y-123780077D01*
X114770689Y-123687574D01*
X115003011Y-123560716D01*
X115214915Y-123402087D01*
X115402087Y-123214915D01*
X115560716Y-123003011D01*
X115687574Y-122770689D01*
X115780077Y-122522678D01*
X115836343Y-122264026D01*
X115855227Y-122000000D01*
X115836343Y-121735974D01*
X115836340Y-121735960D01*
X115835172Y-121727831D01*
X115835171Y-121719608D01*
X115835071Y-121718198D01*
X115835171Y-121718190D01*
X115835170Y-121585800D01*
X115875184Y-121449523D01*
X115951970Y-121330039D01*
X116059308Y-121237028D01*
X116188503Y-121178025D01*
X116329087Y-121157811D01*
X116469672Y-121178023D01*
X116598868Y-121237023D01*
X116681938Y-121303965D01*
X119168930Y-123790957D01*
X119254046Y-123904658D01*
X119303680Y-124037733D01*
X119313813Y-124179401D01*
X119283622Y-124318186D01*
X119215554Y-124442843D01*
X119115124Y-124543273D01*
X118990467Y-124611341D01*
X118851682Y-124641532D01*
X118816084Y-124642803D01*
X116358713Y-124642803D01*
X116358713Y-128500500D01*
X116338500Y-128641085D01*
X116279499Y-128770280D01*
X116186489Y-128877619D01*
X116067005Y-128954406D01*
X115930728Y-128994421D01*
X115859713Y-128999500D01*
X100499500Y-128999500D01*
X100358915Y-128979287D01*
X100229720Y-128920286D01*
X100122381Y-128827276D01*
X100045594Y-128707792D01*
X100005579Y-128571515D01*
X100000500Y-128500500D01*
X100000500Y-113827219D01*
X100020713Y-113686634D01*
X100079714Y-113557439D01*
X100172724Y-113450100D01*
X100292208Y-113373313D01*
X100428485Y-113333298D01*
X100570515Y-113333298D01*
X100706792Y-113373313D01*
G37*
%TD.AperFunction*%
D22*
X99500000Y-70000000D02*
X149000000Y-70000000D01*
X149000000Y-129500000D01*
X99500000Y-129500000D01*
X99500000Y-70000000D01*
M02*
