%TF.GenerationSoftware,KiCad,Pcbnew,8.0.1-8.0.1-1~ubuntu22.04.1*%
%TF.CreationDate,2024-03-19T23:27:27+09:00*%
%TF.ProjectId,RapideUSBMini,52617069-6465-4555-9342-4d696e692e6b,1.0*%
%TF.SameCoordinates,Original*%
%TF.FileFunction,Copper,L1,Top*%
%TF.FilePolarity,Positive*%
%FSLAX46Y46*%
G04 Gerber Fmt 4.6, Leading zero omitted, Abs format (unit mm)*
G04 Created by KiCad (PCBNEW 8.0.1-8.0.1-1~ubuntu22.04.1) date 2024-03-19 23:27:27*
%MOMM*%
%LPD*%
G01*
G04 APERTURE LIST*
G04 Aperture macros list*
%AMRoundRect*
0 Rectangle with rounded corners*
0 $1 Rounding radius*
0 $2 $3 $4 $5 $6 $7 $8 $9 X,Y pos of 4 corners*
0 Add a 4 corners polygon primitive as box body*
4,1,4,$2,$3,$4,$5,$6,$7,$8,$9,$2,$3,0*
0 Add four circle primitives for the rounded corners*
1,1,$1+$1,$2,$3*
1,1,$1+$1,$4,$5*
1,1,$1+$1,$6,$7*
1,1,$1+$1,$8,$9*
0 Add four rect primitives between the rounded corners*
20,1,$1+$1,$2,$3,$4,$5,0*
20,1,$1+$1,$4,$5,$6,$7,0*
20,1,$1+$1,$6,$7,$8,$9,0*
20,1,$1+$1,$8,$9,$2,$3,0*%
G04 Aperture macros list end*
%TA.AperFunction,ComponentPad*%
%ADD10C,1.400000*%
%TD*%
%TA.AperFunction,ComponentPad*%
%ADD11C,1.500000*%
%TD*%
%TA.AperFunction,ComponentPad*%
%ADD12O,1.600000X1.600000*%
%TD*%
%TA.AperFunction,ComponentPad*%
%ADD13R,1.600000X1.600000*%
%TD*%
%TA.AperFunction,ComponentPad*%
%ADD14C,1.600000*%
%TD*%
%TA.AperFunction,ComponentPad*%
%ADD15RoundRect,0.250000X0.600000X-0.600000X0.600000X0.600000X-0.600000X0.600000X-0.600000X-0.600000X0*%
%TD*%
%TA.AperFunction,ComponentPad*%
%ADD16C,1.700000*%
%TD*%
%TA.AperFunction,SMDPad,CuDef*%
%ADD17RoundRect,0.375000X-3.375000X-0.375000X3.375000X-0.375000X3.375000X0.375000X-3.375000X0.375000X0*%
%TD*%
%TA.AperFunction,SMDPad,CuDef*%
%ADD18RoundRect,0.250000X-3.000000X-0.250000X3.000000X-0.250000X3.000000X0.250000X-3.000000X0.250000X0*%
%TD*%
%TA.AperFunction,ComponentPad*%
%ADD19R,1.800000X1.800000*%
%TD*%
%TA.AperFunction,ComponentPad*%
%ADD20C,1.800000*%
%TD*%
%TA.AperFunction,ComponentPad*%
%ADD21R,2.200000X2.200000*%
%TD*%
%TA.AperFunction,ComponentPad*%
%ADD22O,2.200000X2.200000*%
%TD*%
%TA.AperFunction,ViaPad*%
%ADD23C,2.000000*%
%TD*%
%TA.AperFunction,Conductor*%
%ADD24C,0.600000*%
%TD*%
%TA.AperFunction,Profile*%
%ADD25C,0.050000*%
%TD*%
G04 APERTURE END LIST*
D10*
%TO.P,C1,1*%
%TO.N,/XTAL1*%
X142000000Y-71250000D03*
%TO.P,C1,2*%
%TO.N,GND*%
X142000000Y-68750000D03*
%TD*%
D11*
%TO.P,Y1,2,2*%
%TO.N,/XTAL2*%
X143000000Y-81340000D03*
%TO.P,Y1,1,1*%
%TO.N,/XTAL1*%
X143000000Y-76460000D03*
%TD*%
D12*
%TO.P,U1,8,VCC*%
%TO.N,+5V*%
X158620000Y-78000000D03*
%TO.P,U1,7,PB2*%
%TO.N,/SCK*%
X158620000Y-80540000D03*
%TO.P,U1,6,PB1*%
%TO.N,/MISO*%
X158620000Y-83080000D03*
%TO.P,U1,5,AREF/PB0*%
%TO.N,/MOSI*%
X158620000Y-85620000D03*
%TO.P,U1,4,GND*%
%TO.N,GND*%
X151000000Y-85620000D03*
%TO.P,U1,3,XTAL2/PB4*%
%TO.N,/XTAL2*%
X151000000Y-83080000D03*
%TO.P,U1,2,XTAL1/PB3*%
%TO.N,/XTAL1*%
X151000000Y-80540000D03*
D13*
%TO.P,U1,1,~{RESET}/PB5*%
%TO.N,/RST*%
X151000000Y-78000000D03*
%TD*%
D14*
%TO.P,R4,1*%
%TO.N,/MISO*%
X161000000Y-95000000D03*
D12*
%TO.P,R4,2*%
%TO.N,Net-(D3-A)*%
X150840000Y-95000000D03*
%TD*%
D14*
%TO.P,R3,1*%
%TO.N,+5V*%
X164000000Y-67500000D03*
D12*
%TO.P,R3,2*%
%TO.N,Net-(D2-K)*%
X164000000Y-77660000D03*
%TD*%
D14*
%TO.P,R2,1*%
%TO.N,Net-(D1-K)*%
X169500000Y-83500000D03*
D12*
%TO.P,R2,2*%
%TO.N,/SCK*%
X169500000Y-93660000D03*
%TD*%
D14*
%TO.P,R1,1*%
%TO.N,/MOSI*%
X169000000Y-67340000D03*
D12*
%TO.P,R1,2*%
%TO.N,Net-(D2-K)*%
X169000000Y-77500000D03*
%TD*%
D15*
%TO.P,J2,1,MISO*%
%TO.N,/MISO*%
X150960000Y-67500000D03*
D16*
%TO.P,J2,2,VCC*%
%TO.N,+5V*%
X150960000Y-64960000D03*
%TO.P,J2,3,SCK*%
%TO.N,/SCK*%
X153500000Y-67500000D03*
%TO.P,J2,4,MOSI*%
%TO.N,/MOSI*%
X153500000Y-64960000D03*
%TO.P,J2,5,~{RST}*%
%TO.N,/RST*%
X156040000Y-67500000D03*
%TO.P,J2,6,GND*%
%TO.N,GND*%
X156040000Y-64960000D03*
%TD*%
D17*
%TO.P,J1,1,USB_VCC*%
%TO.N,+5V*%
X186000000Y-76500000D03*
D18*
%TO.P,J1,2,USB_DATA-*%
%TO.N,Net-(D2-K)*%
X185500000Y-79000000D03*
%TO.P,J1,3,USB_DATA+*%
%TO.N,Net-(D1-K)*%
X185500000Y-81000000D03*
D17*
%TO.P,J1,4,USB_GND*%
%TO.N,GND*%
X186000000Y-83500000D03*
%TD*%
D19*
%TO.P,D3,1,K*%
%TO.N,GND*%
X143725000Y-95000000D03*
D20*
%TO.P,D3,2,A*%
%TO.N,Net-(D3-A)*%
X146265000Y-95000000D03*
%TD*%
D21*
%TO.P,D2,1,K*%
%TO.N,Net-(D2-K)*%
X174000000Y-78120000D03*
D22*
%TO.P,D2,2,A*%
%TO.N,GND*%
X174000000Y-70500000D03*
%TD*%
D21*
%TO.P,D1,1,K*%
%TO.N,Net-(D1-K)*%
X175000000Y-83190000D03*
D22*
%TO.P,D1,2,A*%
%TO.N,GND*%
X175000000Y-90810000D03*
%TD*%
D13*
%TO.P,C3,1*%
%TO.N,+5V*%
X177500000Y-63500000D03*
D14*
%TO.P,C3,2*%
%TO.N,GND*%
X175500000Y-63500000D03*
%TD*%
D10*
%TO.P,C2,2*%
%TO.N,GND*%
X144500000Y-87460000D03*
%TO.P,C2,1*%
%TO.N,/XTAL2*%
X142000000Y-87460000D03*
%TD*%
D23*
%TO.N,GND*%
X168000000Y-63500000D03*
X177000000Y-74000000D03*
X179500000Y-87000000D03*
X158500000Y-65000000D03*
%TO.N,/MOSI*%
X166500000Y-73500000D03*
X160500000Y-71500000D03*
%TO.N,/RST*%
X158000000Y-69500000D03*
X151000000Y-74500000D03*
%TO.N,/MOSI*%
X162500000Y-86000000D03*
X166500000Y-71500000D03*
%TD*%
D24*
%TO.N,GND*%
X177000000Y-73000000D02*
X177000000Y-74000000D01*
X179500000Y-84500000D02*
X179500000Y-87000000D01*
X179500000Y-87000000D02*
X179500000Y-90000000D01*
%TO.N,/RST*%
X158000000Y-69460000D02*
X156040000Y-67500000D01*
X158000000Y-69500000D02*
X158000000Y-69460000D01*
%TO.N,/MOSI*%
X169000000Y-67340000D02*
X169000000Y-69000000D01*
X169000000Y-69000000D02*
X166500000Y-71500000D01*
X166500000Y-72000000D02*
X166500000Y-73000000D01*
X166500000Y-71500000D02*
X166500000Y-72000000D01*
X160500000Y-63600000D02*
X159500000Y-62600000D01*
X154500000Y-62600000D02*
X153500000Y-63600000D01*
X160500000Y-71500000D02*
X160500000Y-63600000D01*
X153500000Y-63600000D02*
X153500000Y-64960000D01*
X159500000Y-62600000D02*
X154500000Y-62600000D01*
%TO.N,/XTAL1*%
X142000000Y-71250000D02*
X142000000Y-75460000D01*
X142000000Y-75460000D02*
X143000000Y-76460000D01*
%TO.N,/RST*%
X151000000Y-78000000D02*
X151000000Y-74500000D01*
%TO.N,+5V*%
X166500000Y-61000000D02*
X152500000Y-61000000D01*
X152500000Y-61000000D02*
X150960000Y-62540000D01*
X150960000Y-62540000D02*
X150960000Y-64960000D01*
X164000000Y-67500000D02*
X164000000Y-63500000D01*
X164000000Y-63500000D02*
X166500000Y-61000000D01*
X166500000Y-61000000D02*
X176500000Y-61000000D01*
X176500000Y-61000000D02*
X177600000Y-62100000D01*
X177600000Y-62100000D02*
X177600000Y-63600000D01*
X177600000Y-63600000D02*
X179500000Y-65500000D01*
X179500000Y-65500000D02*
X179500000Y-75500000D01*
X179500000Y-75500000D02*
X180500000Y-76500000D01*
X180500000Y-76500000D02*
X186000000Y-76500000D01*
%TO.N,/MISO*%
X150960000Y-69560000D02*
X154400000Y-73000000D01*
X154400000Y-81060000D02*
X156420000Y-83080000D01*
X150960000Y-67500000D02*
X150960000Y-69560000D01*
X154400000Y-73000000D02*
X154400000Y-81060000D01*
%TO.N,/SCK*%
X153500000Y-69500000D02*
X156000000Y-72000000D01*
X153500000Y-67500000D02*
X153500000Y-69500000D01*
X156000000Y-72000000D02*
X156000000Y-79051370D01*
X156000000Y-79051370D02*
X157488630Y-80540000D01*
X157488630Y-80540000D02*
X158620000Y-80540000D01*
%TO.N,+5V*%
X164000000Y-67500000D02*
X164000000Y-72620000D01*
X164000000Y-72620000D02*
X158620000Y-78000000D01*
%TO.N,/XTAL1*%
X146500000Y-79960000D02*
X146500000Y-80500000D01*
X143000000Y-76460000D02*
X146500000Y-79960000D01*
X146500000Y-80500000D02*
X147500000Y-80500000D01*
X147500000Y-80500000D02*
X147540000Y-80540000D01*
X147540000Y-80540000D02*
X151000000Y-80540000D01*
%TO.N,/XTAL2*%
X143000000Y-81340000D02*
X143840000Y-81340000D01*
X143840000Y-81340000D02*
X145580000Y-83080000D01*
X145580000Y-83080000D02*
X151000000Y-83080000D01*
X143000000Y-81340000D02*
X142000000Y-82340000D01*
X142000000Y-82340000D02*
X142000000Y-87460000D01*
%TO.N,Net-(D3-A)*%
X150840000Y-95000000D02*
X146265000Y-95000000D01*
%TO.N,/MISO*%
X155500000Y-93000000D02*
X157500000Y-95000000D01*
X155500000Y-84000000D02*
X155500000Y-93000000D01*
X158620000Y-83080000D02*
X156420000Y-83080000D01*
X156420000Y-83080000D02*
X155500000Y-84000000D01*
X157500000Y-95000000D02*
X161000000Y-95000000D01*
%TO.N,Net-(D1-K)*%
X185500000Y-81000000D02*
X177190000Y-81000000D01*
X177190000Y-81000000D02*
X175000000Y-83190000D01*
%TO.N,Net-(D2-K)*%
X185500000Y-79000000D02*
X176000000Y-79000000D01*
X176000000Y-79000000D02*
X175000000Y-78000000D01*
%TO.N,/MOSI*%
X162500000Y-86000000D02*
X159000000Y-86000000D01*
X159000000Y-86000000D02*
X158620000Y-85620000D01*
%TO.N,/SCK*%
X169500000Y-93660000D02*
X169500000Y-89000000D01*
X163000000Y-82500000D02*
X163000000Y-81500000D01*
X169500000Y-89000000D02*
X163000000Y-82500000D01*
X163000000Y-81500000D02*
X162000000Y-80500000D01*
X162000000Y-80500000D02*
X161000000Y-80500000D01*
X161000000Y-80500000D02*
X160960000Y-80540000D01*
X160960000Y-80540000D02*
X158620000Y-80540000D01*
%TO.N,Net-(D2-K)*%
X169000000Y-77500000D02*
X164160000Y-77500000D01*
X164160000Y-77500000D02*
X164000000Y-77660000D01*
X175000000Y-78000000D02*
X169500000Y-78000000D01*
X169500000Y-78000000D02*
X169000000Y-77500000D01*
%TO.N,GND*%
X175000000Y-63900000D02*
X175400000Y-63500000D01*
%TO.N,Net-(D1-K)*%
X175000000Y-83190000D02*
X169810000Y-83190000D01*
X169810000Y-83190000D02*
X169500000Y-83500000D01*
%TO.N,GND*%
X186000000Y-83500000D02*
X180500000Y-83500000D01*
X180500000Y-83500000D02*
X179500000Y-84500000D01*
X179500000Y-90000000D02*
X178690000Y-90810000D01*
X178690000Y-90810000D02*
X175000000Y-90810000D01*
%TD*%
%TA.AperFunction,Conductor*%
%TO.N,GND*%
G36*
X147141585Y-60520713D02*
G01*
X147270780Y-60579714D01*
X147378119Y-60672724D01*
X147454906Y-60792208D01*
X147494921Y-60928485D01*
X147500000Y-60999500D01*
X147500000Y-69500001D01*
X147999999Y-70000000D01*
X148000000Y-70000000D01*
X149420200Y-70000000D01*
X149560785Y-70020213D01*
X149689980Y-70079214D01*
X149797319Y-70172224D01*
X149845668Y-70238275D01*
X149847710Y-70241607D01*
X149968033Y-70407219D01*
X149968036Y-70407222D01*
X151212147Y-71651332D01*
X151297263Y-71765033D01*
X151346897Y-71898108D01*
X151357030Y-72039776D01*
X151326839Y-72178560D01*
X151258771Y-72303217D01*
X151158341Y-72403648D01*
X151033684Y-72471716D01*
X150894901Y-72501906D01*
X150714572Y-72514804D01*
X150714569Y-72514804D01*
X150714563Y-72514805D01*
X150434956Y-72575629D01*
X150166838Y-72675633D01*
X149915687Y-72812772D01*
X149915682Y-72812776D01*
X149686607Y-72984258D01*
X149484258Y-73186607D01*
X149312776Y-73415682D01*
X149312772Y-73415687D01*
X149175633Y-73666838D01*
X149075629Y-73934956D01*
X149014805Y-74214563D01*
X149014804Y-74214569D01*
X149014804Y-74214572D01*
X148994390Y-74500000D01*
X149000420Y-74584317D01*
X149014805Y-74785436D01*
X149075629Y-75065043D01*
X149175633Y-75333161D01*
X149297459Y-75556269D01*
X149312774Y-75584315D01*
X149352384Y-75637228D01*
X149484253Y-75813386D01*
X149495757Y-75826661D01*
X149572546Y-75946143D01*
X149612563Y-76082419D01*
X149612566Y-76224449D01*
X149572554Y-76360727D01*
X149503513Y-76468160D01*
X149504883Y-76469277D01*
X149360304Y-76646589D01*
X149360302Y-76646592D01*
X149266095Y-76826942D01*
X149266090Y-76826953D01*
X149210114Y-77022581D01*
X149210114Y-77022582D01*
X149199500Y-77141963D01*
X149199500Y-77957890D01*
X149199501Y-78740500D01*
X149179288Y-78881084D01*
X149120287Y-79010280D01*
X149027277Y-79117619D01*
X148907793Y-79194406D01*
X148771516Y-79234421D01*
X148700501Y-79239500D01*
X147894171Y-79239500D01*
X147816106Y-79233356D01*
X147804536Y-79231523D01*
X147804535Y-79231523D01*
X147754834Y-79223651D01*
X147734366Y-79220409D01*
X147598675Y-79178451D01*
X147480301Y-79099965D01*
X147459586Y-79080401D01*
X147442831Y-79063646D01*
X147347219Y-78968034D01*
X146146154Y-77766969D01*
X146061038Y-77653268D01*
X146011404Y-77520193D01*
X146000000Y-77414123D01*
X146000000Y-70999999D01*
X145500001Y-70500000D01*
X145500000Y-70500000D01*
X143816281Y-70500000D01*
X143675696Y-70479787D01*
X143546501Y-70420786D01*
X143439162Y-70327776D01*
X143420750Y-70303865D01*
X143420600Y-70303986D01*
X143408960Y-70289390D01*
X143408959Y-70289388D01*
X143250050Y-70090123D01*
X143238293Y-70079214D01*
X143063224Y-69916774D01*
X143063223Y-69916773D01*
X143063220Y-69916771D01*
X143063217Y-69916768D01*
X142852634Y-69773195D01*
X142732857Y-69715513D01*
X142623009Y-69662613D01*
X142623006Y-69662612D01*
X142623004Y-69662611D01*
X142379458Y-69587487D01*
X142379454Y-69587486D01*
X142379455Y-69587486D01*
X142273371Y-69571496D01*
X142127435Y-69549500D01*
X141872565Y-69549500D01*
X141726628Y-69571496D01*
X141620545Y-69587486D01*
X141376990Y-69662613D01*
X141147368Y-69773194D01*
X141147366Y-69773195D01*
X141129424Y-69785428D01*
X140936776Y-69916773D01*
X140936775Y-69916774D01*
X140749953Y-70090119D01*
X140749950Y-70090123D01*
X140591041Y-70289388D01*
X140591039Y-70289390D01*
X140579400Y-70303986D01*
X140577421Y-70302408D01*
X140500118Y-70386866D01*
X140378591Y-70460376D01*
X140241276Y-70496669D01*
X140183719Y-70500000D01*
X140000000Y-70500000D01*
X140000000Y-85500000D01*
X140200500Y-85500000D01*
X140341085Y-85520213D01*
X140470280Y-85579214D01*
X140577619Y-85672224D01*
X140654406Y-85791708D01*
X140694421Y-85927985D01*
X140699500Y-85999000D01*
X140699500Y-86188776D01*
X140679287Y-86329361D01*
X140620286Y-86458556D01*
X140591827Y-86498234D01*
X140591036Y-86499395D01*
X140463608Y-86720108D01*
X140463606Y-86720114D01*
X140370493Y-86957359D01*
X140370492Y-86957362D01*
X140370492Y-86957363D01*
X140313778Y-87205843D01*
X140294732Y-87460000D01*
X140313778Y-87714157D01*
X140313779Y-87714161D01*
X140370493Y-87962640D01*
X140463606Y-88199885D01*
X140463608Y-88199891D01*
X140591036Y-88420604D01*
X140591041Y-88420612D01*
X140749950Y-88619877D01*
X140749952Y-88619879D01*
X140749953Y-88619880D01*
X140936775Y-88793225D01*
X140936776Y-88793226D01*
X140936778Y-88793227D01*
X140936783Y-88793232D01*
X141147366Y-88936805D01*
X141376996Y-89047389D01*
X141620542Y-89122513D01*
X141872565Y-89160500D01*
X141872570Y-89160500D01*
X142127430Y-89160500D01*
X142127435Y-89160500D01*
X142379458Y-89122513D01*
X142623004Y-89047389D01*
X142852634Y-88936805D01*
X143063217Y-88793232D01*
X143250050Y-88619877D01*
X143408959Y-88420612D01*
X143536393Y-88199888D01*
X143629508Y-87962637D01*
X143686222Y-87714157D01*
X143705268Y-87460000D01*
X143686222Y-87205843D01*
X143629508Y-86957363D01*
X143536393Y-86720112D01*
X143408959Y-86499388D01*
X143408953Y-86499381D01*
X143398443Y-86483965D01*
X143399569Y-86483196D01*
X143337510Y-86377365D01*
X143303092Y-86239568D01*
X143300500Y-86188776D01*
X143300500Y-85999000D01*
X143320713Y-85858415D01*
X143379714Y-85729220D01*
X143472724Y-85621881D01*
X143592208Y-85545094D01*
X143728485Y-85505079D01*
X143799500Y-85500000D01*
X146000000Y-85500000D01*
X146000000Y-84879500D01*
X146020213Y-84738915D01*
X146079214Y-84609720D01*
X146172224Y-84502381D01*
X146291708Y-84425594D01*
X146427985Y-84385579D01*
X146499000Y-84380500D01*
X149560293Y-84380500D01*
X149700878Y-84400713D01*
X149830073Y-84459714D01*
X149871410Y-84489363D01*
X149874253Y-84491630D01*
X149874255Y-84491631D01*
X149874259Y-84491635D01*
X150097226Y-84643651D01*
X150340359Y-84760738D01*
X150598228Y-84840280D01*
X150865071Y-84880500D01*
X150865075Y-84880500D01*
X151134925Y-84880500D01*
X151134929Y-84880500D01*
X151401772Y-84840280D01*
X151659641Y-84760738D01*
X151902775Y-84643651D01*
X152125741Y-84491635D01*
X152323561Y-84308085D01*
X152491815Y-84097102D01*
X152626743Y-83863398D01*
X152725334Y-83612195D01*
X152785383Y-83349103D01*
X152805549Y-83080000D01*
X152785383Y-82810897D01*
X152725334Y-82547805D01*
X152725332Y-82547800D01*
X152721179Y-82529603D01*
X152723750Y-82529016D01*
X152706029Y-82416672D01*
X152724322Y-82275825D01*
X152781554Y-82145836D01*
X152873090Y-82037238D01*
X152991514Y-81958826D01*
X153127233Y-81916955D01*
X153269250Y-81915017D01*
X153406060Y-81953167D01*
X153526580Y-82028317D01*
X153557829Y-82057015D01*
X154277000Y-82776186D01*
X154362116Y-82889887D01*
X154411750Y-83022962D01*
X154421883Y-83164630D01*
X154391692Y-83303415D01*
X154368767Y-83355572D01*
X154292987Y-83504298D01*
X154288721Y-83519427D01*
X154258578Y-83612200D01*
X154233553Y-83689219D01*
X154231523Y-83695466D01*
X154199500Y-83897648D01*
X154199500Y-93102352D01*
X154210503Y-93171824D01*
X154231522Y-93304529D01*
X154231525Y-93304544D01*
X154294776Y-93499210D01*
X154294781Y-93499221D01*
X154320540Y-93549777D01*
X154387712Y-93681610D01*
X154387715Y-93681615D01*
X154508033Y-93847219D01*
X156652780Y-95991966D01*
X156754781Y-96066073D01*
X156818389Y-96112287D01*
X156818391Y-96112288D01*
X156909532Y-96158727D01*
X156909569Y-96158745D01*
X156909585Y-96158753D01*
X157000781Y-96205220D01*
X157000783Y-96205221D01*
X157098119Y-96236847D01*
X157098123Y-96236848D01*
X157195465Y-96268477D01*
X157195464Y-96268477D01*
X157397648Y-96300500D01*
X159560293Y-96300500D01*
X159700878Y-96320713D01*
X159830073Y-96379714D01*
X159871410Y-96409363D01*
X159874253Y-96411630D01*
X159874255Y-96411631D01*
X159874259Y-96411635D01*
X160097226Y-96563651D01*
X160340359Y-96680738D01*
X160598228Y-96760280D01*
X160865071Y-96800500D01*
X160865075Y-96800500D01*
X161134925Y-96800500D01*
X161134929Y-96800500D01*
X161401772Y-96760280D01*
X161659641Y-96680738D01*
X161902775Y-96563651D01*
X162125741Y-96411635D01*
X162323561Y-96228085D01*
X162491815Y-96017102D01*
X162626743Y-95783398D01*
X162725334Y-95532195D01*
X162785383Y-95269103D01*
X162805549Y-95000000D01*
X162785383Y-94730897D01*
X162725334Y-94467805D01*
X162723526Y-94463199D01*
X162626744Y-94216604D01*
X162626743Y-94216602D01*
X162491819Y-93982905D01*
X162491815Y-93982898D01*
X162491808Y-93982889D01*
X162323563Y-93771917D01*
X162242721Y-93696907D01*
X162125741Y-93588365D01*
X161902775Y-93436349D01*
X161808393Y-93390897D01*
X161659649Y-93319265D01*
X161659646Y-93319264D01*
X161659643Y-93319263D01*
X161659641Y-93319262D01*
X161401772Y-93239720D01*
X161401770Y-93239719D01*
X161401768Y-93239719D01*
X161295805Y-93223748D01*
X161134929Y-93199500D01*
X160865071Y-93199500D01*
X160741458Y-93218131D01*
X160598230Y-93239719D01*
X160438104Y-93289111D01*
X160340359Y-93319262D01*
X160340355Y-93319263D01*
X160340349Y-93319266D01*
X160097233Y-93436345D01*
X160097219Y-93436353D01*
X159874253Y-93588369D01*
X159871410Y-93590637D01*
X159867960Y-93592659D01*
X159858833Y-93598883D01*
X159858409Y-93598261D01*
X159748893Y-93662486D01*
X159611097Y-93696907D01*
X159560293Y-93699500D01*
X158245377Y-93699500D01*
X158104792Y-93679287D01*
X157975597Y-93620286D01*
X157892531Y-93553346D01*
X156946654Y-92607469D01*
X156861538Y-92493768D01*
X156811904Y-92360693D01*
X156800500Y-92254623D01*
X156800500Y-87502792D01*
X156820713Y-87362207D01*
X156879714Y-87233012D01*
X156972724Y-87125673D01*
X157092208Y-87048886D01*
X157228485Y-87008871D01*
X157370515Y-87008871D01*
X157506792Y-87048886D01*
X157580595Y-87090498D01*
X157717226Y-87183651D01*
X157960359Y-87300738D01*
X158218228Y-87380280D01*
X158485071Y-87420500D01*
X158485075Y-87420500D01*
X158754925Y-87420500D01*
X158754929Y-87420500D01*
X159021772Y-87380280D01*
X159208543Y-87322668D01*
X159348838Y-87300546D01*
X159355624Y-87300500D01*
X160764674Y-87300500D01*
X160905259Y-87320713D01*
X161034454Y-87379714D01*
X161117520Y-87446654D01*
X161186607Y-87515741D01*
X161278237Y-87584333D01*
X161415685Y-87687226D01*
X161666839Y-87824367D01*
X161857648Y-87895535D01*
X161934956Y-87924370D01*
X162110883Y-87962640D01*
X162214572Y-87985196D01*
X162500000Y-88005610D01*
X162785428Y-87985196D01*
X162905048Y-87959174D01*
X163065043Y-87924370D01*
X163065046Y-87924369D01*
X163333161Y-87824367D01*
X163584315Y-87687226D01*
X163813395Y-87515739D01*
X164015739Y-87313395D01*
X164187226Y-87084315D01*
X164324367Y-86833161D01*
X164370756Y-86708786D01*
X164438821Y-86584133D01*
X164539251Y-86483702D01*
X164663907Y-86415633D01*
X164802691Y-86385442D01*
X164944360Y-86395573D01*
X165077435Y-86445206D01*
X165191133Y-86530318D01*
X165191139Y-86530324D01*
X168053346Y-89392531D01*
X168138462Y-89506232D01*
X168188096Y-89639307D01*
X168199500Y-89745377D01*
X168199500Y-92228389D01*
X168179287Y-92368974D01*
X168120286Y-92498169D01*
X168090634Y-92539511D01*
X168008185Y-92642897D01*
X168008180Y-92642905D01*
X167873256Y-92876602D01*
X167873255Y-92876604D01*
X167774667Y-93127799D01*
X167730966Y-93319266D01*
X167714617Y-93390897D01*
X167694451Y-93660000D01*
X167714617Y-93929103D01*
X167714618Y-93929107D01*
X167774667Y-94192200D01*
X167873255Y-94443395D01*
X167873256Y-94443397D01*
X168008180Y-94677094D01*
X168008191Y-94677110D01*
X168176436Y-94888082D01*
X168176438Y-94888084D01*
X168176439Y-94888085D01*
X168374259Y-95071635D01*
X168597226Y-95223651D01*
X168840359Y-95340738D01*
X169098228Y-95420280D01*
X169365071Y-95460500D01*
X169365075Y-95460500D01*
X169634925Y-95460500D01*
X169634929Y-95460500D01*
X169901772Y-95420280D01*
X170159641Y-95340738D01*
X170402775Y-95223651D01*
X170625741Y-95071635D01*
X170823561Y-94888085D01*
X170991815Y-94677102D01*
X171126743Y-94443398D01*
X171225334Y-94192195D01*
X171285383Y-93929103D01*
X171305549Y-93660000D01*
X171285383Y-93390897D01*
X171225334Y-93127805D01*
X171219931Y-93114039D01*
X171126744Y-92876604D01*
X171126743Y-92876602D01*
X170991819Y-92642905D01*
X170991814Y-92642897D01*
X170909366Y-92539511D01*
X170837516Y-92416995D01*
X170803094Y-92279199D01*
X170800500Y-92228389D01*
X170800500Y-88897647D01*
X170768478Y-88695472D01*
X170768477Y-88695471D01*
X170768477Y-88695466D01*
X170758649Y-88665220D01*
X170711273Y-88519411D01*
X170707010Y-88504294D01*
X170664368Y-88420604D01*
X170623192Y-88339792D01*
X170612287Y-88318389D01*
X170491966Y-88152781D01*
X170491964Y-88152779D01*
X170491962Y-88152776D01*
X168353690Y-86014504D01*
X168268574Y-85900803D01*
X168218940Y-85767728D01*
X168208807Y-85626060D01*
X168238998Y-85487275D01*
X168307066Y-85362618D01*
X168407496Y-85262188D01*
X168532153Y-85194120D01*
X168670938Y-85163929D01*
X168812606Y-85174062D01*
X168853587Y-85184818D01*
X169098228Y-85260280D01*
X169365071Y-85300500D01*
X169365075Y-85300500D01*
X169634925Y-85300500D01*
X169634929Y-85300500D01*
X169901772Y-85260280D01*
X170159641Y-85180738D01*
X170402775Y-85063651D01*
X170625741Y-84911635D01*
X170823561Y-84728085D01*
X170863202Y-84678377D01*
X170966659Y-84581066D01*
X171093341Y-84516845D01*
X171232984Y-84490915D01*
X171253335Y-84490500D01*
X172573638Y-84490500D01*
X172714223Y-84510713D01*
X172843418Y-84569714D01*
X172950757Y-84662724D01*
X173015931Y-84758463D01*
X173056747Y-84836602D01*
X173060304Y-84843410D01*
X173188889Y-85001108D01*
X173188891Y-85001110D01*
X173346589Y-85129695D01*
X173346593Y-85129698D01*
X173526951Y-85223909D01*
X173722582Y-85279886D01*
X173841963Y-85290500D01*
X176158036Y-85290499D01*
X176277418Y-85279886D01*
X176473049Y-85223909D01*
X176653407Y-85129698D01*
X176811109Y-85001109D01*
X176939698Y-84843407D01*
X177033909Y-84663049D01*
X177089886Y-84467418D01*
X177100500Y-84348037D01*
X177100499Y-83135374D01*
X177120712Y-82994792D01*
X177179713Y-82865597D01*
X177246644Y-82782539D01*
X177582533Y-82446650D01*
X177696231Y-82361538D01*
X177829307Y-82311904D01*
X177935376Y-82300500D01*
X181001000Y-82300500D01*
X181141585Y-82320713D01*
X181270780Y-82379714D01*
X181378119Y-82472724D01*
X181454906Y-82592208D01*
X181494921Y-82728485D01*
X181500000Y-82799500D01*
X181500000Y-84633974D01*
X181479787Y-84774559D01*
X181420786Y-84903754D01*
X181327776Y-85011093D01*
X181250502Y-85066119D01*
X181192689Y-85099497D01*
X181192681Y-85099503D01*
X181099503Y-85192681D01*
X181099502Y-85192683D01*
X181033607Y-85306814D01*
X180999500Y-85434106D01*
X180999500Y-99000500D01*
X180979287Y-99141085D01*
X180920286Y-99270280D01*
X180827276Y-99377619D01*
X180707792Y-99454406D01*
X180571515Y-99494421D01*
X180500500Y-99499500D01*
X137023138Y-99499500D01*
X136968032Y-99496448D01*
X135944394Y-99382709D01*
X135806901Y-99347094D01*
X135685012Y-99274186D01*
X135588601Y-99169891D01*
X135525478Y-99042659D01*
X135500758Y-98902797D01*
X135500500Y-98886761D01*
X135500500Y-95000000D01*
X144359645Y-95000000D01*
X144378892Y-95269107D01*
X144379040Y-95271168D01*
X144436824Y-95536799D01*
X144531828Y-95791515D01*
X144662110Y-96030109D01*
X144662113Y-96030113D01*
X144825029Y-96247742D01*
X144825031Y-96247744D01*
X144825034Y-96247748D01*
X145017251Y-96439965D01*
X145017254Y-96439967D01*
X145017258Y-96439971D01*
X145234887Y-96602887D01*
X145234890Y-96602889D01*
X145473484Y-96733171D01*
X145473487Y-96733172D01*
X145728199Y-96828175D01*
X145993840Y-96885961D01*
X146265000Y-96905355D01*
X146536160Y-96885961D01*
X146801801Y-96828175D01*
X147056513Y-96733172D01*
X147295113Y-96602887D01*
X147512742Y-96439971D01*
X147512749Y-96439964D01*
X147526219Y-96428294D01*
X147527937Y-96430276D01*
X147619761Y-96361538D01*
X147752836Y-96311904D01*
X147858906Y-96300500D01*
X149400293Y-96300500D01*
X149540878Y-96320713D01*
X149670073Y-96379714D01*
X149711410Y-96409363D01*
X149714253Y-96411630D01*
X149714255Y-96411631D01*
X149714259Y-96411635D01*
X149937226Y-96563651D01*
X150180359Y-96680738D01*
X150438228Y-96760280D01*
X150705071Y-96800500D01*
X150705075Y-96800500D01*
X150974925Y-96800500D01*
X150974929Y-96800500D01*
X151241772Y-96760280D01*
X151499641Y-96680738D01*
X151742775Y-96563651D01*
X151965741Y-96411635D01*
X152163561Y-96228085D01*
X152331815Y-96017102D01*
X152466743Y-95783398D01*
X152565334Y-95532195D01*
X152625383Y-95269103D01*
X152645549Y-95000000D01*
X152625383Y-94730897D01*
X152565334Y-94467805D01*
X152563526Y-94463199D01*
X152466744Y-94216604D01*
X152466743Y-94216602D01*
X152331819Y-93982905D01*
X152331815Y-93982898D01*
X152331808Y-93982889D01*
X152163563Y-93771917D01*
X152082721Y-93696907D01*
X151965741Y-93588365D01*
X151742775Y-93436349D01*
X151648393Y-93390897D01*
X151499649Y-93319265D01*
X151499646Y-93319264D01*
X151499643Y-93319263D01*
X151499641Y-93319262D01*
X151241772Y-93239720D01*
X151241770Y-93239719D01*
X151241768Y-93239719D01*
X151135805Y-93223748D01*
X150974929Y-93199500D01*
X150705071Y-93199500D01*
X150581458Y-93218131D01*
X150438230Y-93239719D01*
X150278104Y-93289111D01*
X150180359Y-93319262D01*
X150180355Y-93319263D01*
X150180349Y-93319266D01*
X149937233Y-93436345D01*
X149937219Y-93436353D01*
X149714253Y-93588369D01*
X149711410Y-93590637D01*
X149707960Y-93592659D01*
X149698833Y-93598883D01*
X149698409Y-93598261D01*
X149588893Y-93662486D01*
X149451097Y-93696907D01*
X149400293Y-93699500D01*
X147858906Y-93699500D01*
X147718321Y-93679287D01*
X147589126Y-93620286D01*
X147527297Y-93570460D01*
X147526219Y-93571706D01*
X147512749Y-93560035D01*
X147512745Y-93560032D01*
X147512742Y-93560029D01*
X147295113Y-93397113D01*
X147295109Y-93397110D01*
X147056515Y-93266828D01*
X146801799Y-93171824D01*
X146536168Y-93114040D01*
X146536162Y-93114039D01*
X146536160Y-93114039D01*
X146265000Y-93094645D01*
X145993840Y-93114039D01*
X145993837Y-93114039D01*
X145993831Y-93114040D01*
X145728200Y-93171824D01*
X145473484Y-93266828D01*
X145234890Y-93397110D01*
X145017251Y-93560034D01*
X144825034Y-93752251D01*
X144662110Y-93969890D01*
X144531828Y-94208484D01*
X144436824Y-94463200D01*
X144379040Y-94728831D01*
X144379039Y-94728837D01*
X144379039Y-94728840D01*
X144359645Y-95000000D01*
X135500500Y-95000000D01*
X135500500Y-60999500D01*
X135520713Y-60858915D01*
X135579714Y-60729720D01*
X135672724Y-60622381D01*
X135792208Y-60545594D01*
X135928485Y-60505579D01*
X135999500Y-60500500D01*
X147001000Y-60500500D01*
X147141585Y-60520713D01*
G37*
%TD.AperFunction*%
%TA.AperFunction,Conductor*%
G36*
X175341085Y-62320713D02*
G01*
X175470280Y-62379714D01*
X175577619Y-62472724D01*
X175654406Y-62592208D01*
X175694421Y-62728485D01*
X175699500Y-62799500D01*
X175699500Y-64358030D01*
X175706549Y-64437322D01*
X175710114Y-64477418D01*
X175747559Y-64608285D01*
X175766090Y-64673046D01*
X175766095Y-64673057D01*
X175860302Y-64853407D01*
X175860304Y-64853410D01*
X175988889Y-65011108D01*
X175988891Y-65011110D01*
X176146589Y-65139695D01*
X176146593Y-65139698D01*
X176326951Y-65233909D01*
X176522582Y-65289886D01*
X176641963Y-65300500D01*
X177254621Y-65300499D01*
X177395205Y-65320712D01*
X177524400Y-65379713D01*
X177607467Y-65446652D01*
X178053346Y-65892530D01*
X178138462Y-66006231D01*
X178188096Y-66139306D01*
X178199500Y-66245377D01*
X178199500Y-75602352D01*
X178231522Y-75804532D01*
X178231523Y-75804535D01*
X178262450Y-75899718D01*
X178262451Y-75899723D01*
X178262452Y-75899723D01*
X178294777Y-75999214D01*
X178294780Y-75999219D01*
X178310522Y-76030114D01*
X178387713Y-76181611D01*
X178387715Y-76181615D01*
X178508032Y-76347217D01*
X178508033Y-76347218D01*
X178508034Y-76347219D01*
X179003397Y-76842582D01*
X179008469Y-76847653D01*
X179093585Y-76961354D01*
X179143219Y-77094429D01*
X179153352Y-77236098D01*
X179123161Y-77374882D01*
X179055093Y-77499539D01*
X178954663Y-77599970D01*
X178830006Y-77668038D01*
X178691222Y-77698229D01*
X178655623Y-77699500D01*
X176745377Y-77699500D01*
X176604792Y-77679287D01*
X176475597Y-77620286D01*
X176392530Y-77553345D01*
X176246652Y-77407466D01*
X176161536Y-77293765D01*
X176111902Y-77160689D01*
X176100499Y-77054621D01*
X176100499Y-76961969D01*
X176100499Y-76961964D01*
X176089886Y-76842582D01*
X176033909Y-76646951D01*
X175939698Y-76466593D01*
X175939693Y-76466587D01*
X175811110Y-76308891D01*
X175811108Y-76308889D01*
X175653410Y-76180304D01*
X175653407Y-76180302D01*
X175473057Y-76086095D01*
X175473054Y-76086093D01*
X175473049Y-76086091D01*
X175277418Y-76030114D01*
X175158037Y-76019500D01*
X175158029Y-76019500D01*
X172841969Y-76019500D01*
X172722582Y-76030114D01*
X172526953Y-76086090D01*
X172526942Y-76086095D01*
X172346592Y-76180302D01*
X172346589Y-76180304D01*
X172188891Y-76308889D01*
X172188889Y-76308891D01*
X172060306Y-76466587D01*
X172054697Y-76475098D01*
X171960456Y-76581359D01*
X171840096Y-76656764D01*
X171703367Y-76695206D01*
X171638047Y-76699500D01*
X170903221Y-76699500D01*
X170762636Y-76679287D01*
X170633441Y-76620286D01*
X170526102Y-76527276D01*
X170495143Y-76487071D01*
X170323563Y-76271917D01*
X170321599Y-76270095D01*
X170125741Y-76088365D01*
X169902775Y-75936349D01*
X169819428Y-75896211D01*
X169659649Y-75819265D01*
X169659646Y-75819264D01*
X169659643Y-75819263D01*
X169659641Y-75819262D01*
X169401772Y-75739720D01*
X169401770Y-75739719D01*
X169401768Y-75739719D01*
X169295805Y-75723748D01*
X169134929Y-75699500D01*
X168865071Y-75699500D01*
X168687175Y-75726313D01*
X168598226Y-75739720D01*
X168339082Y-75819655D01*
X168198786Y-75841778D01*
X168057939Y-75823478D01*
X167927954Y-75766239D01*
X167819360Y-75674697D01*
X167740955Y-75556269D01*
X167699091Y-75420548D01*
X167697160Y-75278531D01*
X167735318Y-75141723D01*
X167810474Y-75021206D01*
X167839144Y-74989989D01*
X168015739Y-74813395D01*
X168187226Y-74584315D01*
X168324367Y-74333161D01*
X168424369Y-74065046D01*
X168485196Y-73785428D01*
X168505610Y-73500000D01*
X168485196Y-73214572D01*
X168424369Y-72934954D01*
X168378797Y-72812772D01*
X168327181Y-72674384D01*
X168296990Y-72535600D01*
X168307121Y-72393931D01*
X168327181Y-72325616D01*
X168335536Y-72303217D01*
X168424369Y-72065046D01*
X168485196Y-71785428D01*
X168505152Y-71506393D01*
X168535343Y-71367612D01*
X168603411Y-71242956D01*
X168650027Y-71189156D01*
X169991966Y-69847219D01*
X170112287Y-69681611D01*
X170173052Y-69562352D01*
X170205220Y-69499219D01*
X170226060Y-69435081D01*
X170268474Y-69304544D01*
X170268474Y-69304542D01*
X170268477Y-69304534D01*
X170300500Y-69102352D01*
X170300500Y-68771610D01*
X170320713Y-68631025D01*
X170379714Y-68501830D01*
X170409368Y-68460487D01*
X170419524Y-68447751D01*
X170491815Y-68357102D01*
X170626743Y-68123398D01*
X170725334Y-67872195D01*
X170785383Y-67609103D01*
X170805549Y-67340000D01*
X170785383Y-67070897D01*
X170725334Y-66807805D01*
X170626743Y-66556602D01*
X170491815Y-66322898D01*
X170323561Y-66111915D01*
X170125741Y-65928365D01*
X169902775Y-65776349D01*
X169785603Y-65719922D01*
X169659649Y-65659265D01*
X169659646Y-65659264D01*
X169659643Y-65659263D01*
X169659641Y-65659262D01*
X169401772Y-65579720D01*
X169401770Y-65579719D01*
X169401768Y-65579719D01*
X169295805Y-65563748D01*
X169134929Y-65539500D01*
X168865071Y-65539500D01*
X168741458Y-65558131D01*
X168598230Y-65579719D01*
X168438104Y-65629111D01*
X168340359Y-65659262D01*
X168340355Y-65659263D01*
X168340349Y-65659266D01*
X168097233Y-65776345D01*
X168097222Y-65776351D01*
X167874257Y-65928366D01*
X167676436Y-66111917D01*
X167508191Y-66322889D01*
X167508180Y-66322905D01*
X167373256Y-66556602D01*
X167373255Y-66556604D01*
X167274667Y-66807799D01*
X167274666Y-66807805D01*
X167214617Y-67070897D01*
X167194451Y-67340000D01*
X167214617Y-67609103D01*
X167214618Y-67609107D01*
X167274667Y-67872200D01*
X167373255Y-68123395D01*
X167373258Y-68123401D01*
X167424908Y-68212861D01*
X167477695Y-68344717D01*
X167491196Y-68486104D01*
X167464316Y-68625568D01*
X167399234Y-68751809D01*
X167345607Y-68815206D01*
X166810848Y-69349965D01*
X166697147Y-69435081D01*
X166564072Y-69484715D01*
X166493605Y-69494847D01*
X166214572Y-69514804D01*
X166214569Y-69514804D01*
X166214563Y-69514805D01*
X165917539Y-69579419D01*
X165917106Y-69577428D01*
X165799484Y-69594337D01*
X165658900Y-69574120D01*
X165529707Y-69515114D01*
X165422371Y-69422100D01*
X165345587Y-69302615D01*
X165305577Y-69166336D01*
X165300500Y-69095337D01*
X165300500Y-68931610D01*
X165320713Y-68791025D01*
X165379714Y-68661830D01*
X165409368Y-68620487D01*
X165419524Y-68607751D01*
X165491815Y-68517102D01*
X165626743Y-68283398D01*
X165725334Y-68032195D01*
X165785383Y-67769103D01*
X165805549Y-67500000D01*
X165785383Y-67230897D01*
X165725334Y-66967805D01*
X165626743Y-66716602D01*
X165491815Y-66482898D01*
X165409365Y-66379509D01*
X165337516Y-66256995D01*
X165303094Y-66119199D01*
X165300500Y-66068389D01*
X165300500Y-64245377D01*
X165320713Y-64104792D01*
X165379714Y-63975597D01*
X165446654Y-63892531D01*
X166892531Y-62446654D01*
X167006232Y-62361538D01*
X167139307Y-62311904D01*
X167245377Y-62300500D01*
X175200500Y-62300500D01*
X175341085Y-62320713D01*
G37*
%TD.AperFunction*%
%TA.AperFunction,Conductor*%
G36*
X158841085Y-63920713D02*
G01*
X158970280Y-63979714D01*
X159077619Y-64072724D01*
X159154406Y-64192208D01*
X159194421Y-64328485D01*
X159199500Y-64399500D01*
X159199500Y-67095337D01*
X159179287Y-67235922D01*
X159120286Y-67365117D01*
X159027276Y-67472456D01*
X158907792Y-67549243D01*
X158771515Y-67589258D01*
X158629485Y-67589258D01*
X158582542Y-67579046D01*
X158582461Y-67579419D01*
X158285433Y-67514804D01*
X158268693Y-67512398D01*
X158132416Y-67472386D01*
X158012931Y-67395601D01*
X157919919Y-67288264D01*
X157860915Y-67159070D01*
X157852108Y-67124570D01*
X157820077Y-66977322D01*
X157727574Y-66729311D01*
X157727574Y-66729310D01*
X157633267Y-66556602D01*
X157600716Y-66496989D01*
X157442087Y-66285085D01*
X157254915Y-66097913D01*
X157043011Y-65939284D01*
X156944959Y-65885743D01*
X156810689Y-65812425D01*
X156810686Y-65812424D01*
X156562678Y-65719923D01*
X156562675Y-65719922D01*
X156304033Y-65663658D01*
X156304034Y-65663658D01*
X156304028Y-65663657D01*
X156304026Y-65663657D01*
X156040000Y-65644773D01*
X156039998Y-65644773D01*
X155876886Y-65656439D01*
X155735218Y-65646306D01*
X155602143Y-65596671D01*
X155488442Y-65511555D01*
X155403327Y-65397854D01*
X155353692Y-65264779D01*
X155343560Y-65123116D01*
X155343561Y-65123110D01*
X155355227Y-64960006D01*
X155347603Y-64853410D01*
X155336343Y-64695974D01*
X155326947Y-64652781D01*
X155294924Y-64505570D01*
X155284791Y-64363901D01*
X155314982Y-64225117D01*
X155383050Y-64100460D01*
X155483481Y-64000030D01*
X155608138Y-63931962D01*
X155746922Y-63901771D01*
X155782520Y-63900500D01*
X158700500Y-63900500D01*
X158841085Y-63920713D01*
G37*
%TD.AperFunction*%
%TD*%
D25*
X181500000Y-85500000D02*
X181500000Y-100000000D01*
X190500000Y-85500000D02*
X181500000Y-85500000D01*
X190500000Y-74500000D02*
X190500000Y-85500000D01*
X181500000Y-74500000D02*
X190500000Y-74500000D01*
X181500000Y-60000000D02*
X181500000Y-74500000D01*
X181500000Y-100000000D02*
X135000000Y-100000000D01*
X135000000Y-60000000D02*
X181500000Y-60000000D01*
X135000000Y-100000000D02*
X135000000Y-60000000D01*
M02*
