<?xml version="1.0" encoding="UTF-8"?>
<svg xmlns="http://www.w3.org/2000/svg" xmlns:xlink="http://www.w3.org/1999/xlink" width="173pt" height="124pt" viewBox="0 0 173 124" version="1.1">
<g id="surface5566">
<path style=" stroke:none;fill-rule:evenodd;fill:rgb(45.098039%,45.098039%,87.058824%);fill-opacity:1;" d="M 29.769531 36.757812 C 29.769531 34.109375 25.800781 34.109375 25.800781 36.757812 C 25.800781 39.402344 29.769531 39.402344 29.769531 36.757812 "/>
<path style=" stroke:none;fill-rule:evenodd;fill:rgb(45.098039%,45.098039%,87.058824%);fill-opacity:1;" d="M 29.769531 29.671875 C 29.769531 27.023438 25.800781 27.023438 25.800781 29.671875 C 25.800781 32.316406 29.769531 32.316406 29.769531 29.671875 "/>
<path style=" stroke:none;fill-rule:evenodd;fill:rgb(45.098039%,45.098039%,87.058824%);fill-opacity:1;" d="M 32.746094 65.359375 C 32.746094 62.523438 28.496094 62.523438 28.496094 65.359375 C 28.496094 68.191406 32.746094 68.191406 32.746094 65.359375 "/>
<path style=" stroke:none;fill-rule:evenodd;fill:rgb(45.098039%,45.098039%,87.058824%);fill-opacity:1;" d="M 32.746094 51.523438 C 32.746094 48.691406 28.496094 48.691406 28.496094 51.523438 C 28.496094 54.359375 32.746094 54.359375 32.746094 51.523438 "/>
<path style=" stroke:none;fill-rule:evenodd;fill:rgb(45.098039%,45.098039%,87.058824%);fill-opacity:1;" d="M 74.898438 53.621094 C 71.875 53.621094 71.875 58.160156 74.898438 58.160156 C 77.921875 58.160156 77.921875 53.621094 74.898438 53.621094 "/>
<path style=" stroke:none;fill-rule:evenodd;fill:rgb(45.098039%,45.098039%,87.058824%);fill-opacity:1;" d="M 74.898438 60.824219 C 71.875 60.824219 71.875 65.359375 74.898438 65.359375 C 77.921875 65.359375 77.921875 60.824219 74.898438 60.824219 "/>
<path style=" stroke:none;fill-rule:evenodd;fill:rgb(45.098039%,45.098039%,87.058824%);fill-opacity:1;" d="M 74.898438 68.023438 C 71.875 68.023438 71.875 72.558594 74.898438 72.558594 C 77.921875 72.558594 77.921875 68.023438 74.898438 68.023438 "/>
<path style=" stroke:none;fill-rule:evenodd;fill:rgb(45.098039%,45.098039%,87.058824%);fill-opacity:1;" d="M 74.898438 75.222656 C 71.875 75.222656 71.875 79.757812 74.898438 79.757812 C 77.921875 79.757812 77.921875 75.222656 74.898438 75.222656 "/>
<path style=" stroke:none;fill-rule:evenodd;fill:rgb(45.098039%,45.098039%,87.058824%);fill-opacity:1;" d="M 53.296875 75.222656 C 50.273438 75.222656 50.273438 79.757812 53.296875 79.757812 C 56.320312 79.757812 56.320312 75.222656 53.296875 75.222656 "/>
<path style=" stroke:none;fill-rule:evenodd;fill:rgb(45.098039%,45.098039%,87.058824%);fill-opacity:1;" d="M 53.296875 68.023438 C 50.273438 68.023438 50.273438 72.558594 53.296875 72.558594 C 56.320312 72.558594 56.320312 68.023438 53.296875 68.023438 "/>
<path style=" stroke:none;fill-rule:evenodd;fill:rgb(45.098039%,45.098039%,87.058824%);fill-opacity:1;" d="M 53.296875 60.824219 C 50.273438 60.824219 50.273438 65.359375 53.296875 65.359375 C 56.320312 65.359375 56.320312 60.824219 53.296875 60.824219 "/>
<path style=" stroke:none;fill-rule:evenodd;fill:rgb(45.098039%,45.098039%,87.058824%);fill-opacity:1;" d="M 51.03125 58.160156 L 55.566406 58.160156 L 55.566406 53.625 L 51.03125 53.625 Z M 51.03125 58.160156 "/>
<path style=" stroke:none;fill-rule:evenodd;fill:rgb(45.098039%,45.098039%,87.058824%);fill-opacity:1;" d="M 83.914062 104.078125 C 83.914062 101.054688 79.378906 101.054688 79.378906 104.078125 C 79.378906 107.101562 83.914062 107.101562 83.914062 104.078125 "/>
<path style=" stroke:none;fill-rule:evenodd;fill:rgb(45.098039%,45.098039%,87.058824%);fill-opacity:1;" d="M 52.84375 101.8125 C 49.820312 101.8125 49.820312 106.347656 52.84375 106.347656 C 55.867188 106.347656 55.867188 101.8125 52.84375 101.8125 "/>
<path style=" stroke:none;fill-rule:evenodd;fill:rgb(45.098039%,45.098039%,87.058824%);fill-opacity:1;" d="M 92.417969 26.125 C 92.417969 23.101562 87.882812 23.101562 87.882812 26.125 C 87.882812 29.152344 92.417969 29.152344 92.417969 26.125 "/>
<path style=" stroke:none;fill-rule:evenodd;fill:rgb(45.098039%,45.098039%,87.058824%);fill-opacity:1;" d="M 90.148438 52.660156 C 87.125 52.660156 87.125 57.195312 90.148438 57.195312 C 93.171875 57.195312 93.171875 52.660156 90.148438 52.660156 "/>
<path style=" stroke:none;fill-rule:evenodd;fill:rgb(45.098039%,45.098039%,87.058824%);fill-opacity:1;" d="M 108.007812 71.480469 C 108.007812 68.457031 103.472656 68.457031 103.472656 71.480469 C 103.472656 74.503906 108.007812 74.503906 108.007812 71.480469 "/>
<path style=" stroke:none;fill-rule:evenodd;fill:rgb(45.098039%,45.098039%,87.058824%);fill-opacity:1;" d="M 105.738281 98.011719 C 102.714844 98.011719 102.714844 102.546875 105.738281 102.546875 C 108.761719 102.546875 108.761719 98.011719 105.738281 98.011719 "/>
<path style=" stroke:none;fill-rule:evenodd;fill:rgb(45.098039%,45.098039%,87.058824%);fill-opacity:1;" d="M 106.589844 25.671875 C 106.589844 22.648438 102.054688 22.648438 102.054688 25.671875 C 102.054688 28.695312 106.589844 28.695312 106.589844 25.671875 "/>
<path style=" stroke:none;fill-rule:evenodd;fill:rgb(45.098039%,45.098039%,87.058824%);fill-opacity:1;" d="M 104.320312 52.207031 C 101.296875 52.207031 101.296875 56.742188 104.320312 56.742188 C 107.34375 56.742188 107.34375 52.207031 104.320312 52.207031 "/>
<path style=" stroke:none;fill-rule:evenodd;fill:rgb(45.098039%,45.098039%,87.058824%);fill-opacity:1;" d="M 54.886719 27.828125 L 54.886719 24.425781 L 51.484375 24.425781 L 51.484375 27.828125 L 54.886719 27.828125 "/>
<path style=" stroke:none;fill-rule:evenodd;fill:rgb(45.098039%,45.098039%,87.058824%);fill-opacity:1;" d="M 55.59375 27.828125 C 55.59375 26.882812 54.175781 26.882812 54.175781 27.828125 C 54.175781 28.773438 55.59375 28.773438 55.59375 27.828125 "/>
<path style=" stroke:none;fill-rule:evenodd;fill:rgb(45.098039%,45.098039%,87.058824%);fill-opacity:1;" d="M 55.59375 24.425781 C 55.59375 23.480469 54.175781 23.480469 54.175781 24.425781 C 54.175781 25.371094 55.59375 25.371094 55.59375 24.425781 "/>
<path style=" stroke:none;fill-rule:evenodd;fill:rgb(45.098039%,45.098039%,87.058824%);fill-opacity:1;" d="M 52.191406 24.425781 C 52.191406 23.480469 50.777344 23.480469 50.777344 24.425781 C 50.777344 25.371094 52.191406 25.371094 52.191406 24.425781 "/>
<path style=" stroke:none;fill-rule:evenodd;fill:rgb(45.098039%,45.098039%,87.058824%);fill-opacity:1;" d="M 52.191406 27.828125 C 52.191406 26.882812 50.777344 26.882812 50.777344 27.828125 C 50.777344 28.773438 52.191406 28.773438 52.191406 27.828125 "/>
<path style="fill:none;stroke-width:0.019685;stroke-linecap:butt;stroke-linejoin:miter;stroke:rgb(45.098039%,45.098039%,87.058824%);stroke-opacity:1;stroke-miterlimit:10;" d="M 0.0236344 -0.0236299 L 0.0236344 0.0236249 " transform="matrix(72,0,0,-72,53.185039,26.126772)"/>
<path style="fill:none;stroke-width:0.019685;stroke-linecap:butt;stroke-linejoin:miter;stroke:rgb(45.098039%,45.098039%,87.058824%);stroke-opacity:1;stroke-miterlimit:10;" d="M 0.0236344 0.0236249 L -0.0236203 0.0236249 " transform="matrix(72,0,0,-72,53.185039,26.126772)"/>
<path style="fill:none;stroke-width:0.019685;stroke-linecap:butt;stroke-linejoin:miter;stroke:rgb(45.098039%,45.098039%,87.058824%);stroke-opacity:1;stroke-miterlimit:10;" d="M -0.0236203 0.0236249 L -0.0236203 -0.0236299 " transform="matrix(72,0,0,-72,53.185039,26.126772)"/>
<path style="fill:none;stroke-width:0.019685;stroke-linecap:butt;stroke-linejoin:miter;stroke:rgb(45.098039%,45.098039%,87.058824%);stroke-opacity:1;stroke-miterlimit:10;" d="M -0.0236203 -0.0236299 L 0.0236344 -0.0236299 " transform="matrix(72,0,0,-72,53.185039,26.126772)"/>
<path style=" stroke:none;fill-rule:evenodd;fill:rgb(45.098039%,45.098039%,87.058824%);fill-opacity:1;" d="M 55.59375 18.925781 C 55.59375 15.714844 50.777344 15.714844 50.777344 18.925781 C 50.777344 22.140625 55.59375 22.140625 55.59375 18.925781 "/>
<path style=" stroke:none;fill-rule:evenodd;fill:rgb(45.098039%,45.098039%,87.058824%);fill-opacity:1;" d="M 62.792969 26.125 C 62.792969 22.914062 57.976562 22.914062 57.976562 26.125 C 57.976562 29.339844 62.792969 29.339844 62.792969 26.125 "/>
<path style=" stroke:none;fill-rule:evenodd;fill:rgb(45.098039%,45.098039%,87.058824%);fill-opacity:1;" d="M 62.792969 18.925781 C 62.792969 15.714844 57.976562 15.714844 57.976562 18.925781 C 57.976562 22.140625 62.792969 22.140625 62.792969 18.925781 "/>
<path style=" stroke:none;fill-rule:evenodd;fill:rgb(45.098039%,45.098039%,87.058824%);fill-opacity:1;" d="M 69.996094 26.125 C 69.996094 22.914062 65.175781 22.914062 65.175781 26.125 C 65.175781 29.339844 69.996094 29.339844 69.996094 26.125 "/>
<path style=" stroke:none;fill-rule:evenodd;fill:rgb(45.098039%,45.098039%,87.058824%);fill-opacity:1;" d="M 69.996094 18.925781 C 69.996094 15.714844 65.175781 15.714844 65.175781 18.925781 C 65.175781 22.140625 69.996094 22.140625 69.996094 18.925781 "/>
<path style=" stroke:none;fill-rule:evenodd;fill:rgb(45.098039%,45.098039%,87.058824%);fill-opacity:1;" d="M 142.945312 52.703125 L 162.078125 52.703125 L 162.078125 50.574219 L 142.945312 50.574219 L 142.945312 52.703125 "/>
<path style=" stroke:none;fill-rule:evenodd;fill:rgb(45.098039%,45.098039%,87.058824%);fill-opacity:1;" d="M 144.007812 52.703125 C 144.007812 51.285156 141.882812 51.285156 141.882812 52.703125 C 141.882812 54.117188 144.007812 54.117188 144.007812 52.703125 "/>
<path style=" stroke:none;fill-rule:evenodd;fill:rgb(45.098039%,45.098039%,87.058824%);fill-opacity:1;" d="M 163.140625 52.703125 C 163.140625 51.285156 161.015625 51.285156 161.015625 52.703125 C 161.015625 54.117188 163.140625 54.117188 163.140625 52.703125 "/>
<path style=" stroke:none;fill-rule:evenodd;fill:rgb(45.098039%,45.098039%,87.058824%);fill-opacity:1;" d="M 163.140625 50.574219 C 163.140625 49.160156 161.015625 49.160156 161.015625 50.574219 C 161.015625 51.992188 163.140625 51.992188 163.140625 50.574219 "/>
<path style=" stroke:none;fill-rule:evenodd;fill:rgb(45.098039%,45.098039%,87.058824%);fill-opacity:1;" d="M 144.007812 50.574219 C 144.007812 49.160156 141.882812 49.160156 141.882812 50.574219 C 141.882812 51.992188 144.007812 51.992188 144.007812 50.574219 "/>
<path style="fill:none;stroke-width:0.0295276;stroke-linecap:butt;stroke-linejoin:miter;stroke:rgb(45.098039%,45.098039%,87.058824%);stroke-opacity:1;stroke-miterlimit:10;" d="M -0.132857 -0.0147853 L 0.132876 -0.0147853 " transform="matrix(72,0,0,-72,152.511024,51.638583)"/>
<path style="fill:none;stroke-width:0.0295276;stroke-linecap:butt;stroke-linejoin:miter;stroke:rgb(45.098039%,45.098039%,87.058824%);stroke-opacity:1;stroke-miterlimit:10;" d="M 0.132876 -0.0147853 L 0.132876 0.0147828 " transform="matrix(72,0,0,-72,152.511024,51.638583)"/>
<path style="fill:none;stroke-width:0.0295276;stroke-linecap:butt;stroke-linejoin:miter;stroke:rgb(45.098039%,45.098039%,87.058824%);stroke-opacity:1;stroke-miterlimit:10;" d="M 0.132876 0.0147828 L -0.132857 0.0147828 " transform="matrix(72,0,0,-72,152.511024,51.638583)"/>
<path style="fill:none;stroke-width:0.0295276;stroke-linecap:butt;stroke-linejoin:miter;stroke:rgb(45.098039%,45.098039%,87.058824%);stroke-opacity:1;stroke-miterlimit:10;" d="M -0.132857 0.0147828 L -0.132857 -0.0147853 " transform="matrix(72,0,0,-72,152.511024,51.638583)"/>
<path style=" stroke:none;fill-rule:evenodd;fill:rgb(45.098039%,45.098039%,87.058824%);fill-opacity:1;" d="M 142.589844 59.433594 L 159.597656 59.433594 L 159.597656 58.015625 L 142.589844 58.015625 L 142.589844 59.433594 "/>
<path style=" stroke:none;fill-rule:evenodd;fill:rgb(45.098039%,45.098039%,87.058824%);fill-opacity:1;" d="M 143.296875 59.433594 C 143.296875 58.488281 141.882812 58.488281 141.882812 59.433594 C 141.882812 60.378906 143.296875 60.378906 143.296875 59.433594 "/>
<path style=" stroke:none;fill-rule:evenodd;fill:rgb(45.098039%,45.098039%,87.058824%);fill-opacity:1;" d="M 160.304688 59.433594 C 160.304688 58.488281 158.890625 58.488281 158.890625 59.433594 C 158.890625 60.378906 160.304688 60.378906 160.304688 59.433594 "/>
<path style=" stroke:none;fill-rule:evenodd;fill:rgb(45.098039%,45.098039%,87.058824%);fill-opacity:1;" d="M 160.304688 58.015625 C 160.304688 57.070312 158.890625 57.070312 158.890625 58.015625 C 158.890625 58.960938 160.304688 58.960938 160.304688 58.015625 "/>
<path style=" stroke:none;fill-rule:evenodd;fill:rgb(45.098039%,45.098039%,87.058824%);fill-opacity:1;" d="M 143.296875 58.015625 C 143.296875 57.070312 141.882812 57.070312 141.882812 58.015625 C 141.882812 58.960938 143.296875 58.960938 143.296875 58.015625 "/>
<path style="fill:none;stroke-width:0.019685;stroke-linecap:butt;stroke-linejoin:miter;stroke:rgb(45.098039%,45.098039%,87.058824%);stroke-opacity:1;stroke-miterlimit:10;" d="M -0.118109 -0.00983884 L 0.11811 -0.00983884 " transform="matrix(72,0,0,-72,151.093701,58.725197)"/>
<path style="fill:none;stroke-width:0.019685;stroke-linecap:butt;stroke-linejoin:miter;stroke:rgb(45.098039%,45.098039%,87.058824%);stroke-opacity:1;stroke-miterlimit:10;" d="M 0.11811 -0.00983884 L 0.11811 0.00985517 " transform="matrix(72,0,0,-72,151.093701,58.725197)"/>
<path style="fill:none;stroke-width:0.019685;stroke-linecap:butt;stroke-linejoin:miter;stroke:rgb(45.098039%,45.098039%,87.058824%);stroke-opacity:1;stroke-miterlimit:10;" d="M 0.11811 0.00985517 L -0.118109 0.00985517 " transform="matrix(72,0,0,-72,151.093701,58.725197)"/>
<path style="fill:none;stroke-width:0.019685;stroke-linecap:butt;stroke-linejoin:miter;stroke:rgb(45.098039%,45.098039%,87.058824%);stroke-opacity:1;stroke-miterlimit:10;" d="M -0.118109 0.00985517 L -0.118109 -0.00983884 " transform="matrix(72,0,0,-72,151.093701,58.725197)"/>
<path style=" stroke:none;fill-rule:evenodd;fill:rgb(45.098039%,45.098039%,87.058824%);fill-opacity:1;" d="M 142.589844 65.101562 L 159.597656 65.101562 L 159.597656 63.6875 L 142.589844 63.6875 L 142.589844 65.101562 "/>
<path style=" stroke:none;fill-rule:evenodd;fill:rgb(45.098039%,45.098039%,87.058824%);fill-opacity:1;" d="M 143.296875 65.101562 C 143.296875 64.160156 141.882812 64.160156 141.882812 65.101562 C 141.882812 66.046875 143.296875 66.046875 143.296875 65.101562 "/>
<path style=" stroke:none;fill-rule:evenodd;fill:rgb(45.098039%,45.098039%,87.058824%);fill-opacity:1;" d="M 160.304688 65.101562 C 160.304688 64.160156 158.890625 64.160156 158.890625 65.101562 C 158.890625 66.046875 160.304688 66.046875 160.304688 65.101562 "/>
<path style=" stroke:none;fill-rule:evenodd;fill:rgb(45.098039%,45.098039%,87.058824%);fill-opacity:1;" d="M 160.304688 63.6875 C 160.304688 62.742188 158.890625 62.742188 158.890625 63.6875 C 158.890625 64.628906 160.304688 64.628906 160.304688 63.6875 "/>
<path style=" stroke:none;fill-rule:evenodd;fill:rgb(45.098039%,45.098039%,87.058824%);fill-opacity:1;" d="M 143.296875 63.6875 C 143.296875 62.742188 141.882812 62.742188 141.882812 63.6875 C 141.882812 64.628906 143.296875 64.628906 143.296875 63.6875 "/>
<path style="fill:none;stroke-width:0.019685;stroke-linecap:butt;stroke-linejoin:miter;stroke:rgb(45.098039%,45.098039%,87.058824%);stroke-opacity:1;stroke-miterlimit:10;" d="M -0.118109 -0.00982047 L 0.11811 -0.00982047 " transform="matrix(72,0,0,-72,151.093701,64.394488)"/>
<path style="fill:none;stroke-width:0.019685;stroke-linecap:butt;stroke-linejoin:miter;stroke:rgb(45.098039%,45.098039%,87.058824%);stroke-opacity:1;stroke-miterlimit:10;" d="M 0.11811 -0.00982047 L 0.11811 0.00981928 " transform="matrix(72,0,0,-72,151.093701,64.394488)"/>
<path style="fill:none;stroke-width:0.019685;stroke-linecap:butt;stroke-linejoin:miter;stroke:rgb(45.098039%,45.098039%,87.058824%);stroke-opacity:1;stroke-miterlimit:10;" d="M 0.11811 0.00981928 L -0.118109 0.00981928 " transform="matrix(72,0,0,-72,151.093701,64.394488)"/>
<path style="fill:none;stroke-width:0.019685;stroke-linecap:butt;stroke-linejoin:miter;stroke:rgb(45.098039%,45.098039%,87.058824%);stroke-opacity:1;stroke-miterlimit:10;" d="M -0.118109 0.00981928 L -0.118109 -0.00982047 " transform="matrix(72,0,0,-72,151.093701,64.394488)"/>
<path style=" stroke:none;fill-rule:evenodd;fill:rgb(45.098039%,45.098039%,87.058824%);fill-opacity:1;" d="M 142.945312 72.542969 L 162.078125 72.542969 L 162.078125 70.417969 L 142.945312 70.417969 L 142.945312 72.542969 "/>
<path style=" stroke:none;fill-rule:evenodd;fill:rgb(45.098039%,45.098039%,87.058824%);fill-opacity:1;" d="M 144.007812 72.542969 C 144.007812 71.125 141.882812 71.125 141.882812 72.542969 C 141.882812 73.960938 144.007812 73.960938 144.007812 72.542969 "/>
<path style=" stroke:none;fill-rule:evenodd;fill:rgb(45.098039%,45.098039%,87.058824%);fill-opacity:1;" d="M 163.140625 72.542969 C 163.140625 71.125 161.015625 71.125 161.015625 72.542969 C 161.015625 73.960938 163.140625 73.960938 163.140625 72.542969 "/>
<path style=" stroke:none;fill-rule:evenodd;fill:rgb(45.098039%,45.098039%,87.058824%);fill-opacity:1;" d="M 163.140625 70.417969 C 163.140625 69 161.015625 69 161.015625 70.417969 C 161.015625 71.835938 163.140625 71.835938 163.140625 70.417969 "/>
<path style=" stroke:none;fill-rule:evenodd;fill:rgb(45.098039%,45.098039%,87.058824%);fill-opacity:1;" d="M 144.007812 70.417969 C 144.007812 69 141.882812 69 141.882812 70.417969 C 141.882812 71.835938 144.007812 71.835938 144.007812 70.417969 "/>
<path style="fill:none;stroke-width:0.0295276;stroke-linecap:butt;stroke-linejoin:miter;stroke:rgb(45.098039%,45.098039%,87.058824%);stroke-opacity:1;stroke-miterlimit:10;" d="M -0.132857 -0.0147481 L 0.132876 -0.0147481 " transform="matrix(72,0,0,-72,152.511024,71.481102)"/>
<path style="fill:none;stroke-width:0.0295276;stroke-linecap:butt;stroke-linejoin:miter;stroke:rgb(45.098039%,45.098039%,87.058824%);stroke-opacity:1;stroke-miterlimit:10;" d="M 0.132876 -0.0147481 L 0.132876 0.0147657 " transform="matrix(72,0,0,-72,152.511024,71.481102)"/>
<path style="fill:none;stroke-width:0.0295276;stroke-linecap:butt;stroke-linejoin:miter;stroke:rgb(45.098039%,45.098039%,87.058824%);stroke-opacity:1;stroke-miterlimit:10;" d="M 0.132876 0.0147657 L -0.132857 0.0147657 " transform="matrix(72,0,0,-72,152.511024,71.481102)"/>
<path style="fill:none;stroke-width:0.0295276;stroke-linecap:butt;stroke-linejoin:miter;stroke:rgb(45.098039%,45.098039%,87.058824%);stroke-opacity:1;stroke-miterlimit:10;" d="M -0.132857 0.0147657 L -0.132857 -0.0147481 " transform="matrix(72,0,0,-72,152.511024,71.481102)"/>
<path style=" stroke:none;fill-rule:evenodd;fill:rgb(45.098039%,45.098039%,87.058824%);fill-opacity:1;" d="M 30.125 106.628906 L 35.226562 106.628906 L 35.226562 101.527344 L 30.125 101.527344 Z M 30.125 106.628906 "/>
<path style=" stroke:none;fill-rule:evenodd;fill:rgb(45.098039%,45.098039%,87.058824%);fill-opacity:1;" d="M 42.425781 104.078125 C 42.425781 100.679688 37.324219 100.679688 37.324219 104.078125 C 37.324219 107.480469 42.425781 107.480469 42.425781 104.078125 "/>
<path style=" stroke:none;fill-rule:evenodd;fill:rgb(45.098039%,45.098039%,87.058824%);fill-opacity:1;" d="M 115.378906 59.347656 L 121.613281 59.347656 L 121.613281 53.113281 L 115.378906 53.113281 Z M 115.378906 59.347656 "/>
<path style=" stroke:none;fill-rule:evenodd;fill:rgb(45.098039%,45.098039%,87.058824%);fill-opacity:1;" d="M 118.496094 31.511719 C 114.335938 31.511719 114.335938 37.75 118.496094 37.75 C 122.652344 37.75 122.652344 31.511719 118.496094 31.511719 "/>
<path style=" stroke:none;fill-rule:evenodd;fill:rgb(45.098039%,45.098039%,87.058824%);fill-opacity:1;" d="M 118.210938 73.71875 L 124.445312 73.71875 L 124.445312 67.484375 L 118.210938 67.484375 Z M 118.210938 73.71875 "/>
<path style=" stroke:none;fill-rule:evenodd;fill:rgb(45.098039%,45.098039%,87.058824%);fill-opacity:1;" d="M 121.328125 89.085938 C 117.171875 89.085938 117.171875 95.320312 121.328125 95.320312 C 125.488281 95.320312 125.488281 89.085938 121.328125 89.085938 "/>
<path style=" stroke:none;fill-rule:evenodd;fill:rgb(45.098039%,45.098039%,87.058824%);fill-opacity:1;" d="M 126.148438 17.054688 L 130.683594 17.054688 L 130.683594 12.519531 L 126.148438 12.519531 Z M 126.148438 17.054688 "/>
<path style=" stroke:none;fill-rule:evenodd;fill:rgb(45.098039%,45.098039%,87.058824%);fill-opacity:1;" d="M 125.015625 14.789062 C 125.015625 11.765625 120.480469 11.765625 120.480469 14.789062 C 120.480469 17.8125 125.015625 17.8125 125.015625 14.789062 "/>
<path style=" stroke:none;fill-rule:evenodd;fill:rgb(45.098039%,45.098039%,87.058824%);fill-opacity:1;" d="M 36.859375 82.707031 C 36.859375 80.0625 32.890625 80.0625 32.890625 82.707031 C 32.890625 85.351562 36.859375 85.351562 36.859375 82.707031 "/>
<path style=" stroke:none;fill-rule:evenodd;fill:rgb(45.098039%,45.098039%,87.058824%);fill-opacity:1;" d="M 29.769531 82.707031 C 29.769531 80.0625 25.800781 80.0625 25.800781 82.707031 C 25.800781 85.351562 29.769531 85.351562 29.769531 82.707031 "/>
<path style=" stroke:none;fill-rule:evenodd;fill:rgb(45.098039%,45.098039%,87.058824%);fill-opacity:1;" d="M 104.320312 14.789062 C 104.320312 11.007812 98.652344 11.007812 98.652344 14.789062 C 98.652344 18.566406 104.320312 18.566406 104.320312 14.789062 "/>
<path style=" stroke:none;fill-rule:evenodd;fill:rgb(45.098039%,45.098039%,87.058824%);fill-opacity:1;" d="M 129.832031 44.550781 C 129.832031 40.773438 124.164062 40.773438 124.164062 44.550781 C 124.164062 48.332031 129.832031 48.332031 129.832031 44.550781 "/>
<path style=" stroke:none;fill-rule:evenodd;fill:rgb(45.098039%,45.098039%,87.058824%);fill-opacity:1;" d="M 136.921875 81.402344 C 136.921875 77.621094 131.25 77.621094 131.25 81.402344 C 131.25 85.183594 136.921875 85.183594 136.921875 81.402344 "/>
<path style=" stroke:none;fill-rule:evenodd;fill:rgb(45.098039%,45.098039%,87.058824%);fill-opacity:1;" d="M 77.394531 19.039062 C 77.394531 15.261719 71.722656 15.261719 71.722656 19.039062 C 71.722656 22.820312 77.394531 22.820312 77.394531 19.039062 "/>
<path style=" stroke:none;fill-rule:evenodd;fill:rgb(45.098039%,45.098039%,87.058824%);fill-opacity:1;" d="M 100.070312 43.132812 C 100.070312 39.355469 94.402344 39.355469 94.402344 43.132812 C 94.402344 46.914062 100.070312 46.914062 100.070312 43.132812 "/>
<path style=" stroke:none;fill-rule:evenodd;fill:rgb(45.098039%,45.098039%,87.058824%);fill-opacity:1;" d="M 83.0625 37.464844 C 83.0625 33.6875 77.394531 33.6875 77.394531 37.464844 C 77.394531 41.246094 83.0625 41.246094 83.0625 37.464844 "/>
<path style=" stroke:none;fill-rule:evenodd;fill:rgb(45.098039%,45.098039%,87.058824%);fill-opacity:1;" d="M 75.976562 31.796875 C 75.976562 28.015625 70.304688 28.015625 70.304688 31.796875 C 70.304688 35.574219 75.976562 35.574219 75.976562 31.796875 "/>
<path style=" stroke:none;fill-rule:evenodd;fill:rgb(45.098039%,45.098039%,87.058824%);fill-opacity:1;" d="M 56.132812 45.96875 C 56.132812 42.191406 50.464844 42.191406 50.464844 45.96875 C 50.464844 49.75 56.132812 49.75 56.132812 45.96875 "/>
<path style=" stroke:none;fill-rule:evenodd;fill:rgb(45.098039%,45.098039%,87.058824%);fill-opacity:1;" d="M 88.730469 78.566406 C 88.730469 74.789062 83.0625 74.789062 83.0625 78.566406 C 83.0625 82.347656 88.730469 82.347656 88.730469 78.566406 "/>
<path style=" stroke:none;fill-rule:evenodd;fill:rgb(45.098039%,45.098039%,87.058824%);fill-opacity:1;" d="M 100.070312 37.464844 C 100.070312 33.6875 94.402344 33.6875 94.402344 37.464844 C 94.402344 41.246094 100.070312 41.246094 100.070312 37.464844 "/>
<path style="fill:none;stroke-width:0.023622;stroke-linecap:round;stroke-linejoin:miter;stroke:rgb(45.098039%,45.098039%,87.058824%);stroke-opacity:1;stroke-miterlimit:10;" d="M 6.968515 -2.874036 L 6.968515 -2.913369 " transform="matrix(72,0,0,-72,-374.733071,-165.211811)"/>
<path style="fill:none;stroke-width:0.023622;stroke-linecap:round;stroke-linejoin:miter;stroke:rgb(45.098039%,45.098039%,87.058824%);stroke-opacity:1;stroke-miterlimit:10;" d="M 7.066931 -3.326781 L 7.066931 -3.425197 " transform="matrix(72,0,0,-72,-374.733071,-165.211811)"/>
<path style="fill:none;stroke-width:0.023622;stroke-linecap:round;stroke-linejoin:miter;stroke:rgb(45.098039%,45.098039%,87.058824%);stroke-opacity:1;stroke-miterlimit:10;" d="M 7.066931 -3.425197 L 7.066931 -3.543306 " transform="matrix(72,0,0,-72,-374.733071,-165.211811)"/>
<path style="fill:none;stroke-width:0.023622;stroke-linecap:round;stroke-linejoin:miter;stroke:rgb(45.098039%,45.098039%,87.058824%);stroke-opacity:1;stroke-miterlimit:10;" d="M 6.220468 -2.734658 L 6.14332 -2.657456 " transform="matrix(72,0,0,-72,-374.733071,-165.211811)"/>
<path style="fill:none;stroke-width:0.023622;stroke-linecap:round;stroke-linejoin:miter;stroke:rgb(45.098039%,45.098039%,87.058824%);stroke-opacity:1;stroke-miterlimit:10;" d="M 6.220468 -2.736232 L 6.220468 -2.734658 " transform="matrix(72,0,0,-72,-374.733071,-165.211811)"/>
<path style="fill:none;stroke-width:0.023622;stroke-linecap:round;stroke-linejoin:miter;stroke:rgb(45.098039%,45.098039%,87.058824%);stroke-opacity:1;stroke-miterlimit:10;" d="M 6.653519 -2.651162 L 6.653519 -2.716538 " transform="matrix(72,0,0,-72,-374.733071,-165.211811)"/>
<path style="fill:none;stroke-width:0.023622;stroke-linecap:round;stroke-linejoin:miter;stroke:rgb(45.098039%,45.098039%,87.058824%);stroke-opacity:1;stroke-miterlimit:10;" d="M 6.653519 -2.716538 L 6.555103 -2.814954 " transform="matrix(72,0,0,-72,-374.733071,-165.211811)"/>
<path style="fill:none;stroke-width:0.023622;stroke-linecap:round;stroke-linejoin:miter;stroke:rgb(45.098039%,45.098039%,87.058824%);stroke-opacity:1;stroke-miterlimit:10;" d="M 6.555103 -2.834648 L 6.555103 -2.874036 " transform="matrix(72,0,0,-72,-374.733071,-165.211811)"/>
<path style="fill:none;stroke-width:0.023622;stroke-linecap:round;stroke-linejoin:miter;stroke:rgb(45.098039%,45.098039%,87.058824%);stroke-opacity:1;stroke-miterlimit:10;" d="M 6.555103 -2.814954 L 6.555103 -2.834648 " transform="matrix(72,0,0,-72,-374.733071,-165.211811)"/>
<path style="fill:none;stroke-width:0.023622;stroke-linecap:round;stroke-linejoin:miter;stroke:rgb(45.098039%,45.098039%,87.058824%);stroke-opacity:1;stroke-miterlimit:10;" d="M 6.318884 -2.503918 L 6.27955 -2.464585 " transform="matrix(72,0,0,-72,-374.733071,-165.211811)"/>
<path style="fill:none;stroke-width:0.023622;stroke-linecap:round;stroke-linejoin:miter;stroke:rgb(45.098039%,45.098039%,87.058824%);stroke-opacity:1;stroke-miterlimit:10;" d="M 6.082664 -2.464585 L 6.04333 -2.503918 " transform="matrix(72,0,0,-72,-374.733071,-165.211811)"/>
<path style="fill:none;stroke-width:0.023622;stroke-linecap:round;stroke-linejoin:miter;stroke:rgb(45.098039%,45.098039%,87.058824%);stroke-opacity:1;stroke-miterlimit:10;" d="M 6.318884 -2.814954 L 6.318884 -2.503918 " transform="matrix(72,0,0,-72,-374.733071,-165.211811)"/>
<path style="fill:none;stroke-width:0.023622;stroke-linecap:round;stroke-linejoin:miter;stroke:rgb(45.098039%,45.098039%,87.058824%);stroke-opacity:1;stroke-miterlimit:10;" d="M 6.04333 -2.503918 L 6.04333 -2.557467 " transform="matrix(72,0,0,-72,-374.733071,-165.211811)"/>
<path style="fill:none;stroke-width:0.023622;stroke-linecap:round;stroke-linejoin:miter;stroke:rgb(45.098039%,45.098039%,87.058824%);stroke-opacity:1;stroke-miterlimit:10;" d="M 6.27955 -2.464585 L 6.082664 -2.464585 " transform="matrix(72,0,0,-72,-374.733071,-165.211811)"/>
<path style="fill:none;stroke-width:0.023622;stroke-linecap:round;stroke-linejoin:miter;stroke:rgb(45.098039%,45.098039%,87.058824%);stroke-opacity:1;stroke-miterlimit:10;" d="M 5.590531 -2.805134 L 5.590531 -2.970878 " transform="matrix(72,0,0,-72,-374.733071,-165.211811)"/>
<path style="fill:none;stroke-width:0.023622;stroke-linecap:round;stroke-linejoin:miter;stroke:rgb(45.098039%,45.098039%,87.058824%);stroke-opacity:1;stroke-miterlimit:10;" d="M 5.590531 -2.970878 L 5.629919 -3.010212 " transform="matrix(72,0,0,-72,-374.733071,-165.211811)"/>
<path style="fill:none;stroke-width:0.023622;stroke-linecap:round;stroke-linejoin:miter;stroke:rgb(45.098039%,45.098039%,87.058824%);stroke-opacity:1;stroke-miterlimit:10;" d="M 5.94486 -3.070867 L 5.94486 -2.933063 " transform="matrix(72,0,0,-72,-374.733071,-165.211811)"/>
<path style="fill:none;stroke-width:0.023622;stroke-linecap:round;stroke-linejoin:miter;stroke:rgb(45.098039%,45.098039%,87.058824%);stroke-opacity:1;stroke-miterlimit:10;" d="M 6.555103 -2.401596 L 6.003942 -2.401596 " transform="matrix(72,0,0,-72,-374.733071,-165.211811)"/>
<path style="fill:none;stroke-width:0.023622;stroke-linecap:round;stroke-linejoin:miter;stroke:rgb(45.098039%,45.098039%,87.058824%);stroke-opacity:1;stroke-miterlimit:10;" d="M 6.003942 -2.401596 L 5.943287 -2.462197 " transform="matrix(72,0,0,-72,-374.733071,-165.211811)"/>
<path style="fill:none;stroke-width:0.023622;stroke-linecap:round;stroke-linejoin:miter;stroke:rgb(45.098039%,45.098039%,87.058824%);stroke-opacity:1;stroke-miterlimit:10;" d="M 5.943287 -2.462197 L 5.943287 -2.557467 " transform="matrix(72,0,0,-72,-374.733071,-165.211811)"/>
<path style="fill:none;stroke-width:0.023622;stroke-linecap:round;stroke-linejoin:miter;stroke:rgb(45.098039%,45.098039%,87.058824%);stroke-opacity:1;stroke-miterlimit:10;" d="M 6.456688 -2.657456 L 6.456688 -2.500012 " transform="matrix(72,0,0,-72,-374.733071,-165.211811)"/>
<path style="fill:none;stroke-width:0.023622;stroke-linecap:round;stroke-linejoin:miter;stroke:rgb(45.098039%,45.098039%,87.058824%);stroke-opacity:1;stroke-miterlimit:10;" d="M 6.456688 -2.500012 L 6.555103 -2.401596 " transform="matrix(72,0,0,-72,-374.733071,-165.211811)"/>
<path style="fill:none;stroke-width:0.023622;stroke-linecap:round;stroke-linejoin:miter;stroke:rgb(45.098039%,45.098039%,87.058824%);stroke-opacity:1;stroke-miterlimit:10;" d="M 6.555103 -2.401596 L 6.948821 -2.401596 " transform="matrix(72,0,0,-72,-374.733071,-165.211811)"/>
<path style="fill:none;stroke-width:0.023622;stroke-linecap:round;stroke-linejoin:miter;stroke:rgb(45.098039%,45.098039%,87.058824%);stroke-opacity:1;stroke-miterlimit:10;" d="M 6.948821 -2.401596 L 6.992115 -2.444891 " transform="matrix(72,0,0,-72,-374.733071,-165.211811)"/>
<path style="fill:none;stroke-width:0.023622;stroke-linecap:round;stroke-linejoin:miter;stroke:rgb(45.098039%,45.098039%,87.058824%);stroke-opacity:1;stroke-miterlimit:10;" d="M 6.992115 -2.444891 L 6.992115 -2.503918 " transform="matrix(72,0,0,-72,-374.733071,-165.211811)"/>
<path style="fill:none;stroke-width:0.023622;stroke-linecap:round;stroke-linejoin:miter;stroke:rgb(45.098039%,45.098039%,87.058824%);stroke-opacity:1;stroke-miterlimit:10;" d="M 6.992115 -2.503918 L 7.066931 -2.578734 " transform="matrix(72,0,0,-72,-374.733071,-165.211811)"/>
<path style="fill:none;stroke-width:0.023622;stroke-linecap:round;stroke-linejoin:miter;stroke:rgb(45.098039%,45.098039%,87.058824%);stroke-opacity:1;stroke-miterlimit:10;" d="M 7.066931 -2.578734 L 7.066931 -2.972451 " transform="matrix(72,0,0,-72,-374.733071,-165.211811)"/>
<path style="fill:none;stroke-width:0.023622;stroke-linecap:round;stroke-linejoin:miter;stroke:rgb(45.098039%,45.098039%,87.058824%);stroke-opacity:1;stroke-miterlimit:10;" d="M 7.066931 -2.972451 L 7.106319 -3.011785 " transform="matrix(72,0,0,-72,-374.733071,-165.211811)"/>
<path style="fill:none;stroke-width:0.023622;stroke-linecap:round;stroke-linejoin:miter;stroke:rgb(45.098039%,45.098039%,87.058824%);stroke-opacity:1;stroke-miterlimit:10;" d="M 7.106319 -3.011785 L 7.322844 -3.011785 " transform="matrix(72,0,0,-72,-374.733071,-165.211811)"/>
<path style="fill:none;stroke-width:0.023622;stroke-linecap:round;stroke-linejoin:miter;stroke:rgb(45.098039%,45.098039%,87.058824%);stroke-opacity:1;stroke-miterlimit:10;" d="M 5.943287 -2.738565 L 6.078758 -2.874036 " transform="matrix(72,0,0,-72,-374.733071,-165.211811)"/>
<path style="fill:none;stroke-width:0.023622;stroke-linecap:round;stroke-linejoin:miter;stroke:rgb(45.098039%,45.098039%,87.058824%);stroke-opacity:1;stroke-miterlimit:10;" d="M 6.078758 -3.191364 L 6.158294 -3.270845 " transform="matrix(72,0,0,-72,-374.733071,-165.211811)"/>
<path style="fill:none;stroke-width:0.023622;stroke-linecap:round;stroke-linejoin:miter;stroke:rgb(45.098039%,45.098039%,87.058824%);stroke-opacity:1;stroke-miterlimit:10;" d="M 5.943287 -2.657456 L 5.943287 -2.738565 " transform="matrix(72,0,0,-72,-374.733071,-165.211811)"/>
<path style="fill:none;stroke-width:0.023622;stroke-linecap:round;stroke-linejoin:miter;stroke:rgb(45.098039%,45.098039%,87.058824%);stroke-opacity:1;stroke-miterlimit:10;" d="M 6.078758 -2.874036 L 6.078758 -3.191364 " transform="matrix(72,0,0,-72,-374.733071,-165.211811)"/>
<path style="fill:none;stroke-width:0.023622;stroke-linecap:round;stroke-linejoin:miter;stroke:rgb(45.098039%,45.098039%,87.058824%);stroke-opacity:1;stroke-miterlimit:10;" d="M 6.04333 -2.736232 L 6.141746 -2.834648 " transform="matrix(72,0,0,-72,-374.733071,-165.211811)"/>
<path style="fill:none;stroke-width:0.023622;stroke-linecap:round;stroke-linejoin:miter;stroke:rgb(45.098039%,45.098039%,87.058824%);stroke-opacity:1;stroke-miterlimit:10;" d="M 6.04333 -2.657456 L 6.04333 -2.736232 " transform="matrix(72,0,0,-72,-374.733071,-165.211811)"/>
<path style="fill:none;stroke-width:0.023622;stroke-linecap:round;stroke-linejoin:miter;stroke:rgb(45.098039%,45.098039%,87.058824%);stroke-opacity:1;stroke-miterlimit:10;" d="M 6.141746 -2.834648 L 6.141746 -3.112263 " transform="matrix(72,0,0,-72,-374.733071,-165.211811)"/>
<path style="fill:none;stroke-width:0.023622;stroke-linecap:round;stroke-linejoin:miter;stroke:rgb(45.098039%,45.098039%,87.058824%);stroke-opacity:1;stroke-miterlimit:10;" d="M 6.141746 -3.112263 L 6.20034 -3.170856 " transform="matrix(72,0,0,-72,-374.733071,-165.211811)"/>
<path style="fill:none;stroke-width:0.023622;stroke-linecap:round;stroke-linejoin:miter;stroke:rgb(45.098039%,45.098039%,87.058824%);stroke-opacity:1;stroke-miterlimit:10;" d="M 6.20034 -3.170856 L 6.244882 -3.170856 " transform="matrix(72,0,0,-72,-374.733071,-165.211811)"/>
<path style="fill:none;stroke-width:0.023622;stroke-linecap:round;stroke-linejoin:miter;stroke:rgb(45.098039%,45.098039%,87.058824%);stroke-opacity:1;stroke-miterlimit:10;" d="M 6.456688 -2.657456 L 6.456688 -2.859062 " transform="matrix(72,0,0,-72,-374.733071,-165.211811)"/>
<path style="fill:none;stroke-width:0.023622;stroke-linecap:round;stroke-linejoin:miter;stroke:rgb(45.098039%,45.098039%,87.058824%);stroke-opacity:1;stroke-miterlimit:10;" d="M 6.456688 -2.859062 L 6.244882 -3.070867 " transform="matrix(72,0,0,-72,-374.733071,-165.211811)"/>
<path style="fill:none;stroke-width:0.023622;stroke-linecap:round;stroke-linejoin:miter;stroke:rgb(45.098039%,45.098039%,87.058824%);stroke-opacity:1;stroke-miterlimit:10;" d="M 5.767723 -3.148016 L 5.767723 -3.169283 " transform="matrix(72,0,0,-72,-374.733071,-165.211811)"/>
<path style="fill:none;stroke-width:0.023622;stroke-linecap:round;stroke-linejoin:miter;stroke:rgb(45.098039%,45.098039%,87.058824%);stroke-opacity:1;stroke-miterlimit:10;" d="M 5.629919 -3.010212 L 5.767723 -3.148016 " transform="matrix(72,0,0,-72,-374.733071,-165.211811)"/>
<path style="fill:none;stroke-width:0.023622;stroke-linecap:round;stroke-linejoin:miter;stroke:rgb(45.098039%,45.098039%,87.058824%);stroke-opacity:1;stroke-miterlimit:10;" d="M 5.767723 -3.169283 L 5.807111 -3.169283 " transform="matrix(72,0,0,-72,-374.733071,-165.211811)"/>
<path style="fill:none;stroke-width:0.023622;stroke-linecap:round;stroke-linejoin:miter;stroke:rgb(45.098039%,45.098039%,87.058824%);stroke-opacity:1;stroke-miterlimit:10;" d="M 5.807111 -3.169283 L 5.808684 -3.170856 " transform="matrix(72,0,0,-72,-374.733071,-165.211811)"/>
<path style="fill:none;stroke-width:0.023622;stroke-linecap:round;stroke-linejoin:miter;stroke:rgb(45.098039%,45.098039%,87.058824%);stroke-opacity:1;stroke-miterlimit:10;" d="M 5.808684 -3.170856 L 5.94486 -3.170856 " transform="matrix(72,0,0,-72,-374.733071,-165.211811)"/>
<path style="fill:none;stroke-width:0.023622;stroke-linecap:round;stroke-linejoin:miter;stroke:rgb(45.098039%,45.098039%,87.058824%);stroke-opacity:1;stroke-miterlimit:10;" d="M 5.629919 -3.202378 L 5.663014 -3.202378 " transform="matrix(72,0,0,-72,-374.733071,-165.211811)"/>
<path style="fill:none;stroke-width:0.023622;stroke-linecap:round;stroke-linejoin:miter;stroke:rgb(45.098039%,45.098039%,87.058824%);stroke-opacity:1;stroke-miterlimit:10;" d="M 5.663014 -3.202378 L 5.731481 -3.270845 " transform="matrix(72,0,0,-72,-374.733071,-165.211811)"/>
<path style="fill:none;stroke-width:0.023622;stroke-linecap:round;stroke-linejoin:miter;stroke:rgb(45.098039%,45.098039%,87.058824%);stroke-opacity:1;stroke-miterlimit:10;" d="M 5.731481 -3.270845 L 5.94486 -3.270845 " transform="matrix(72,0,0,-72,-374.733071,-165.211811)"/>
<path style="fill:none;stroke-width:0.023622;stroke-linecap:round;stroke-linejoin:miter;stroke:rgb(45.098039%,45.098039%,87.058824%);stroke-opacity:1;stroke-miterlimit:10;" d="M 5.629919 -3.202378 L 5.590531 -3.241711 " transform="matrix(72,0,0,-72,-374.733071,-165.211811)"/>
<path style="fill:none;stroke-width:0.023622;stroke-linecap:round;stroke-linejoin:miter;stroke:rgb(45.098039%,45.098039%,87.058824%);stroke-opacity:1;stroke-miterlimit:10;" d="M 5.590531 -3.241711 L 5.590531 -3.443317 " transform="matrix(72,0,0,-72,-374.733071,-165.211811)"/>
<path style="fill:none;stroke-width:0.023622;stroke-linecap:round;stroke-linejoin:miter;stroke:rgb(45.098039%,45.098039%,87.058824%);stroke-opacity:1;stroke-miterlimit:10;" d="M 5.938567 -3.740138 L 5.758445 -3.740138 " transform="matrix(72,0,0,-72,-374.733071,-165.211811)"/>
<path style="fill:none;stroke-width:0.023622;stroke-linecap:round;stroke-linejoin:miter;stroke:rgb(45.098039%,45.098039%,87.058824%);stroke-opacity:1;stroke-miterlimit:10;" d="M 6.122052 -3.661416 L 6.200774 -3.740138 " transform="matrix(72,0,0,-72,-374.733071,-165.211811)"/>
<path style="fill:none;stroke-width:0.023622;stroke-linecap:round;stroke-linejoin:miter;stroke:rgb(45.098039%,45.098039%,87.058824%);stroke-opacity:1;stroke-miterlimit:10;" d="M 6.122052 -3.307087 L 6.122052 -3.661416 " transform="matrix(72,0,0,-72,-374.733071,-165.211811)"/>
<path style="fill:none;stroke-width:0.023622;stroke-linecap:round;stroke-linejoin:miter;stroke:rgb(45.098039%,45.098039%,87.058824%);stroke-opacity:1;stroke-miterlimit:10;" d="M 6.244882 -3.270845 L 6.158294 -3.270845 " transform="matrix(72,0,0,-72,-374.733071,-165.211811)"/>
<path style="fill:none;stroke-width:0.023622;stroke-linecap:round;stroke-linejoin:miter;stroke:rgb(45.098039%,45.098039%,87.058824%);stroke-opacity:1;stroke-miterlimit:10;" d="M 6.158294 -3.270845 L 6.122052 -3.307087 " transform="matrix(72,0,0,-72,-374.733071,-165.211811)"/>
<path style="fill:none;stroke-width:0.023622;stroke-linecap:round;stroke-linejoin:miter;stroke:rgb(45.098039%,45.098039%,87.058824%);stroke-opacity:1;stroke-miterlimit:10;" d="M 6.200774 -3.740138 L 6.338578 -3.740138 " transform="matrix(72,0,0,-72,-374.733071,-165.211811)"/>
<path style="fill:none;stroke-width:0.023622;stroke-linecap:round;stroke-linejoin:miter;stroke:rgb(45.098039%,45.098039%,87.058824%);stroke-opacity:1;stroke-miterlimit:10;" d="M 7.30315 -3.188977 L 6.976002 -3.188977 " transform="matrix(72,0,0,-72,-374.733071,-165.211811)"/>
<path style="fill:none;stroke-width:0.023622;stroke-linecap:round;stroke-linejoin:miter;stroke:rgb(45.098039%,45.098039%,87.058824%);stroke-opacity:1;stroke-miterlimit:10;" d="M 6.976002 -3.188977 L 6.889739 -3.275186 " transform="matrix(72,0,0,-72,-374.733071,-165.211811)"/>
<path style="fill:none;stroke-width:0.023622;stroke-linecap:round;stroke-linejoin:miter;stroke:rgb(45.098039%,45.098039%,87.058824%);stroke-opacity:1;stroke-miterlimit:10;" d="M 7.30315 -3.110255 L 6.929127 -3.110255 " transform="matrix(72,0,0,-72,-374.733071,-165.211811)"/>
<path style="fill:none;stroke-width:0.023622;stroke-linecap:round;stroke-linejoin:miter;stroke:rgb(45.098039%,45.098039%,87.058824%);stroke-opacity:1;stroke-miterlimit:10;" d="M 6.929127 -3.110255 L 6.889739 -3.070867 " transform="matrix(72,0,0,-72,-374.733071,-165.211811)"/>
<path style="fill:none;stroke-width:0.023622;stroke-linecap:round;stroke-linejoin:miter;stroke:rgb(45.098039%,45.098039%,87.058824%);stroke-opacity:1;stroke-miterlimit:10;" d="M 6.39766 -3.385809 L 6.259856 -3.385809 " transform="matrix(72,0,0,-72,-374.733071,-165.211811)"/>
<path style="fill:none;stroke-width:0.023622;stroke-linecap:round;stroke-linejoin:miter;stroke:rgb(45.098039%,45.098039%,87.058824%);stroke-opacity:1;stroke-miterlimit:10;" d="M 6.259856 -3.385809 L 6.244882 -3.370889 " transform="matrix(72,0,0,-72,-374.733071,-165.211811)"/>
<path style="fill:none;stroke-width:0.023622;stroke-linecap:round;stroke-linejoin:miter;stroke:rgb(45.098039%,45.098039%,87.058824%);stroke-opacity:1;stroke-miterlimit:10;" d="M 6.673213 -3.687404 L 6.673213 -3.503918 " transform="matrix(72,0,0,-72,-374.733071,-165.211811)"/>
<path style="fill:none;stroke-width:0.023622;stroke-linecap:round;stroke-linejoin:miter;stroke:rgb(45.098039%,45.098039%,87.058824%);stroke-opacity:1;stroke-miterlimit:10;" d="M 6.4173 -3.248005 L 6.4173 -3.208671 " transform="matrix(72,0,0,-72,-374.733071,-165.211811)"/>
<path style="fill:none;stroke-width:0.023622;stroke-linecap:round;stroke-linejoin:miter;stroke:rgb(45.098039%,45.098039%,87.058824%);stroke-opacity:1;stroke-miterlimit:10;" d="M 6.673213 -3.503918 L 6.4173 -3.248005 " transform="matrix(72,0,0,-72,-374.733071,-165.211811)"/>
<path style="fill:none;stroke-width:0.023622;stroke-linecap:round;stroke-linejoin:miter;stroke:rgb(45.098039%,45.098039%,87.058824%);stroke-opacity:1;stroke-miterlimit:10;" d="M 6.4173 -3.208671 L 6.377966 -3.169283 " transform="matrix(72,0,0,-72,-374.733071,-165.211811)"/>
<path style="fill:none;stroke-width:0.023622;stroke-linecap:round;stroke-linejoin:miter;stroke:rgb(45.098039%,45.098039%,87.058824%);stroke-opacity:1;stroke-miterlimit:10;" d="M 6.377966 -3.169283 L 6.338578 -3.169283 " transform="matrix(72,0,0,-72,-374.733071,-165.211811)"/>
<path style="fill:none;stroke-width:0.023622;stroke-linecap:round;stroke-linejoin:miter;stroke:rgb(45.098039%,45.098039%,87.058824%);stroke-opacity:1;stroke-miterlimit:10;" d="M 6.338578 -3.169283 L 6.337004 -3.170856 " transform="matrix(72,0,0,-72,-374.733071,-165.211811)"/>
<path style="fill:none;stroke-width:0.023622;stroke-linecap:round;stroke-linejoin:miter;stroke:rgb(45.098039%,45.098039%,87.058824%);stroke-opacity:1;stroke-miterlimit:10;" d="M 6.337004 -3.170856 L 6.244882 -3.170856 " transform="matrix(72,0,0,-72,-374.733071,-165.211811)"/>
<path style="fill:none;stroke-width:0.023622;stroke-linecap:round;stroke-linejoin:miter;stroke:rgb(45.098039%,45.098039%,87.058824%);stroke-opacity:1;stroke-miterlimit:10;" d="M 6.653519 -3.051173 L 6.462981 -3.051173 " transform="matrix(72,0,0,-72,-374.733071,-165.211811)"/>
<path style="fill:none;stroke-width:0.023622;stroke-linecap:round;stroke-linejoin:miter;stroke:rgb(45.098039%,45.098039%,87.058824%);stroke-opacity:1;stroke-miterlimit:10;" d="M 6.462981 -3.051173 L 6.456688 -3.057467 " transform="matrix(72,0,0,-72,-374.733071,-165.211811)"/>
<path style="fill:none;stroke-width:0.023622;stroke-linecap:round;stroke-linejoin:miter;stroke:rgb(45.098039%,45.098039%,87.058824%);stroke-opacity:1;stroke-miterlimit:10;" d="M 6.889739 -3.070867 L 6.673213 -3.070867 " transform="matrix(72,0,0,-72,-374.733071,-165.211811)"/>
<path style="fill:none;stroke-width:0.023622;stroke-linecap:round;stroke-linejoin:miter;stroke:rgb(45.098039%,45.098039%,87.058824%);stroke-opacity:1;stroke-miterlimit:10;" d="M 6.673213 -3.070867 L 6.653519 -3.051173 " transform="matrix(72,0,0,-72,-374.733071,-165.211811)"/>
<path style="fill:none;stroke-width:0.023622;stroke-linecap:round;stroke-linejoin:miter;stroke:rgb(45.098039%,45.098039%,87.058824%);stroke-opacity:1;stroke-miterlimit:10;" d="M 6.889739 -2.515746 L 6.905527 -2.500012 " transform="matrix(72,0,0,-72,-374.733071,-165.211811)"/>
<path style="fill:none;stroke-width:0.023622;stroke-linecap:round;stroke-linejoin:miter;stroke:rgb(45.098039%,45.098039%,87.058824%);stroke-opacity:1;stroke-miterlimit:10;" d="M 6.889739 -3.275186 L 6.68542 -3.275186 " transform="matrix(72,0,0,-72,-374.733071,-165.211811)"/>
<path style="fill:none;stroke-width:0.023622;stroke-linecap:round;stroke-linejoin:miter;stroke:rgb(45.098039%,45.098039%,87.058824%);stroke-opacity:1;stroke-miterlimit:10;" d="M 6.68542 -3.275186 L 6.673213 -3.287393 " transform="matrix(72,0,0,-72,-374.733071,-165.211811)"/>
<path style="fill:none;stroke-width:0.023622;stroke-linecap:round;stroke-linejoin:miter;stroke:rgb(45.098039%,45.098039%,87.058824%);stroke-opacity:1;stroke-miterlimit:10;" d="M 7.322844 -3.287393 L 7.106319 -3.287393 " transform="matrix(72,0,0,-72,-374.733071,-165.211811)"/>
<path style="fill:none;stroke-width:0.023622;stroke-linecap:round;stroke-linejoin:miter;stroke:rgb(45.098039%,45.098039%,87.058824%);stroke-opacity:1;stroke-miterlimit:10;" d="M 7.106319 -3.287393 L 7.066931 -3.326781 " transform="matrix(72,0,0,-72,-374.733071,-165.211811)"/>
<path style="fill:none;stroke-width:0.023622;stroke-linecap:round;stroke-linejoin:miter;stroke:rgb(45.098039%,45.098039%,87.058824%);stroke-opacity:1;stroke-miterlimit:10;" d="M 7.066931 -3.543306 L 7.03503 -3.575207 " transform="matrix(72,0,0,-72,-374.733071,-165.211811)"/>
<path style="fill:none;stroke-width:0.023622;stroke-linecap:round;stroke-linejoin:miter;stroke:rgb(45.098039%,45.098039%,87.058824%);stroke-opacity:1;stroke-miterlimit:10;" d="M 7.03503 -3.575207 L 6.889739 -3.575207 " transform="matrix(72,0,0,-72,-374.733071,-165.211811)"/>
<path style=" stroke:none;fill-rule:evenodd;fill:rgb(45.098039%,45.098039%,87.058824%);fill-opacity:1;" d="M 42.359375 6.34375 L 42.726562 6.511719 L 43.03125 6.773438 L 43.25 7.113281 L 43.363281 7.5 L 43.378906 7.699219 L 43.378906 31.796875 L 44.792969 33.214844 L 48.820312 33.214844 L 49.21875 33.269531 L 49.585938 33.4375 L 49.890625 33.703125 L 50.027344 33.890625 L 50.03125 33.898438 L 50.375 34.367188 L 53.898438 37.894531 L 54.140625 38.214844 L 54.28125 38.59375 L 54.308594 38.996094 L 54.226562 39.390625 L 54.03125 39.742188 L 53.746094 40.027344 L 53.394531 40.21875 L 53 40.304688 L 52.488281 40.34375 L 51.695312 40.515625 L 50.9375 40.796875 L 50.226562 41.1875 L 49.574219 41.671875 L 49 42.246094 L 48.515625 42.894531 L 48.128906 43.609375 L 47.84375 44.367188 L 47.671875 45.160156 L 47.613281 45.96875 L 47.628906 46.207031 L 47.671875 46.777344 L 47.84375 47.570312 L 48.128906 48.332031 L 48.472656 48.964844 L 48.515625 49.042969 L 48.628906 49.191406 L 49 49.691406 L 49.035156 49.730469 L 49.253906 50.070312 L 49.367188 50.453125 L 49.367188 50.859375 L 49.253906 51.242188 L 49.054688 51.546875 L 49.058594 51.550781 L 48.652344 52.054688 L 48.382812 52.566406 L 48.226562 53.121094 L 48.195312 53.457031 L 48.195312 57.988281 L 48.136719 58.386719 L 47.96875 58.753906 L 47.707031 59.058594 L 47.367188 59.277344 L 46.980469 59.390625 L 46.78125 59.402344 L 44.496094 59.402344 L 44.273438 59.386719 L 44.242188 59.382812 L 44.097656 59.359375 L 44.042969 59.351562 L 43.65625 59.230469 L 43.320312 59.007812 L 43.261719 58.953125 L 43.214844 58.90625 L 42.945312 58.632812 L 39.539062 55.230469 L 39.296875 54.90625 L 39.15625 54.53125 L 39.125 54.230469 L 39.125 36.046875 L 37.707031 34.628906 L 32.933594 34.628906 L 32.535156 34.574219 L 32.171875 34.40625 L 31.867188 34.140625 L 31.8125 34.074219 L 31.328125 33.46875 L 31.296875 33.4375 L 30.800781 32.976562 L 30.203125 32.570312 L 29.863281 32.40625 L 29.550781 32.257812 L 28.863281 32.042969 L 28.5625 32 L 28.148438 31.9375 L 27.425781 31.9375 L 27.011719 32 L 26.710938 32.042969 L 26.019531 32.257812 L 25.371094 32.570312 L 25.320312 32.605469 L 24.773438 32.976562 L 24.242188 33.46875 L 23.792969 34.035156 L 23.757812 34.074219 L 23.753906 34.070312 L 23.535156 34.308594 L 23.191406 34.519531 L 22.800781 34.621094 L 22.636719 34.628906 L 22.117188 34.628906 L 22.117188 77.152344 L 22.6875 77.152344 L 23.085938 77.207031 L 23.449219 77.375 L 23.753906 77.636719 L 23.972656 77.976562 L 24.085938 78.363281 L 24.101562 78.566406 L 24.101562 79.101562 L 24.042969 79.5 L 23.875 79.867188 L 23.796875 79.980469 L 23.792969 79.984375 L 23.429688 80.609375 L 23.167969 81.28125 L 23.007812 81.984375 L 22.953125 82.707031 L 23.007812 83.425781 L 23.167969 84.132812 L 23.429688 84.804688 L 23.792969 85.429688 L 24.242188 85.992188 L 24.242188 85.996094 L 24.773438 86.484375 L 25.371094 86.890625 L 26.019531 87.207031 L 26.710938 87.417969 L 27.425781 87.527344 L 28.148438 87.527344 L 28.863281 87.417969 L 29.550781 87.207031 L 30.203125 86.890625 L 30.800781 86.484375 L 31.328125 85.992188 L 31.78125 85.429688 L 32.140625 84.804688 L 32.40625 84.132812 L 32.566406 83.425781 L 32.621094 82.707031 L 32.566406 81.984375 L 32.40625 81.28125 L 32.140625 80.609375 L 31.78125 79.984375 L 31.75 79.941406 L 31.753906 79.9375 L 31.578125 79.636719 L 31.480469 79.246094 L 31.472656 79.101562 L 31.472656 78.566406 L 31.53125 78.167969 L 31.699219 77.800781 L 31.960938 77.496094 L 32.300781 77.277344 L 32.6875 77.164062 L 32.886719 77.152344 L 39.125 77.152344 L 39.125 75.390625 L 39.183594 74.992188 L 39.351562 74.625 L 39.613281 74.324219 L 39.953125 74.105469 L 40.339844 73.992188 L 40.539062 73.976562 L 49.21875 73.976562 L 49.617188 74.035156 L 49.980469 74.203125 L 50.097656 74.285156 L 50.105469 74.292969 L 50.738281 74.722656 L 51.429688 75.054688 L 52.160156 75.28125 L 52.914062 75.394531 L 53.679688 75.394531 L 54.4375 75.28125 L 55.167969 75.054688 L 55.859375 74.722656 L 56.488281 74.292969 L 57.050781 73.773438 L 57.527344 73.171875 L 57.910156 72.511719 L 58.1875 71.800781 L 58.359375 71.054688 L 58.417969 70.289062 L 58.359375 69.527344 L 58.1875 68.78125 L 58.175781 68.730469 L 58.183594 68.730469 L 58.132812 68.410156 L 58.1875 68.011719 L 58.347656 67.640625 L 58.609375 67.335938 L 58.945312 67.113281 L 59.328125 66.992188 L 59.730469 66.988281 L 60.117188 67.097656 L 60.460938 67.308594 L 60.550781 67.390625 L 62.585938 69.429688 L 62.828125 69.75 L 62.96875 70.128906 L 63 70.53125 L 62.914062 70.925781 L 62.847656 71.070312 L 62.632812 71.492188 L 62.621094 71.535156 L 62.535156 71.800781 L 62.464844 72.015625 L 62.457031 72.035156 L 62.367188 72.609375 L 62.367188 98.699219 L 62.398438 98.898438 L 62.457031 99.273438 L 62.636719 99.824219 L 62.710938 99.96875 L 62.902344 100.34375 L 63.242188 100.8125 L 69.320312 106.890625 L 69.609375 107.101562 L 69.792969 107.234375 L 70.050781 107.363281 L 70.308594 107.496094 L 70.585938 107.585938 L 70.859375 107.675781 L 71.433594 107.765625 L 77.5625 107.765625 L 77.960938 107.824219 L 78.328125 107.992188 L 78.445312 108.074219 L 78.453125 108.082031 L 79.085938 108.511719 L 79.773438 108.84375 L 80.507812 109.070312 L 81.261719 109.183594 L 82.027344 109.183594 L 82.785156 109.070312 L 83.515625 108.84375 L 84.203125 108.511719 L 84.835938 108.082031 L 85.398438 107.5625 L 85.875 106.960938 L 86.257812 106.300781 L 86.535156 105.589844 L 86.707031 104.84375 L 86.761719 104.078125 L 86.707031 103.316406 L 86.535156 102.570312 L 86.53125 102.558594 L 86.257812 101.859375 L 85.875 101.195312 L 85.398438 100.597656 L 85.167969 100.386719 L 84.835938 100.078125 L 84.203125 99.648438 L 83.9375 99.519531 L 83.515625 99.316406 L 82.785156 99.089844 L 82.484375 99.042969 L 82.027344 98.976562 L 81.261719 98.976562 L 80.910156 99.027344 L 80.507812 99.089844 L 80.050781 99.230469 L 79.773438 99.316406 L 79.085938 99.648438 L 78.453125 100.078125 L 78.445312 100.085938 L 78.4375 100.089844 L 78.410156 100.109375 L 78.410156 100.105469 L 78.097656 100.289062 L 77.707031 100.386719 L 77.5625 100.394531 L 73.835938 100.394531 L 73.4375 100.335938 L 73.070312 100.167969 L 72.835938 99.980469 L 70.15625 97.296875 L 69.914062 96.976562 L 69.773438 96.597656 L 69.742188 96.296875 L 69.742188 82.828125 L 69.796875 82.429688 L 69.964844 82.0625 L 70.230469 81.757812 L 70.566406 81.539062 L 70.953125 81.425781 L 71.355469 81.425781 L 71.742188 81.539062 L 71.953125 81.660156 L 72.339844 81.921875 L 73.027344 82.253906 L 73.757812 82.480469 L 74.515625 82.59375 L 75.28125 82.59375 L 76.039062 82.480469 L 76.566406 82.316406 L 76.964844 82.253906 L 80.976562 82.253906 L 81.375 82.3125 L 81.742188 82.480469 L 81.976562 82.667969 L 82.175781 82.863281 L 82.433594 83.058594 L 82.824219 83.351562 L 83.535156 83.738281 L 84.074219 83.941406 L 84.296875 84.023438 L 84.792969 84.132812 L 85.085938 84.195312 L 85.898438 84.253906 L 86.707031 84.195312 L 87.046875 84.121094 L 87.5 84.023438 L 88.257812 83.738281 L 88.96875 83.351562 L 89.621094 82.863281 L 90.195312 82.289062 L 90.679688 81.640625 L 91.066406 80.929688 L 91.199219 80.578125 L 91.394531 80.222656 L 91.675781 79.9375 L 92.03125 79.746094 L 92.425781 79.660156 L 92.824219 79.6875 L 93.203125 79.828125 L 93.523438 80.070312 L 101.636719 88.183594 L 101.878906 88.507812 L 102.019531 88.882812 L 102.054688 89.183594 L 102.054688 96.222656 L 101.996094 96.621094 L 101.828125 96.988281 L 101.746094 97.105469 L 101.511719 97.398438 L 101.128906 98.058594 L 100.847656 98.773438 L 100.726562 99.316406 L 100.679688 99.519531 L 100.621094 100.28125 L 100.679688 101.042969 L 100.847656 101.789062 L 101.128906 102.5 L 101.511719 103.164062 L 101.988281 103.761719 L 102.546875 104.28125 L 103.179688 104.714844 L 103.871094 105.046875 L 104.601562 105.269531 L 105.355469 105.386719 L 106.121094 105.386719 L 106.878906 105.269531 L 107.609375 105.046875 L 108.296875 104.714844 L 108.929688 104.28125 L 109.492188 103.761719 L 109.96875 103.164062 L 110.351562 102.5 L 110.628906 101.789062 L 110.800781 101.042969 L 110.859375 100.28125 L 110.800781 99.519531 L 110.628906 98.773438 L 110.613281 98.734375 L 110.351562 98.058594 L 109.96875 97.398438 L 109.734375 97.105469 L 109.53125 96.757812 L 109.433594 96.367188 L 109.425781 96.222656 L 109.425781 86.78125 L 109.335938 86.207031 L 109.308594 86.121094 L 109.171875 85.710938 L 109.160156 85.667969 L 109.039062 85.429688 L 108.921875 85.199219 L 108.890625 85.140625 L 108.550781 84.671875 L 102.488281 78.609375 L 102.25 78.285156 L 102.109375 77.910156 L 102.078125 77.507812 L 102.164062 77.113281 L 102.359375 76.761719 L 102.640625 76.476562 L 102.996094 76.285156 L 103.390625 76.199219 L 103.789062 76.226562 L 103.90625 76.257812 L 104.601562 76.472656 L 105.355469 76.585938 L 106.121094 76.585938 L 106.878906 76.472656 L 107.609375 76.246094 L 108.296875 75.914062 L 108.929688 75.484375 L 109.492188 74.960938 L 109.605469 74.820312 L 109.898438 74.546875 L 110.257812 74.363281 L 110.652344 74.289062 L 114.453125 74.289062 L 114.851562 74.347656 L 115.214844 74.511719 L 115.519531 74.777344 L 115.707031 75.046875 L 115.820312 75.269531 L 115.832031 75.289062 L 116.195312 75.734375 L 116.644531 76.101562 L 117.15625 76.367188 L 117.707031 76.527344 L 118.046875 76.554688 L 124.613281 76.554688 L 124.949219 76.527344 L 125.503906 76.367188 L 126.015625 76.101562 L 126.464844 75.734375 L 126.828125 75.289062 L 127.09375 74.777344 L 127.253906 74.222656 L 127.285156 73.886719 L 127.285156 70.449219 L 127.339844 70.050781 L 127.507812 69.683594 L 127.699219 69.449219 L 128.652344 68.496094 L 128.972656 68.253906 L 129.351562 68.113281 L 129.652344 68.082031 L 138.339844 68.082031 L 138.738281 68.136719 L 139.105469 68.304688 L 139.410156 68.570312 L 139.628906 68.90625 L 139.742188 69.292969 L 139.753906 69.496094 L 139.753906 74.695312 L 139.699219 75.09375 L 139.53125 75.460938 L 139.265625 75.765625 L 139.046875 75.921875 L 138.882812 76.015625 L 138.621094 76.277344 L 138.433594 76.601562 L 138.335938 76.964844 L 138.335938 115.417969 L 138.277344 115.816406 L 138.113281 116.183594 L 137.847656 116.488281 L 137.507812 116.707031 L 137.125 116.820312 L 136.921875 116.835938 L 13.679688 116.835938 L 13.523438 116.824219 L 10.621094 116.503906 L 10.230469 116.402344 L 9.886719 116.195312 L 9.613281 115.898438 L 9.433594 115.539062 L 9.363281 115.140625 L 9.363281 104.078125 L 34.476562 104.078125 L 34.53125 104.84375 L 34.53125 104.847656 L 34.695312 105.601562 L 34.964844 106.324219 L 35.332031 107 L 35.792969 107.617188 L 36.339844 108.160156 L 36.957031 108.625 L 37.632812 108.992188 L 38.355469 109.261719 L 39.109375 109.425781 L 39.875 109.480469 L 40.644531 109.425781 L 41.398438 109.261719 L 42.121094 108.992188 L 42.796875 108.625 L 43.414062 108.160156 L 43.453125 108.128906 L 43.457031 108.132812 L 43.714844 107.9375 L 44.09375 107.796875 L 44.394531 107.765625 L 48.765625 107.765625 L 49.164062 107.824219 L 49.527344 107.992188 L 49.644531 108.074219 L 49.652344 108.082031 L 50.285156 108.511719 L 50.976562 108.84375 L 51.707031 109.070312 L 52.460938 109.183594 L 53.226562 109.183594 L 53.984375 109.070312 L 54.714844 108.84375 L 55.402344 108.511719 L 56.035156 108.082031 L 56.597656 107.5625 L 57.074219 106.960938 L 57.457031 106.300781 L 57.734375 105.589844 L 57.90625 104.84375 L 57.964844 104.078125 L 57.90625 103.316406 L 57.734375 102.570312 L 57.730469 102.558594 L 57.457031 101.859375 L 57.074219 101.195312 L 56.597656 100.597656 L 56.367188 100.386719 L 56.035156 100.078125 L 55.402344 99.648438 L 55.136719 99.519531 L 54.714844 99.316406 L 53.984375 99.089844 L 53.683594 99.042969 L 53.226562 98.976562 L 52.460938 98.976562 L 52.113281 99.027344 L 51.707031 99.089844 L 51.253906 99.230469 L 50.976562 99.316406 L 50.285156 99.648438 L 49.652344 100.078125 L 49.644531 100.085938 L 49.636719 100.089844 L 49.609375 100.109375 L 49.609375 100.105469 L 49.296875 100.289062 L 48.90625 100.386719 L 48.765625 100.394531 L 44.394531 100.394531 L 43.996094 100.335938 L 43.628906 100.167969 L 43.453125 100.027344 L 43.453125 100.03125 L 43.414062 99.996094 L 42.796875 99.535156 L 42.121094 99.167969 L 41.398438 98.898438 L 40.644531 98.734375 L 39.875 98.679688 L 39.109375 98.734375 L 38.355469 98.898438 L 37.632812 99.167969 L 36.957031 99.535156 L 36.339844 99.996094 L 35.792969 100.542969 L 35.332031 101.160156 L 34.964844 101.835938 L 34.695312 102.558594 L 34.53125 103.3125 L 34.476562 104.078125 L 9.363281 104.078125 L 9.363281 7.699219 L 9.421875 7.300781 L 9.585938 6.933594 L 9.851562 6.632812 L 10.191406 6.414062 L 10.574219 6.300781 L 10.777344 6.285156 L 41.960938 6.285156 Z M 42.359375 6.34375 "/>
<path style=" stroke:none;fill-rule:evenodd;fill:rgb(45.098039%,45.098039%,87.058824%);fill-opacity:1;" d="M 122.296875 11.445312 L 122.664062 11.613281 L 122.96875 11.875 L 123.183594 12.214844 L 123.296875 12.601562 L 123.3125 12.800781 L 123.3125 17.21875 L 123.332031 17.445312 L 123.34375 17.558594 L 123.449219 17.929688 L 123.5 18.113281 L 123.769531 18.625 L 124.132812 19.070312 L 124.582031 19.4375 L 125.089844 19.703125 L 125.644531 19.863281 L 125.984375 19.890625 L 127.722656 19.890625 L 128.121094 19.949219 L 128.484375 20.117188 L 128.722656 20.304688 L 129.984375 21.570312 L 130.226562 21.890625 L 130.367188 22.269531 L 130.398438 22.570312 L 130.398438 49.09375 L 130.488281 49.667969 L 130.578125 49.9375 L 130.667969 50.21875 L 130.714844 50.304688 L 130.933594 50.734375 L 131.273438 51.207031 L 132.679688 52.609375 L 132.691406 52.625 L 132.933594 52.945312 L 133.074219 53.324219 L 133.101562 53.726562 L 133.019531 54.117188 L 132.824219 54.472656 L 132.539062 54.757812 L 132.1875 54.949219 L 131.792969 55.035156 L 131.691406 55.039062 L 126.277344 55.039062 L 125.878906 54.980469 L 125.511719 54.8125 L 125.277344 54.625 L 124.863281 54.210938 L 124.621094 53.886719 L 124.480469 53.511719 L 124.449219 53.210938 L 124.449219 52.949219 L 124.417969 52.609375 L 124.261719 52.054688 L 123.992188 51.542969 L 123.628906 51.097656 L 123.183594 50.730469 L 122.671875 50.464844 L 122.117188 50.304688 L 121.777344 50.277344 L 115.210938 50.277344 L 114.875 50.304688 L 114.320312 50.464844 L 113.808594 50.730469 L 113.363281 51.097656 L 112.996094 51.542969 L 112.980469 51.566406 L 112.714844 51.871094 L 112.371094 52.082031 L 111.984375 52.191406 L 111.800781 52.203125 L 109.71875 52.203125 L 109.320312 52.148438 L 108.953125 51.980469 L 108.648438 51.714844 L 108.558594 51.601562 L 108.074219 50.992188 L 108.066406 50.988281 L 107.511719 50.472656 L 106.882812 50.039062 L 106.644531 49.925781 L 106.191406 49.707031 L 105.460938 49.484375 L 105.160156 49.4375 L 104.703125 49.371094 L 103.941406 49.371094 L 103.433594 49.445312 L 103.183594 49.484375 L 102.449219 49.710938 L 102.050781 49.773438 L 101.652344 49.722656 L 101.28125 49.558594 L 100.976562 49.300781 L 100.753906 48.964844 L 100.632812 48.578125 L 100.628906 48.175781 L 100.738281 47.789062 L 100.949219 47.445312 L 101.03125 47.359375 L 101.53125 46.859375 L 102.019531 46.207031 L 102.40625 45.496094 L 102.691406 44.738281 L 102.863281 43.945312 L 102.921875 43.132812 L 102.863281 42.324219 L 102.691406 41.53125 L 102.5625 41.1875 L 102.414062 40.792969 L 102.328125 40.402344 L 102.359375 40 L 102.414062 39.804688 L 102.4375 39.742188 L 102.691406 39.066406 L 102.863281 38.273438 L 102.917969 37.484375 L 103.003906 37.089844 L 103.199219 36.738281 L 103.328125 36.585938 L 107.132812 32.78125 L 107.476562 32.3125 L 107.648438 31.972656 L 107.738281 31.792969 L 107.796875 31.613281 L 107.917969 31.242188 L 108.007812 30.667969 L 108.007812 29.730469 L 108.066406 29.332031 L 108.234375 28.964844 L 108.316406 28.847656 L 108.347656 28.8125 L 108.550781 28.554688 L 108.933594 27.894531 L 109.210938 27.183594 L 109.382812 26.4375 L 109.441406 25.671875 L 109.382812 24.910156 L 109.210938 24.164062 L 108.933594 23.453125 L 108.550781 22.789062 L 108.074219 22.191406 L 107.511719 21.671875 L 106.882812 21.242188 L 106.550781 21.082031 L 106.191406 20.910156 L 105.460938 20.683594 L 105.160156 20.636719 L 104.703125 20.570312 L 103.941406 20.570312 L 103.589844 20.621094 L 103.183594 20.683594 L 102.730469 20.824219 L 102.453125 20.910156 L 101.761719 21.242188 L 101.132812 21.671875 L 100.570312 22.191406 L 100.09375 22.789062 L 99.710938 23.453125 L 99.429688 24.164062 L 99.261719 24.910156 L 99.203125 25.671875 L 99.261719 26.4375 L 99.429688 27.183594 L 99.710938 27.894531 L 99.855469 28.148438 L 100.007812 28.519531 L 100.046875 28.921875 L 99.96875 29.316406 L 99.785156 29.675781 L 99.632812 29.855469 L 98.117188 31.371094 L 97.792969 31.613281 L 97.417969 31.753906 L 97.21875 31.78125 L 96.425781 31.839844 L 95.585938 32.019531 L 95.582031 32.015625 L 95.25 32.0625 L 94.851562 32.007812 L 94.484375 31.839844 L 94.179688 31.574219 L 93.964844 31.238281 L 93.851562 30.851562 L 93.835938 30.648438 L 93.835938 30.183594 L 93.890625 29.785156 L 94.058594 29.421875 L 94.144531 29.304688 L 94.171875 29.265625 L 94.378906 29.011719 L 94.761719 28.347656 L 95.039062 27.636719 L 95.210938 26.890625 L 95.265625 26.125 L 95.210938 25.363281 L 95.039062 24.617188 L 94.761719 23.90625 L 94.378906 23.242188 L 94.144531 22.949219 L 93.941406 22.601562 L 93.84375 22.210938 L 93.835938 22.070312 L 93.835938 16.902344 L 93.890625 16.503906 L 94.058594 16.136719 L 94.25 15.902344 L 98.347656 11.800781 L 98.671875 11.5625 L 99.046875 11.421875 L 99.347656 11.386719 L 121.898438 11.386719 Z M 122.296875 11.445312 "/>
<path style=" stroke:none;fill-rule:evenodd;fill:rgb(45.098039%,45.098039%,87.058824%);fill-opacity:1;" d="M 75.523438 15.980469 L 75.890625 16.148438 L 76.195312 16.410156 L 76.414062 16.75 L 76.527344 17.136719 L 76.542969 17.339844 L 76.542969 24.980469 L 76.484375 25.378906 L 76.316406 25.746094 L 76.054688 26.046875 L 75.714844 26.265625 L 75.328125 26.378906 L 74.925781 26.378906 L 74.792969 26.351562 L 73.949219 26.167969 L 73.902344 26.160156 L 73.515625 26.046875 L 73.175781 25.832031 L 72.914062 25.527344 L 72.746094 25.160156 L 72.722656 25.0625 L 72.632812 24.644531 L 72.367188 23.941406 L 72.101562 23.453125 L 72.007812 23.285156 L 71.558594 22.683594 L 71.027344 22.152344 L 70.429688 21.703125 L 70.148438 21.550781 L 69.769531 21.34375 L 69.066406 21.082031 L 68.332031 20.921875 L 67.585938 20.867188 L 67.121094 20.902344 L 66.722656 20.871094 L 66.34375 20.730469 L 66.023438 20.492188 L 65.78125 20.167969 L 65.640625 19.789062 L 65.609375 19.390625 L 65.644531 18.925781 L 65.621094 18.625 L 65.589844 18.179688 L 65.5625 18.054688 L 65.472656 17.636719 L 65.445312 17.238281 L 65.53125 16.84375 L 65.722656 16.492188 L 66.007812 16.207031 L 66.359375 16.011719 L 66.753906 15.925781 L 66.855469 15.921875 L 75.125 15.921875 Z M 75.523438 15.980469 "/>
<path style="fill:none;stroke-width:0.0019685;stroke-linecap:round;stroke-linejoin:miter;stroke:rgb(45.098039%,45.098039%,87.058824%);stroke-opacity:1;stroke-miterlimit:10;" d="M 7.145652 -3.366169 L 7.145652 -3.937024 " transform="matrix(72,0,0,-72,-374.733071,-165.211811)"/>
<path style="fill:none;stroke-width:0.0019685;stroke-linecap:round;stroke-linejoin:miter;stroke:rgb(45.098039%,45.098039%,87.058824%);stroke-opacity:1;stroke-miterlimit:10;" d="M 7.499982 -3.366169 L 7.145652 -3.366169 " transform="matrix(72,0,0,-72,-374.733071,-165.211811)"/>
<path style="fill:none;stroke-width:0.0019685;stroke-linecap:round;stroke-linejoin:miter;stroke:rgb(45.098039%,45.098039%,87.058824%);stroke-opacity:1;stroke-miterlimit:10;" d="M 7.499982 -2.933063 L 7.499982 -3.366169 " transform="matrix(72,0,0,-72,-374.733071,-165.211811)"/>
<path style="fill:none;stroke-width:0.0019685;stroke-linecap:round;stroke-linejoin:miter;stroke:rgb(45.098039%,45.098039%,87.058824%);stroke-opacity:1;stroke-miterlimit:10;" d="M 7.145652 -2.933063 L 7.499982 -2.933063 " transform="matrix(72,0,0,-72,-374.733071,-165.211811)"/>
<path style="fill:none;stroke-width:0.0019685;stroke-linecap:round;stroke-linejoin:miter;stroke:rgb(45.098039%,45.098039%,87.058824%);stroke-opacity:1;stroke-miterlimit:10;" d="M 7.145652 -2.362208 L 7.145652 -2.933063 " transform="matrix(72,0,0,-72,-374.733071,-165.211811)"/>
<path style="fill:none;stroke-width:0.0019685;stroke-linecap:round;stroke-linejoin:miter;stroke:rgb(45.098039%,45.098039%,87.058824%);stroke-opacity:1;stroke-miterlimit:10;" d="M 7.145652 -3.937024 L 5.314978 -3.937024 " transform="matrix(72,0,0,-72,-374.733071,-165.211811)"/>
<path style="fill:none;stroke-width:0.0019685;stroke-linecap:round;stroke-linejoin:miter;stroke:rgb(45.098039%,45.098039%,87.058824%);stroke-opacity:1;stroke-miterlimit:10;" d="M 5.314978 -2.362208 L 7.145652 -2.362208 " transform="matrix(72,0,0,-72,-374.733071,-165.211811)"/>
<path style="fill:none;stroke-width:0.0019685;stroke-linecap:round;stroke-linejoin:miter;stroke:rgb(45.098039%,45.098039%,87.058824%);stroke-opacity:1;stroke-miterlimit:10;" d="M 5.314978 -3.937024 L 5.314978 -2.362208 " transform="matrix(72,0,0,-72,-374.733071,-165.211811)"/>
</g>
</svg>
